<?xml version="1.0" encoding="UTF-8" standalone="no"?>
<!DOCTYPE svg PUBLIC "-//W3C//DTD SVG 1.1//EN"
 "http://www.w3.org/Graphics/SVG/1.1/DTD/svg11.dtd">
<!-- Generated by graphviz version 2.43.0 (0)
 -->
<!-- Title: inheritance1b0cf8def0 Pages: 1 -->
<svg width="88pt" height="137pt"
 viewBox="0.00 0.00 88.00 137.00" xmlns="http://www.w3.org/2000/svg" xmlns:xlink="http://www.w3.org/1999/xlink">
<g id="graph0" class="graph" transform="scale(1 1) rotate(0) translate(4 133)">
<title>inheritance1b0cf8def0</title>
<!-- BaseModel -->
<g id="node1" class="node">
<title>BaseModel</title>
<g id="a_node1"><a xlink:title="Usage docs: https://docs.pydantic.dev/2.4/concepts/models/">
<polygon fill="white" stroke="black" stroke-width="0.5" points="75.5,-129 4.5,-129 4.5,-110 75.5,-110 75.5,-129"/>
<text text-anchor="middle" x="40" y="-117" font-family="Vera Sans, DejaVu Sans, Liberation Sans, Arial, Helvetica, sans" font-size="10.00">BaseModel</text>
</a>
</g>
</g>
<!-- BaseSettings -->
<g id="node2" class="node">
<title>BaseSettings</title>
<g id="a_node2"><a xlink:title="Base class for settings, allowing values to be overridden by environment variables.">
<polygon fill="white" stroke="black" stroke-width="0.5" points="80,-74 0,-74 0,-55 80,-55 80,-74"/>
<text text-anchor="middle" x="40" y="-62" font-family="Vera Sans, DejaVu Sans, Liberation Sans, Arial, Helvetica, sans" font-size="10.00">BaseSettings</text>
</a>
</g>
</g>
<!-- BaseModel&#45;&gt;BaseSettings -->
<g id="edge1" class="edge">
<title>BaseModel&#45;&gt;BaseSettings</title>
<path fill="none" stroke="#6ab0de" stroke-width="3" d="M40,-109.75C40,-101.41 40,-88.74 40,-79.09"/>
<polygon fill="#6ab0de" stroke="#6ab0de" stroke-width="3" points="41.75,-79.09 40,-74.09 38.25,-79.09 41.75,-79.09"/>
</g>
<!-- Settings -->
<g id="node3" class="node">
<title>Settings</title>
<g id="a_node3"><a xlink:href="../funman.api.html#funman.api.settings.Settings" xlink:title="Settings" target="_top">
<polygon fill="white" stroke="black" stroke-width="0.5" points="68,-19 12,-19 12,0 68,0 68,-19"/>
<text text-anchor="middle" x="40" y="-7" font-family="Vera Sans, DejaVu Sans, Liberation Sans, Arial, Helvetica, sans" font-size="10.00">Settings</text>
</a>
</g>
</g>
<!-- BaseSettings&#45;&gt;Settings -->
<g id="edge2" class="edge">
<title>BaseSettings&#45;&gt;Settings</title>
<path fill="none" stroke="#6ab0de" stroke-width="3" d="M40,-54.75C40,-46.41 40,-33.74 40,-24.09"/>
<polygon fill="#6ab0de" stroke="#6ab0de" stroke-width="3" points="41.75,-24.09 40,-19.09 38.25,-24.09 41.75,-24.09"/>
</g>
</g>
</svg>
