<?xml version="1.0" encoding="UTF-8" standalone="no"?>
<!DOCTYPE svg PUBLIC "-//W3C//DTD SVG 1.1//EN"
 "http://www.w3.org/Graphics/SVG/1.1/DTD/svg11.dtd">
<!-- Generated by graphviz version 2.43.0 (0)
 -->
<!-- Title: inheritancedee33790c1 Pages: 1 -->
<svg width="327pt" height="137pt"
 viewBox="0.00 0.00 327.00 137.00" xmlns="http://www.w3.org/2000/svg" xmlns:xlink="http://www.w3.org/1999/xlink">
<g id="graph0" class="graph" transform="scale(1 1) rotate(0) translate(4 133)">
<title>inheritancedee33790c1</title>
<!-- ABC -->
<g id="node1" class="node">
<title>ABC</title>
<g id="a_node1"><a xlink:title="Helper class that provides a standard way to create an ABC using">
<polygon fill="white" stroke="black" stroke-width="0.5" points="214.5,-129 160.5,-129 160.5,-110 214.5,-110 214.5,-129"/>
<text text-anchor="middle" x="187.5" y="-117" font-family="Vera Sans, DejaVu Sans, Liberation Sans, Arial, Helvetica, sans" font-size="10.00">ABC</text>
</a>
</g>
</g>
<!-- AnalysisScenario -->
<g id="node2" class="node">
<title>AnalysisScenario</title>
<g id="a_node2"><a xlink:href="../funman.scenario.html#funman.scenario.scenario.AnalysisScenario" xlink:title="Abstract class for Analysis Scenarios." target="_top">
<polygon fill="white" stroke="black" stroke-width="0.5" points="169.5,-74 69.5,-74 69.5,-55 169.5,-55 169.5,-74"/>
<text text-anchor="middle" x="119.5" y="-62" font-family="Vera Sans, DejaVu Sans, Liberation Sans, Arial, Helvetica, sans" font-size="10.00">AnalysisScenario</text>
</a>
</g>
</g>
<!-- ABC&#45;&gt;AnalysisScenario -->
<g id="edge1" class="edge">
<title>ABC&#45;&gt;AnalysisScenario</title>
<path fill="none" stroke="#6ab0de" stroke-width="3" d="M176.57,-109.98C165.24,-101.15 147.43,-87.27 134.72,-77.36"/>
<polygon fill="#6ab0de" stroke="#6ab0de" stroke-width="3" points="135.64,-75.86 130.62,-74.17 133.49,-78.62 135.64,-75.86"/>
</g>
<!-- AnalysisScenarioResult -->
<g id="node4" class="node">
<title>AnalysisScenarioResult</title>
<g id="a_node4"><a xlink:href="../funman.scenario.html#funman.scenario.scenario.AnalysisScenarioResult" xlink:title="Abstract class for AnalysisScenario result data." target="_top">
<polygon fill="white" stroke="black" stroke-width="0.5" points="319,-74 188,-74 188,-55 319,-55 319,-74"/>
<text text-anchor="middle" x="253.5" y="-62" font-family="Vera Sans, DejaVu Sans, Liberation Sans, Arial, Helvetica, sans" font-size="10.00">AnalysisScenarioResult</text>
</a>
</g>
</g>
<!-- ABC&#45;&gt;AnalysisScenarioResult -->
<g id="edge3" class="edge">
<title>ABC&#45;&gt;AnalysisScenarioResult</title>
<path fill="none" stroke="#6ab0de" stroke-width="3" d="M198.1,-109.98C209.1,-101.15 226.39,-87.27 238.73,-77.36"/>
<polygon fill="#6ab0de" stroke="#6ab0de" stroke-width="3" points="239.9,-78.67 242.7,-74.17 237.71,-75.94 239.9,-78.67"/>
</g>
<!-- SimulationScenario -->
<g id="node5" class="node">
<title>SimulationScenario</title>
<g id="a_node5"><a xlink:href="../funman.scenario.html#funman.scenario.simulation.SimulationScenario" xlink:title="SimulationScenario" target="_top">
<polygon fill="white" stroke="black" stroke-width="0.5" points="111,-19 0,-19 0,0 111,0 111,-19"/>
<text text-anchor="middle" x="55.5" y="-7" font-family="Vera Sans, DejaVu Sans, Liberation Sans, Arial, Helvetica, sans" font-size="10.00">SimulationScenario</text>
</a>
</g>
</g>
<!-- AnalysisScenario&#45;&gt;SimulationScenario -->
<g id="edge4" class="edge">
<title>AnalysisScenario&#45;&gt;SimulationScenario</title>
<path fill="none" stroke="#6ab0de" stroke-width="3" d="M109.22,-54.98C98.55,-46.15 81.79,-32.27 69.83,-22.36"/>
<polygon fill="#6ab0de" stroke="#6ab0de" stroke-width="3" points="70.94,-21.01 65.97,-19.17 68.7,-23.71 70.94,-21.01"/>
</g>
<!-- BaseModel -->
<g id="node3" class="node">
<title>BaseModel</title>
<g id="a_node3"><a xlink:title="Usage docs: https://docs.pydantic.dev/2.9/concepts/models/">
<polygon fill="white" stroke="black" stroke-width="0.5" points="77,-129 6,-129 6,-110 77,-110 77,-129"/>
<text text-anchor="middle" x="41.5" y="-117" font-family="Vera Sans, DejaVu Sans, Liberation Sans, Arial, Helvetica, sans" font-size="10.00">BaseModel</text>
</a>
</g>
</g>
<!-- BaseModel&#45;&gt;AnalysisScenario -->
<g id="edge2" class="edge">
<title>BaseModel&#45;&gt;AnalysisScenario</title>
<path fill="none" stroke="#6ab0de" stroke-width="3" d="M54.03,-109.98C67.15,-101.07 87.82,-87.03 102.42,-77.11"/>
<polygon fill="#6ab0de" stroke="#6ab0de" stroke-width="3" points="103.59,-78.43 106.74,-74.17 101.62,-75.53 103.59,-78.43"/>
</g>
<!-- BaseModel&#45;&gt;SimulationScenario -->
<g id="edge5" class="edge">
<title>BaseModel&#45;&gt;SimulationScenario</title>
<path fill="none" stroke="#6ab0de" stroke-width="3" d="M36.84,-109.78C30.87,-97.47 21.93,-74.31 27.5,-55 30.83,-43.46 38.14,-32.02 44.45,-23.63"/>
<polygon fill="#6ab0de" stroke="#6ab0de" stroke-width="3" points="46.13,-24.32 47.83,-19.3 43.37,-22.17 46.13,-24.32"/>
</g>
<!-- SimulationScenarioResult -->
<g id="node6" class="node">
<title>SimulationScenarioResult</title>
<g id="a_node6"><a xlink:href="../funman.scenario.html#funman.scenario.simulation.SimulationScenarioResult" xlink:title="SimulationScenarioResult" target="_top">
<polygon fill="white" stroke="black" stroke-width="0.5" points="297.5,-19 155.5,-19 155.5,0 297.5,0 297.5,-19"/>
<text text-anchor="middle" x="226.5" y="-7" font-family="Vera Sans, DejaVu Sans, Liberation Sans, Arial, Helvetica, sans" font-size="10.00">SimulationScenarioResult</text>
</a>
</g>
</g>
<!-- BaseModel&#45;&gt;SimulationScenarioResult -->
<g id="edge7" class="edge">
<title>BaseModel&#45;&gt;SimulationScenarioResult</title>
<path fill="none" stroke="#6ab0de" stroke-width="3" d="M41.56,-109.76C42.14,-96.1 45.31,-69.75 60.5,-55 84.37,-31.81 118.95,-20.38 150.37,-14.86"/>
<polygon fill="#6ab0de" stroke="#6ab0de" stroke-width="3" points="150.74,-16.58 155.39,-14.03 150.17,-13.12 150.74,-16.58"/>
</g>
<!-- AnalysisScenarioResult&#45;&gt;SimulationScenarioResult -->
<g id="edge6" class="edge">
<title>AnalysisScenarioResult&#45;&gt;SimulationScenarioResult</title>
<path fill="none" stroke="#6ab0de" stroke-width="3" d="M249.04,-54.75C244.72,-46.26 238.1,-33.27 233.15,-23.56"/>
<polygon fill="#6ab0de" stroke="#6ab0de" stroke-width="3" points="234.7,-22.75 230.88,-19.09 231.59,-24.34 234.7,-22.75"/>
</g>
</g>
</svg>
