<?xml version="1.0" encoding="UTF-8" standalone="no"?>
<!DOCTYPE svg PUBLIC "-//W3C//DTD SVG 1.1//EN"
 "http://www.w3.org/Graphics/SVG/1.1/DTD/svg11.dtd">
<!-- Generated by graphviz version 2.43.0 (0)
 -->
<!-- Title: inheritance0b9db147ae Pages: 1 -->
<svg width="426pt" height="192pt"
 viewBox="0.00 0.00 426.00 192.00" xmlns="http://www.w3.org/2000/svg" xmlns:xlink="http://www.w3.org/1999/xlink">
<g id="graph0" class="graph" transform="scale(1 1) rotate(0) translate(4 188)">
<title>inheritance0b9db147ae</title>
<!-- ABC -->
<g id="node1" class="node">
<title>ABC</title>
<g id="a_node1"><a xlink:title="Helper class that provides a standard way to create an ABC using">
<polygon fill="white" stroke="black" stroke-width="0.5" points="61,-184 7,-184 7,-165 61,-165 61,-184"/>
<text text-anchor="middle" x="34" y="-172" font-family="Vera Sans, DejaVu Sans, Liberation Sans, Arial, Helvetica, sans" font-size="10.00">ABC</text>
</a>
</g>
</g>
<!-- Search -->
<g id="node4" class="node">
<title>Search</title>
<g id="a_node4"><a xlink:href="../funman.search.html#funman.search.search.Search" xlink:title="Search" target="_top">
<polygon fill="white" stroke="black" stroke-width="0.5" points="61,-129 7,-129 7,-110 61,-110 61,-129"/>
<text text-anchor="middle" x="34" y="-117" font-family="Vera Sans, DejaVu Sans, Liberation Sans, Arial, Helvetica, sans" font-size="10.00">Search</text>
</a>
</g>
</g>
<!-- ABC&#45;&gt;Search -->
<g id="edge6" class="edge">
<title>ABC&#45;&gt;Search</title>
<path fill="none" stroke="#6ab0de" stroke-width="3" d="M34,-164.75C34,-156.41 34,-143.74 34,-134.09"/>
<polygon fill="#6ab0de" stroke="#6ab0de" stroke-width="3" points="35.75,-134.09 34,-129.09 32.25,-134.09 35.75,-134.09"/>
</g>
<!-- BaseModel -->
<g id="node2" class="node">
<title>BaseModel</title>
<g id="a_node2"><a xlink:title="Usage docs: https://docs.pydantic.dev/2.9/concepts/models/">
<polygon fill="white" stroke="black" stroke-width="0.5" points="279.5,-184 208.5,-184 208.5,-165 279.5,-165 279.5,-184"/>
<text text-anchor="middle" x="244" y="-172" font-family="Vera Sans, DejaVu Sans, Liberation Sans, Arial, Helvetica, sans" font-size="10.00">BaseModel</text>
</a>
</g>
</g>
<!-- SearchEpisode -->
<g id="node6" class="node">
<title>SearchEpisode</title>
<g id="a_node6"><a xlink:href="../funman.search.html#funman.search.search.SearchEpisode" xlink:title="SearchEpisode" target="_top">
<polygon fill="white" stroke="black" stroke-width="0.5" points="184,-129 96,-129 96,-110 184,-110 184,-129"/>
<text text-anchor="middle" x="140" y="-117" font-family="Vera Sans, DejaVu Sans, Liberation Sans, Arial, Helvetica, sans" font-size="10.00">SearchEpisode</text>
</a>
</g>
</g>
<!-- BaseModel&#45;&gt;SearchEpisode -->
<g id="edge7" class="edge">
<title>BaseModel&#45;&gt;SearchEpisode</title>
<path fill="none" stroke="#6ab0de" stroke-width="3" d="M227.29,-164.98C209.51,-155.92 181.29,-141.54 161.78,-131.6"/>
<polygon fill="#6ab0de" stroke="#6ab0de" stroke-width="3" points="162.26,-129.88 157.01,-129.17 160.67,-133 162.26,-129.88"/>
</g>
<!-- FormulaStack -->
<g id="node8" class="node">
<title>FormulaStack</title>
<g id="a_node8"><a xlink:href="../funman.search.html#funman.search.box_search.FormulaStack" xlink:title="FormulaStack" target="_top">
<polygon fill="white" stroke="black" stroke-width="0.5" points="285.5,-129 202.5,-129 202.5,-110 285.5,-110 285.5,-129"/>
<text text-anchor="middle" x="244" y="-117" font-family="Vera Sans, DejaVu Sans, Liberation Sans, Arial, Helvetica, sans" font-size="10.00">FormulaStack</text>
</a>
</g>
</g>
<!-- BaseModel&#45;&gt;FormulaStack -->
<g id="edge4" class="edge">
<title>BaseModel&#45;&gt;FormulaStack</title>
<path fill="none" stroke="#6ab0de" stroke-width="3" d="M244,-164.75C244,-156.41 244,-143.74 244,-134.09"/>
<polygon fill="#6ab0de" stroke="#6ab0de" stroke-width="3" points="245.75,-134.09 244,-129.09 242.25,-134.09 245.75,-134.09"/>
</g>
<!-- FormulaStackFrame -->
<g id="node9" class="node">
<title>FormulaStackFrame</title>
<g id="a_node9"><a xlink:href="../funman.search.html#funman.search.box_search.FormulaStackFrame" xlink:title="FormulaStackFrame" target="_top">
<polygon fill="white" stroke="black" stroke-width="0.5" points="418,-129 304,-129 304,-110 418,-110 418,-129"/>
<text text-anchor="middle" x="361" y="-117" font-family="Vera Sans, DejaVu Sans, Liberation Sans, Arial, Helvetica, sans" font-size="10.00">FormulaStackFrame</text>
</a>
</g>
</g>
<!-- BaseModel&#45;&gt;FormulaStackFrame -->
<g id="edge5" class="edge">
<title>BaseModel&#45;&gt;FormulaStackFrame</title>
<path fill="none" stroke="#6ab0de" stroke-width="3" d="M262.8,-164.98C282.98,-155.84 315.09,-141.3 337.06,-131.35"/>
<polygon fill="#6ab0de" stroke="#6ab0de" stroke-width="3" points="338.03,-132.83 341.86,-129.17 336.58,-129.64 338.03,-132.83"/>
</g>
<!-- BoxSearch -->
<g id="node3" class="node">
<title>BoxSearch</title>
<g id="a_node3"><a xlink:href="../funman.search.html#funman.search.box_search.BoxSearch" xlink:title="Box search algorithm." target="_top">
<polygon fill="white" stroke="black" stroke-width="0.5" points="68,-74 0,-74 0,-55 68,-55 68,-74"/>
<text text-anchor="middle" x="34" y="-62" font-family="Vera Sans, DejaVu Sans, Liberation Sans, Arial, Helvetica, sans" font-size="10.00">BoxSearch</text>
</a>
</g>
</g>
<!-- Search&#45;&gt;BoxSearch -->
<g id="edge1" class="edge">
<title>Search&#45;&gt;BoxSearch</title>
<path fill="none" stroke="#6ab0de" stroke-width="3" d="M34,-109.75C34,-101.41 34,-88.74 34,-79.09"/>
<polygon fill="#6ab0de" stroke="#6ab0de" stroke-width="3" points="35.75,-79.09 34,-74.09 32.25,-79.09 35.75,-79.09"/>
</g>
<!-- BoxSearchEpisode -->
<g id="node5" class="node">
<title>BoxSearchEpisode</title>
<g id="a_node5"><a xlink:href="../funman.search.html#funman.search.box_search.BoxSearchEpisode" xlink:title="A BoxSearchEpisode stores the data required to organize a BoxSearch, including intermediate data and results. It takes as input:" target="_top">
<polygon fill="white" stroke="black" stroke-width="0.5" points="193.5,-74 86.5,-74 86.5,-55 193.5,-55 193.5,-74"/>
<text text-anchor="middle" x="140" y="-62" font-family="Vera Sans, DejaVu Sans, Liberation Sans, Arial, Helvetica, sans" font-size="10.00">BoxSearchEpisode</text>
</a>
</g>
</g>
<!-- BoxSearchEpisodeMP -->
<g id="node7" class="node">
<title>BoxSearchEpisodeMP</title>
<g id="a_node7"><a xlink:href="../funman.search.html#funman.search.box_search.BoxSearchEpisodeMP" xlink:title="BoxSearchEpisodeMP" target="_top">
<polygon fill="white" stroke="black" stroke-width="0.5" points="201,-19 79,-19 79,0 201,0 201,-19"/>
<text text-anchor="middle" x="140" y="-7" font-family="Vera Sans, DejaVu Sans, Liberation Sans, Arial, Helvetica, sans" font-size="10.00">BoxSearchEpisodeMP</text>
</a>
</g>
</g>
<!-- BoxSearchEpisode&#45;&gt;BoxSearchEpisodeMP -->
<g id="edge3" class="edge">
<title>BoxSearchEpisode&#45;&gt;BoxSearchEpisodeMP</title>
<path fill="none" stroke="#6ab0de" stroke-width="3" d="M140,-54.75C140,-46.41 140,-33.74 140,-24.09"/>
<polygon fill="#6ab0de" stroke="#6ab0de" stroke-width="3" points="141.75,-24.09 140,-19.09 138.25,-24.09 141.75,-24.09"/>
</g>
<!-- SearchEpisode&#45;&gt;BoxSearchEpisode -->
<g id="edge2" class="edge">
<title>SearchEpisode&#45;&gt;BoxSearchEpisode</title>
<path fill="none" stroke="#6ab0de" stroke-width="3" d="M140,-109.75C140,-101.41 140,-88.74 140,-79.09"/>
<polygon fill="#6ab0de" stroke="#6ab0de" stroke-width="3" points="141.75,-79.09 140,-74.09 138.25,-79.09 141.75,-79.09"/>
</g>
</g>
</svg>
