<?xml version="1.0" encoding="UTF-8" standalone="no"?>
<!DOCTYPE svg PUBLIC "-//W3C//DTD SVG 1.1//EN"
 "http://www.w3.org/Graphics/SVG/1.1/DTD/svg11.dtd">
<!-- Generated by graphviz version 2.43.0 (0)
 -->
<!-- Title: inheritance726c753754 Pages: 1 -->
<svg width="199pt" height="192pt"
 viewBox="0.00 0.00 198.50 192.00" xmlns="http://www.w3.org/2000/svg" xmlns:xlink="http://www.w3.org/1999/xlink">
<g id="graph0" class="graph" transform="scale(1 1) rotate(0) translate(4 188)">
<title>inheritance726c753754</title>
<!-- DagWalker -->
<g id="node1" class="node">
<title>DagWalker</title>
<g id="a_node1"><a xlink:title="DagWalker treats the formula as a DAG and performs memoization of the">
<polygon fill="white" stroke="black" stroke-width="0.5" points="88,-129 19,-129 19,-110 88,-110 88,-129"/>
<text text-anchor="middle" x="53.5" y="-117" font-family="Vera Sans, DejaVu Sans, Liberation Sans, Arial, Helvetica, sans" font-size="10.00">DagWalker</text>
</a>
</g>
</g>
<!-- Simplifier -->
<g id="node4" class="node">
<title>Simplifier</title>
<g id="a_node4"><a xlink:title="Perform basic simplifications of the input formula.">
<polygon fill="white" stroke="black" stroke-width="0.5" points="85,-74 22,-74 22,-55 85,-55 85,-74"/>
<text text-anchor="middle" x="53.5" y="-62" font-family="Vera Sans, DejaVu Sans, Liberation Sans, Arial, Helvetica, sans" font-size="10.00">Simplifier</text>
</a>
</g>
</g>
<!-- DagWalker&#45;&gt;Simplifier -->
<g id="edge3" class="edge">
<title>DagWalker&#45;&gt;Simplifier</title>
<path fill="none" stroke="#6ab0de" stroke-width="3" d="M53.5,-109.75C53.5,-101.41 53.5,-88.74 53.5,-79.09"/>
<polygon fill="#6ab0de" stroke="#6ab0de" stroke-width="3" points="55.25,-79.09 53.5,-74.09 51.75,-79.09 55.25,-79.09"/>
</g>
<!-- Walker -->
<g id="node2" class="node">
<title>Walker</title>
<g id="a_node2"><a xlink:title="Base Abstract Walker class.">
<polygon fill="white" stroke="black" stroke-width="0.5" points="80.5,-184 26.5,-184 26.5,-165 80.5,-165 80.5,-184"/>
<text text-anchor="middle" x="53.5" y="-172" font-family="Vera Sans, DejaVu Sans, Liberation Sans, Arial, Helvetica, sans" font-size="10.00">Walker</text>
</a>
</g>
</g>
<!-- Walker&#45;&gt;DagWalker -->
<g id="edge1" class="edge">
<title>Walker&#45;&gt;DagWalker</title>
<path fill="none" stroke="#6ab0de" stroke-width="3" d="M53.5,-164.75C53.5,-156.41 53.5,-143.74 53.5,-134.09"/>
<polygon fill="#6ab0de" stroke="#6ab0de" stroke-width="3" points="55.25,-134.09 53.5,-129.09 51.75,-134.09 55.25,-134.09"/>
</g>
<!-- FUNMANSimplifier -->
<g id="node3" class="node">
<title>FUNMANSimplifier</title>
<g id="a_node3"><a xlink:href="../funman.translate.html#funman.translate.simplifier.FUNMANSimplifier" xlink:title="FUNMANSimplifier" target="_top">
<polygon fill="white" stroke="black" stroke-width="0.5" points="107,-19 0,-19 0,0 107,0 107,-19"/>
<text text-anchor="middle" x="53.5" y="-7" font-family="Vera Sans, DejaVu Sans, Liberation Sans, Arial, Helvetica, sans" font-size="10.00">FUNMANSimplifier</text>
</a>
</g>
</g>
<!-- Simplifier&#45;&gt;FUNMANSimplifier -->
<g id="edge2" class="edge">
<title>Simplifier&#45;&gt;FUNMANSimplifier</title>
<path fill="none" stroke="#6ab0de" stroke-width="3" d="M53.5,-54.75C53.5,-46.41 53.5,-33.74 53.5,-24.09"/>
<polygon fill="#6ab0de" stroke="#6ab0de" stroke-width="3" points="55.25,-24.09 53.5,-19.09 51.75,-24.09 55.25,-24.09"/>
</g>
<!-- SympyToPysmt -->
<g id="node5" class="node">
<title>SympyToPysmt</title>
<g id="a_node5"><a xlink:href="../funman.translate.html#funman.translate.simplifier.SympyToPysmt" xlink:title="SympyToPysmt" target="_top">
<polygon fill="white" stroke="black" stroke-width="0.5" points="190.5,-184 98.5,-184 98.5,-165 190.5,-165 190.5,-184"/>
<text text-anchor="middle" x="144.5" y="-172" font-family="Vera Sans, DejaVu Sans, Liberation Sans, Arial, Helvetica, sans" font-size="10.00">SympyToPysmt</text>
</a>
</g>
</g>
</g>
</svg>
