<?xml version="1.0" encoding="UTF-8" standalone="no"?>
<!DOCTYPE svg PUBLIC "-//W3C//DTD SVG 1.1//EN"
 "http://www.w3.org/Graphics/SVG/1.1/DTD/svg11.dtd">
<!-- Generated by graphviz version 2.43.0 (0)
 -->
<!-- Title: inheritance3340c1ffed Pages: 1 -->
<svg width="200pt" height="137pt"
 viewBox="0.00 0.00 200.00 137.00" xmlns="http://www.w3.org/2000/svg" xmlns:xlink="http://www.w3.org/1999/xlink">
<g id="graph0" class="graph" transform="scale(1 1) rotate(0) translate(4 133)">
<title>inheritance3340c1ffed</title>
<!-- ABC -->
<g id="node1" class="node">
<title>ABC</title>
<g id="a_node1"><a xlink:title="Helper class that provides a standard way to create an ABC using">
<polygon fill="white" stroke="black" stroke-width="0.5" points="73,-129 19,-129 19,-110 73,-110 73,-129"/>
<text text-anchor="middle" x="46" y="-117" font-family="Vera Sans, DejaVu Sans, Liberation Sans, Arial, Helvetica, sans" font-size="10.00">ABC</text>
</a>
</g>
</g>
<!-- Encoder -->
<g id="node4" class="node">
<title>Encoder</title>
<g id="a_node4"><a xlink:href="../funman.translate.html#funman.translate.translate.Encoder" xlink:title="An Encoder translates a Model into an SMTLib formula." target="_top">
<polygon fill="white" stroke="black" stroke-width="0.5" points="74,-74 18,-74 18,-55 74,-55 74,-74"/>
<text text-anchor="middle" x="46" y="-62" font-family="Vera Sans, DejaVu Sans, Liberation Sans, Arial, Helvetica, sans" font-size="10.00">Encoder</text>
</a>
</g>
</g>
<!-- ABC&#45;&gt;Encoder -->
<g id="edge2" class="edge">
<title>ABC&#45;&gt;Encoder</title>
<path fill="none" stroke="#6ab0de" stroke-width="3" d="M46,-109.75C46,-101.41 46,-88.74 46,-79.09"/>
<polygon fill="#6ab0de" stroke="#6ab0de" stroke-width="3" points="47.75,-79.09 46,-74.09 44.25,-79.09 47.75,-79.09"/>
</g>
<!-- BaseModel -->
<g id="node2" class="node">
<title>BaseModel</title>
<g id="a_node2"><a xlink:title="Usage docs: https://docs.pydantic.dev/2.9/concepts/models/">
<polygon fill="white" stroke="black" stroke-width="0.5" points="169.5,-129 98.5,-129 98.5,-110 169.5,-110 169.5,-129"/>
<text text-anchor="middle" x="134" y="-117" font-family="Vera Sans, DejaVu Sans, Liberation Sans, Arial, Helvetica, sans" font-size="10.00">BaseModel</text>
</a>
</g>
</g>
<!-- BaseModel&#45;&gt;Encoder -->
<g id="edge3" class="edge">
<title>BaseModel&#45;&gt;Encoder</title>
<path fill="none" stroke="#6ab0de" stroke-width="3" d="M119.86,-109.98C104.94,-101 81.34,-86.79 64.85,-76.85"/>
<polygon fill="#6ab0de" stroke="#6ab0de" stroke-width="3" points="65.58,-75.25 60.4,-74.17 63.78,-78.25 65.58,-75.25"/>
</g>
<!-- LayeredEncoding -->
<g id="node5" class="node">
<title>LayeredEncoding</title>
<g id="a_node5"><a xlink:href="../funman.translate.html#funman.translate.translate.LayeredEncoding" xlink:title="An encoding comprises a formula over a set of symbols." target="_top">
<polygon fill="white" stroke="black" stroke-width="0.5" points="192,-74 92,-74 92,-55 192,-55 192,-74"/>
<text text-anchor="middle" x="142" y="-62" font-family="Vera Sans, DejaVu Sans, Liberation Sans, Arial, Helvetica, sans" font-size="10.00">LayeredEncoding</text>
</a>
</g>
</g>
<!-- BaseModel&#45;&gt;LayeredEncoding -->
<g id="edge4" class="edge">
<title>BaseModel&#45;&gt;LayeredEncoding</title>
<path fill="none" stroke="#6ab0de" stroke-width="3" d="M135.32,-109.75C136.58,-101.41 138.49,-88.74 139.95,-79.09"/>
<polygon fill="#6ab0de" stroke="#6ab0de" stroke-width="3" points="141.69,-79.29 140.7,-74.09 138.23,-78.77 141.69,-79.29"/>
</g>
<!-- DefaultEncoder -->
<g id="node3" class="node">
<title>DefaultEncoder</title>
<g id="a_node3"><a xlink:href="../funman.translate.html#funman.translate.translate.DefaultEncoder" xlink:title="The DefaultEncoder will not actually encode a model as SMT. &#160;It is used to provide an Encoder for SimulatorModel objects, but the encoder will not be used." target="_top">
<polygon fill="white" stroke="black" stroke-width="0.5" points="92,-19 0,-19 0,0 92,0 92,-19"/>
<text text-anchor="middle" x="46" y="-7" font-family="Vera Sans, DejaVu Sans, Liberation Sans, Arial, Helvetica, sans" font-size="10.00">DefaultEncoder</text>
</a>
</g>
</g>
<!-- Encoder&#45;&gt;DefaultEncoder -->
<g id="edge1" class="edge">
<title>Encoder&#45;&gt;DefaultEncoder</title>
<path fill="none" stroke="#6ab0de" stroke-width="3" d="M46,-54.75C46,-46.41 46,-33.74 46,-24.09"/>
<polygon fill="#6ab0de" stroke="#6ab0de" stroke-width="3" points="47.75,-24.09 46,-19.09 44.25,-24.09 47.75,-24.09"/>
</g>
</g>
</svg>
