<?xml version="1.0" encoding="UTF-8" standalone="no"?>
<!DOCTYPE svg PUBLIC "-//W3C//DTD SVG 1.1//EN"
 "http://www.w3.org/Graphics/SVG/1.1/DTD/svg11.dtd">
<!-- Generated by graphviz version 2.43.0 (0)
 -->
<!-- Title: inheritance6a68ecd10a Pages: 1 -->
<svg width="306pt" height="192pt"
 viewBox="0.00 0.00 305.50 192.00" xmlns="http://www.w3.org/2000/svg" xmlns:xlink="http://www.w3.org/1999/xlink">
<g id="graph0" class="graph" transform="scale(1 1) rotate(0) translate(4 188)">
<title>inheritance6a68ecd10a</title>
<!-- ABC -->
<g id="node1" class="node">
<title>ABC</title>
<g id="a_node1"><a xlink:title="Helper class that provides a standard way to create an ABC using">
<polygon fill="white" stroke="black" stroke-width="0.5" points="159.5,-184 105.5,-184 105.5,-165 159.5,-165 159.5,-184"/>
<text text-anchor="middle" x="132.5" y="-172" font-family="Vera Sans, DejaVu Sans, Liberation Sans, Arial, Helvetica, sans" font-size="10.00">ABC</text>
</a>
</g>
</g>
<!-- FunmanModel -->
<g id="node3" class="node">
<title>FunmanModel</title>
<g id="a_node3"><a xlink:href="../funman.model.html#funman.model.model.FunmanModel" xlink:title="The abstract base class for Models." target="_top">
<polygon fill="white" stroke="black" stroke-width="0.5" points="175.5,-129 89.5,-129 89.5,-110 175.5,-110 175.5,-129"/>
<text text-anchor="middle" x="132.5" y="-117" font-family="Vera Sans, DejaVu Sans, Liberation Sans, Arial, Helvetica, sans" font-size="10.00">FunmanModel</text>
</a>
</g>
</g>
<!-- ABC&#45;&gt;FunmanModel -->
<g id="edge2" class="edge">
<title>ABC&#45;&gt;FunmanModel</title>
<path fill="none" stroke="#6ab0de" stroke-width="3" d="M132.5,-164.75C132.5,-156.41 132.5,-143.74 132.5,-134.09"/>
<polygon fill="#6ab0de" stroke="#6ab0de" stroke-width="3" points="134.25,-134.09 132.5,-129.09 130.75,-134.09 134.25,-134.09"/>
</g>
<!-- AbstractPetriNetModel -->
<g id="node2" class="node">
<title>AbstractPetriNetModel</title>
<g id="a_node2"><a xlink:href="../funman.model.html#funman.model.petrinet.AbstractPetriNetModel" xlink:title="AbstractPetriNetModel" target="_top">
<polygon fill="white" stroke="black" stroke-width="0.5" points="196,-74 69,-74 69,-55 196,-55 196,-74"/>
<text text-anchor="middle" x="132.5" y="-62" font-family="Vera Sans, DejaVu Sans, Liberation Sans, Arial, Helvetica, sans" font-size="10.00">AbstractPetriNetModel</text>
</a>
</g>
</g>
<!-- GeneratedPetriNetModel -->
<g id="node5" class="node">
<title>GeneratedPetriNetModel</title>
<g id="a_node5"><a xlink:href="../funman.model.html#funman.model.petrinet.GeneratedPetriNetModel" xlink:title="GeneratedPetriNetModel" target="_top">
<polygon fill="white" stroke="black" stroke-width="0.5" points="137,-19 0,-19 0,0 137,0 137,-19"/>
<text text-anchor="middle" x="68.5" y="-7" font-family="Vera Sans, DejaVu Sans, Liberation Sans, Arial, Helvetica, sans" font-size="10.00">GeneratedPetriNetModel</text>
</a>
</g>
</g>
<!-- AbstractPetriNetModel&#45;&gt;GeneratedPetriNetModel -->
<g id="edge4" class="edge">
<title>AbstractPetriNetModel&#45;&gt;GeneratedPetriNetModel</title>
<path fill="none" stroke="#6ab0de" stroke-width="3" d="M122.22,-54.98C111.55,-46.15 94.79,-32.27 82.83,-22.36"/>
<polygon fill="#6ab0de" stroke="#6ab0de" stroke-width="3" points="83.94,-21.01 78.97,-19.17 81.7,-23.71 83.94,-21.01"/>
</g>
<!-- PetrinetModel -->
<g id="node7" class="node">
<title>PetrinetModel</title>
<g id="a_node7"><a xlink:href="../funman.model.html#funman.model.petrinet.PetrinetModel" xlink:title="PetrinetModel" target="_top">
<polygon fill="white" stroke="black" stroke-width="0.5" points="240,-19 155,-19 155,0 240,0 240,-19"/>
<text text-anchor="middle" x="197.5" y="-7" font-family="Vera Sans, DejaVu Sans, Liberation Sans, Arial, Helvetica, sans" font-size="10.00">PetrinetModel</text>
</a>
</g>
</g>
<!-- AbstractPetriNetModel&#45;&gt;PetrinetModel -->
<g id="edge6" class="edge">
<title>AbstractPetriNetModel&#45;&gt;PetrinetModel</title>
<path fill="none" stroke="#6ab0de" stroke-width="3" d="M142.94,-54.98C153.78,-46.15 170.8,-32.27 182.95,-22.36"/>
<polygon fill="#6ab0de" stroke="#6ab0de" stroke-width="3" points="184.1,-23.69 186.87,-19.17 181.89,-20.97 184.1,-23.69"/>
</g>
<!-- FunmanModel&#45;&gt;AbstractPetriNetModel -->
<g id="edge1" class="edge">
<title>FunmanModel&#45;&gt;AbstractPetriNetModel</title>
<path fill="none" stroke="#6ab0de" stroke-width="3" d="M132.5,-109.75C132.5,-101.41 132.5,-88.74 132.5,-79.09"/>
<polygon fill="#6ab0de" stroke="#6ab0de" stroke-width="3" points="134.25,-79.09 132.5,-74.09 130.75,-79.09 134.25,-79.09"/>
</g>
<!-- BaseModel -->
<g id="node4" class="node">
<title>BaseModel</title>
<g id="a_node4"><a xlink:title="Usage docs: https://docs.pydantic.dev/2.9/concepts/models/">
<polygon fill="white" stroke="black" stroke-width="0.5" points="265,-184 194,-184 194,-165 265,-165 265,-184"/>
<text text-anchor="middle" x="229.5" y="-172" font-family="Vera Sans, DejaVu Sans, Liberation Sans, Arial, Helvetica, sans" font-size="10.00">BaseModel</text>
</a>
</g>
</g>
<!-- BaseModel&#45;&gt;FunmanModel -->
<g id="edge3" class="edge">
<title>BaseModel&#45;&gt;FunmanModel</title>
<path fill="none" stroke="#6ab0de" stroke-width="3" d="M213.92,-164.98C197.33,-155.92 171.01,-141.54 152.81,-131.6"/>
<polygon fill="#6ab0de" stroke="#6ab0de" stroke-width="3" points="153.6,-130.03 148.37,-129.17 151.92,-133.1 153.6,-130.03"/>
</g>
<!-- PetrinetDynamics -->
<g id="node6" class="node">
<title>PetrinetDynamics</title>
<g id="a_node6"><a xlink:href="../funman.model.html#funman.model.petrinet.PetrinetDynamics" xlink:title="PetrinetDynamics" target="_top">
<polygon fill="white" stroke="black" stroke-width="0.5" points="297.5,-129 193.5,-129 193.5,-110 297.5,-110 297.5,-129"/>
<text text-anchor="middle" x="245.5" y="-117" font-family="Vera Sans, DejaVu Sans, Liberation Sans, Arial, Helvetica, sans" font-size="10.00">PetrinetDynamics</text>
</a>
</g>
</g>
<!-- BaseModel&#45;&gt;PetrinetDynamics -->
<g id="edge5" class="edge">
<title>BaseModel&#45;&gt;PetrinetDynamics</title>
<path fill="none" stroke="#6ab0de" stroke-width="3" d="M232.14,-164.75C234.66,-156.41 238.48,-143.74 241.4,-134.09"/>
<polygon fill="#6ab0de" stroke="#6ab0de" stroke-width="3" points="243.14,-134.38 242.91,-129.09 239.79,-133.37 243.14,-134.38"/>
</g>
</g>
</svg>
