<?xml version="1.0" encoding="UTF-8" standalone="no"?>
<!DOCTYPE svg PUBLIC "-//W3C//DTD SVG 1.1//EN"
 "http://www.w3.org/Graphics/SVG/1.1/DTD/svg11.dtd">
<!-- Generated by graphviz version 2.43.0 (0)
 -->
<!-- Title: inheritancecf33b37bfa Pages: 1 -->
<svg width="289pt" height="247pt"
 viewBox="0.00 0.00 289.00 247.00" xmlns="http://www.w3.org/2000/svg" xmlns:xlink="http://www.w3.org/1999/xlink">
<g id="graph0" class="graph" transform="scale(1 1) rotate(0) translate(4 243)">
<title>inheritancecf33b37bfa</title>
<!-- BaseModel -->
<g id="node1" class="node">
<title>BaseModel</title>
<g id="a_node1"><a xlink:title="Usage docs: https://docs.pydantic.dev/2.4/concepts/models/">
<polygon fill="white" stroke="black" stroke-width="0.5" points="145,-239 74,-239 74,-220 145,-220 145,-239"/>
<text text-anchor="middle" x="109.5" y="-227" font-family="Vera Sans, DejaVu Sans, Liberation Sans, Arial, Helvetica, sans" font-size="10.00">BaseModel</text>
</a>
</g>
</g>
<!-- Parameter -->
<g id="node3" class="node">
<title>Parameter</title>
<g id="a_node3"><a xlink:href="../funman.representation.html#funman.representation.parameter.Parameter" xlink:title="Parameter" target="_top">
<polygon fill="white" stroke="black" stroke-width="0.5" points="143,-184 76,-184 76,-165 143,-165 143,-184"/>
<text text-anchor="middle" x="109.5" y="-172" font-family="Vera Sans, DejaVu Sans, Liberation Sans, Arial, Helvetica, sans" font-size="10.00">Parameter</text>
</a>
</g>
</g>
<!-- BaseModel&#45;&gt;Parameter -->
<g id="edge4" class="edge">
<title>BaseModel&#45;&gt;Parameter</title>
<path fill="none" stroke="#6ab0de" stroke-width="3" d="M109.5,-219.75C109.5,-211.41 109.5,-198.74 109.5,-189.09"/>
<polygon fill="#6ab0de" stroke="#6ab0de" stroke-width="3" points="111.25,-189.09 109.5,-184.09 107.75,-189.09 111.25,-189.09"/>
</g>
<!-- LabeledParameter -->
<g id="node2" class="node">
<title>LabeledParameter</title>
<g id="a_node2"><a xlink:href="../funman.representation.html#funman.representation.parameter.LabeledParameter" xlink:title="LabeledParameter" target="_top">
<polygon fill="white" stroke="black" stroke-width="0.5" points="162,-129 57,-129 57,-110 162,-110 162,-129"/>
<text text-anchor="middle" x="109.5" y="-117" font-family="Vera Sans, DejaVu Sans, Liberation Sans, Arial, Helvetica, sans" font-size="10.00">LabeledParameter</text>
</a>
</g>
</g>
<!-- ModelParameter -->
<g id="node4" class="node">
<title>ModelParameter</title>
<g id="a_node4"><a xlink:href="../funman.representation.html#funman.representation.parameter.ModelParameter" xlink:title="A parameter is a free variable for a Model. &#160;It has the following attributes:" target="_top">
<polygon fill="white" stroke="black" stroke-width="0.5" points="97,-74 0,-74 0,-55 97,-55 97,-74"/>
<text text-anchor="middle" x="48.5" y="-62" font-family="Vera Sans, DejaVu Sans, Liberation Sans, Arial, Helvetica, sans" font-size="10.00">ModelParameter</text>
</a>
</g>
</g>
<!-- LabeledParameter&#45;&gt;ModelParameter -->
<g id="edge2" class="edge">
<title>LabeledParameter&#45;&gt;ModelParameter</title>
<path fill="none" stroke="#6ab0de" stroke-width="3" d="M99.7,-109.98C89.62,-101.23 73.83,-87.51 62.45,-77.62"/>
<polygon fill="#6ab0de" stroke="#6ab0de" stroke-width="3" points="63.4,-76.13 58.48,-74.17 61.11,-78.77 63.4,-76.13"/>
</g>
<!-- StructureParameter -->
<g id="node6" class="node">
<title>StructureParameter</title>
<g id="a_node6"><a xlink:href="../funman.representation.html#funman.representation.parameter.StructureParameter" xlink:title="StructureParameter" target="_top">
<polygon fill="white" stroke="black" stroke-width="0.5" points="226,-74 115,-74 115,-55 226,-55 226,-74"/>
<text text-anchor="middle" x="170.5" y="-62" font-family="Vera Sans, DejaVu Sans, Liberation Sans, Arial, Helvetica, sans" font-size="10.00">StructureParameter</text>
</a>
</g>
</g>
<!-- LabeledParameter&#45;&gt;StructureParameter -->
<g id="edge7" class="edge">
<title>LabeledParameter&#45;&gt;StructureParameter</title>
<path fill="none" stroke="#6ab0de" stroke-width="3" d="M119.3,-109.98C129.38,-101.23 145.17,-87.51 156.55,-77.62"/>
<polygon fill="#6ab0de" stroke="#6ab0de" stroke-width="3" points="157.89,-78.77 160.52,-74.17 155.6,-76.13 157.89,-78.77"/>
</g>
<!-- Parameter&#45;&gt;LabeledParameter -->
<g id="edge1" class="edge">
<title>Parameter&#45;&gt;LabeledParameter</title>
<path fill="none" stroke="#6ab0de" stroke-width="3" d="M109.5,-164.75C109.5,-156.41 109.5,-143.74 109.5,-134.09"/>
<polygon fill="#6ab0de" stroke="#6ab0de" stroke-width="3" points="111.25,-134.09 109.5,-129.09 107.75,-134.09 111.25,-134.09"/>
</g>
<!-- NumSteps -->
<g id="node5" class="node">
<title>NumSteps</title>
<g id="a_node5"><a xlink:href="../funman.representation.html#funman.representation.parameter.NumSteps" xlink:title="NumSteps" target="_top">
<polygon fill="white" stroke="black" stroke-width="0.5" points="119,-19 52,-19 52,0 119,0 119,-19"/>
<text text-anchor="middle" x="85.5" y="-7" font-family="Vera Sans, DejaVu Sans, Liberation Sans, Arial, Helvetica, sans" font-size="10.00">NumSteps</text>
</a>
</g>
</g>
<!-- StructureParameter&#45;&gt;NumSteps -->
<g id="edge3" class="edge">
<title>StructureParameter&#45;&gt;NumSteps</title>
<path fill="none" stroke="#6ab0de" stroke-width="3" d="M156.84,-54.98C142.43,-46 119.64,-31.79 103.7,-21.85"/>
<polygon fill="#6ab0de" stroke="#6ab0de" stroke-width="3" points="104.57,-20.33 99.41,-19.17 102.72,-23.3 104.57,-20.33"/>
</g>
<!-- Schedules -->
<g id="node7" class="node">
<title>Schedules</title>
<g id="a_node7"><a xlink:href="../funman.representation.html#funman.representation.parameter.Schedules" xlink:title="Schedules" target="_top">
<polygon fill="white" stroke="black" stroke-width="0.5" points="203.5,-19 137.5,-19 137.5,0 203.5,0 203.5,-19"/>
<text text-anchor="middle" x="170.5" y="-7" font-family="Vera Sans, DejaVu Sans, Liberation Sans, Arial, Helvetica, sans" font-size="10.00">Schedules</text>
</a>
</g>
</g>
<!-- StructureParameter&#45;&gt;Schedules -->
<g id="edge5" class="edge">
<title>StructureParameter&#45;&gt;Schedules</title>
<path fill="none" stroke="#6ab0de" stroke-width="3" d="M170.5,-54.75C170.5,-46.41 170.5,-33.74 170.5,-24.09"/>
<polygon fill="#6ab0de" stroke="#6ab0de" stroke-width="3" points="172.25,-24.09 170.5,-19.09 168.75,-24.09 172.25,-24.09"/>
</g>
<!-- StepSize -->
<g id="node8" class="node">
<title>StepSize</title>
<g id="a_node8"><a xlink:href="../funman.representation.html#funman.representation.parameter.StepSize" xlink:title="StepSize" target="_top">
<polygon fill="white" stroke="black" stroke-width="0.5" points="281,-19 222,-19 222,0 281,0 281,-19"/>
<text text-anchor="middle" x="251.5" y="-7" font-family="Vera Sans, DejaVu Sans, Liberation Sans, Arial, Helvetica, sans" font-size="10.00">StepSize</text>
</a>
</g>
</g>
<!-- StructureParameter&#45;&gt;StepSize -->
<g id="edge6" class="edge">
<title>StructureParameter&#45;&gt;StepSize</title>
<path fill="none" stroke="#6ab0de" stroke-width="3" d="M183.51,-54.98C197.13,-46.07 218.6,-32.03 233.76,-22.11"/>
<polygon fill="#6ab0de" stroke="#6ab0de" stroke-width="3" points="235.02,-23.37 238.25,-19.17 233.11,-20.44 235.02,-23.37"/>
</g>
</g>
</svg>
