<?xml version="1.0" encoding="UTF-8" standalone="no"?>
<!DOCTYPE svg PUBLIC "-//W3C//DTD SVG 1.1//EN"
 "http://www.w3.org/Graphics/SVG/1.1/DTD/svg11.dtd">
<!-- Generated by graphviz version 2.43.0 (0)
 -->
<!-- Title: inheritance02552982d8 Pages: 1 -->
<svg width="610pt" height="192pt"
 viewBox="0.00 0.00 610.00 192.00" xmlns="http://www.w3.org/2000/svg" xmlns:xlink="http://www.w3.org/1999/xlink">
<g id="graph0" class="graph" transform="scale(1 1) rotate(0) translate(4 188)">
<title>inheritance02552982d8</title>
<!-- BaseModel -->
<g id="node1" class="node">
<title>BaseModel</title>
<g id="a_node1"><a xlink:title="Usage docs: https://docs.pydantic.dev/2.9/concepts/models/">
<polygon fill="white" stroke="black" stroke-width="0.5" points="377,-184 306,-184 306,-165 377,-165 377,-184"/>
<text text-anchor="middle" x="341.5" y="-172" font-family="Vera Sans, DejaVu Sans, Liberation Sans, Arial, Helvetica, sans" font-size="10.00">BaseModel</text>
</a>
</g>
</g>
<!-- Constraint -->
<g id="node2" class="node">
<title>Constraint</title>
<g id="a_node2"><a xlink:href="../funman.representation.html#funman.representation.constraint.Constraint" xlink:title="Constraint" target="_top">
<polygon fill="white" stroke="black" stroke-width="0.5" points="375,-129 308,-129 308,-110 375,-110 375,-129"/>
<text text-anchor="middle" x="341.5" y="-117" font-family="Vera Sans, DejaVu Sans, Liberation Sans, Arial, Helvetica, sans" font-size="10.00">Constraint</text>
</a>
</g>
</g>
<!-- BaseModel&#45;&gt;Constraint -->
<g id="edge1" class="edge">
<title>BaseModel&#45;&gt;Constraint</title>
<path fill="none" stroke="#6ab0de" stroke-width="3" d="M341.5,-164.75C341.5,-156.41 341.5,-143.74 341.5,-134.09"/>
<polygon fill="#6ab0de" stroke="#6ab0de" stroke-width="3" points="343.25,-134.09 341.5,-129.09 339.75,-134.09 343.25,-134.09"/>
</g>
<!-- TimedConstraint -->
<g id="node4" class="node">
<title>TimedConstraint</title>
<g id="a_node4"><a xlink:href="../funman.representation.html#funman.representation.constraint.TimedConstraint" xlink:title="TimedConstraint" target="_top">
<polygon fill="white" stroke="black" stroke-width="0.5" points="212.5,-74 114.5,-74 114.5,-55 212.5,-55 212.5,-74"/>
<text text-anchor="middle" x="163.5" y="-62" font-family="Vera Sans, DejaVu Sans, Liberation Sans, Arial, Helvetica, sans" font-size="10.00">TimedConstraint</text>
</a>
</g>
</g>
<!-- Constraint&#45;&gt;TimedConstraint -->
<g id="edge7" class="edge">
<title>Constraint&#45;&gt;TimedConstraint</title>
<path fill="none" stroke="#6ab0de" stroke-width="3" d="M312.9,-109.98C281.34,-100.59 230.58,-85.47 197.13,-75.51"/>
<polygon fill="#6ab0de" stroke="#6ab0de" stroke-width="3" points="197.61,-73.83 192.32,-74.08 196.62,-77.19 197.61,-73.83"/>
</g>
<!-- ModelConstraint -->
<g id="node5" class="node">
<title>ModelConstraint</title>
<g id="a_node5"><a xlink:href="../funman.representation.html#funman.representation.constraint.ModelConstraint" xlink:title="ModelConstraint" target="_top">
<polygon fill="white" stroke="black" stroke-width="0.5" points="328,-74 231,-74 231,-55 328,-55 328,-74"/>
<text text-anchor="middle" x="279.5" y="-62" font-family="Vera Sans, DejaVu Sans, Liberation Sans, Arial, Helvetica, sans" font-size="10.00">ModelConstraint</text>
</a>
</g>
</g>
<!-- Constraint&#45;&gt;ModelConstraint -->
<g id="edge3" class="edge">
<title>Constraint&#45;&gt;ModelConstraint</title>
<path fill="none" stroke="#6ab0de" stroke-width="3" d="M331.54,-109.98C321.3,-101.23 305.25,-87.51 293.68,-77.62"/>
<polygon fill="#6ab0de" stroke="#6ab0de" stroke-width="3" points="294.58,-76.09 289.64,-74.17 292.31,-78.75 294.58,-76.09"/>
</g>
<!-- ParameterConstraint -->
<g id="node6" class="node">
<title>ParameterConstraint</title>
<g id="a_node6"><a xlink:href="../funman.representation.html#funman.representation.constraint.ParameterConstraint" xlink:title="ParameterConstraint" target="_top">
<polygon fill="white" stroke="black" stroke-width="0.5" points="463,-74 346,-74 346,-55 463,-55 463,-74"/>
<text text-anchor="middle" x="404.5" y="-62" font-family="Vera Sans, DejaVu Sans, Liberation Sans, Arial, Helvetica, sans" font-size="10.00">ParameterConstraint</text>
</a>
</g>
</g>
<!-- Constraint&#45;&gt;ParameterConstraint -->
<g id="edge4" class="edge">
<title>Constraint&#45;&gt;ParameterConstraint</title>
<path fill="none" stroke="#6ab0de" stroke-width="3" d="M351.62,-109.98C362.03,-101.23 378.34,-87.51 390.09,-77.62"/>
<polygon fill="#6ab0de" stroke="#6ab0de" stroke-width="3" points="391.49,-78.73 394.19,-74.17 389.24,-76.05 391.49,-78.73"/>
</g>
<!-- TimeseriesConstraint -->
<g id="node9" class="node">
<title>TimeseriesConstraint</title>
<g id="a_node9"><a xlink:href="../funman.representation.html#funman.representation.constraint.TimeseriesConstraint" xlink:title="TimeseriesConstraint" target="_top">
<polygon fill="white" stroke="black" stroke-width="0.5" points="602,-74 481,-74 481,-55 602,-55 602,-74"/>
<text text-anchor="middle" x="541.5" y="-62" font-family="Vera Sans, DejaVu Sans, Liberation Sans, Arial, Helvetica, sans" font-size="10.00">TimeseriesConstraint</text>
</a>
</g>
</g>
<!-- Constraint&#45;&gt;TimeseriesConstraint -->
<g id="edge8" class="edge">
<title>Constraint&#45;&gt;TimeseriesConstraint</title>
<path fill="none" stroke="#6ab0de" stroke-width="3" d="M373.63,-109.98C409.25,-100.55 466.6,-85.35 504.18,-75.39"/>
<polygon fill="#6ab0de" stroke="#6ab0de" stroke-width="3" points="504.73,-77.05 509.11,-74.08 503.83,-73.67 504.73,-77.05"/>
</g>
<!-- LinearConstraint -->
<g id="node3" class="node">
<title>LinearConstraint</title>
<g id="a_node3"><a xlink:href="../funman.representation.html#funman.representation.constraint.LinearConstraint" xlink:title="LinearConstraint" target="_top">
<polygon fill="white" stroke="black" stroke-width="0.5" points="97,-19 0,-19 0,0 97,0 97,-19"/>
<text text-anchor="middle" x="48.5" y="-7" font-family="Vera Sans, DejaVu Sans, Liberation Sans, Arial, Helvetica, sans" font-size="10.00">LinearConstraint</text>
</a>
</g>
</g>
<!-- TimedConstraint&#45;&gt;LinearConstraint -->
<g id="edge2" class="edge">
<title>TimedConstraint&#45;&gt;LinearConstraint</title>
<path fill="none" stroke="#6ab0de" stroke-width="3" d="M145.02,-54.98C125.19,-45.84 93.63,-31.3 72.03,-21.35"/>
<polygon fill="#6ab0de" stroke="#6ab0de" stroke-width="3" points="72.59,-19.67 67.31,-19.17 71.12,-22.85 72.59,-19.67"/>
</g>
<!-- QueryConstraint -->
<g id="node7" class="node">
<title>QueryConstraint</title>
<g id="a_node7"><a xlink:href="../funman.representation.html#funman.representation.constraint.QueryConstraint" xlink:title="QueryConstraint" target="_top">
<polygon fill="white" stroke="black" stroke-width="0.5" points="211.5,-19 115.5,-19 115.5,0 211.5,0 211.5,-19"/>
<text text-anchor="middle" x="163.5" y="-7" font-family="Vera Sans, DejaVu Sans, Liberation Sans, Arial, Helvetica, sans" font-size="10.00">QueryConstraint</text>
</a>
</g>
</g>
<!-- TimedConstraint&#45;&gt;QueryConstraint -->
<g id="edge5" class="edge">
<title>TimedConstraint&#45;&gt;QueryConstraint</title>
<path fill="none" stroke="#6ab0de" stroke-width="3" d="M163.5,-54.75C163.5,-46.41 163.5,-33.74 163.5,-24.09"/>
<polygon fill="#6ab0de" stroke="#6ab0de" stroke-width="3" points="165.25,-24.09 163.5,-19.09 161.75,-24.09 165.25,-24.09"/>
</g>
<!-- StateVariableConstraint -->
<g id="node8" class="node">
<title>StateVariableConstraint</title>
<g id="a_node8"><a xlink:href="../funman.representation.html#funman.representation.constraint.StateVariableConstraint" xlink:title="StateVariableConstraint" target="_top">
<polygon fill="white" stroke="black" stroke-width="0.5" points="361.5,-19 229.5,-19 229.5,0 361.5,0 361.5,-19"/>
<text text-anchor="middle" x="295.5" y="-7" font-family="Vera Sans, DejaVu Sans, Liberation Sans, Arial, Helvetica, sans" font-size="10.00">StateVariableConstraint</text>
</a>
</g>
</g>
<!-- TimedConstraint&#45;&gt;StateVariableConstraint -->
<g id="edge6" class="edge">
<title>TimedConstraint&#45;&gt;StateVariableConstraint</title>
<path fill="none" stroke="#6ab0de" stroke-width="3" d="M184.71,-54.98C207.66,-45.77 244.31,-31.05 269.11,-21.1"/>
<polygon fill="#6ab0de" stroke="#6ab0de" stroke-width="3" points="269.92,-22.66 273.91,-19.17 268.61,-19.41 269.92,-22.66"/>
</g>
</g>
</svg>
