<?xml version="1.0" encoding="UTF-8" standalone="no"?>
<!DOCTYPE svg PUBLIC "-//W3C//DTD SVG 1.1//EN"
 "http://www.w3.org/Graphics/SVG/1.1/DTD/svg11.dtd">
<!-- Generated by graphviz version 2.43.0 (0)
 -->
<!-- Title: inheritance88ed695793 Pages: 1 -->
<svg width="282pt" height="137pt"
 viewBox="0.00 0.00 282.00 137.00" xmlns="http://www.w3.org/2000/svg" xmlns:xlink="http://www.w3.org/1999/xlink">
<g id="graph0" class="graph" transform="scale(1 1) rotate(0) translate(4 133)">
<title>inheritance88ed695793</title>
<!-- ABC -->
<g id="node1" class="node">
<title>ABC</title>
<g id="a_node1"><a xlink:title="Helper class that provides a standard way to create an ABC using">
<polygon fill="white" stroke="black" stroke-width="0.5" points="158.5,-129 104.5,-129 104.5,-110 158.5,-110 158.5,-129"/>
<text text-anchor="middle" x="131.5" y="-117" font-family="Vera Sans, DejaVu Sans, Liberation Sans, Arial, Helvetica, sans" font-size="10.00">ABC</text>
</a>
</g>
</g>
<!-- AnalysisScenario -->
<g id="node2" class="node">
<title>AnalysisScenario</title>
<g id="a_node2"><a xlink:href="../funman.scenario.html#funman.scenario.scenario.AnalysisScenario" xlink:title="Abstract class for Analysis Scenarios." target="_top">
<polygon fill="white" stroke="black" stroke-width="0.5" points="249.5,-74 149.5,-74 149.5,-55 249.5,-55 249.5,-74"/>
<text text-anchor="middle" x="199.5" y="-62" font-family="Vera Sans, DejaVu Sans, Liberation Sans, Arial, Helvetica, sans" font-size="10.00">AnalysisScenario</text>
</a>
</g>
</g>
<!-- ABC&#45;&gt;AnalysisScenario -->
<g id="edge1" class="edge">
<title>ABC&#45;&gt;AnalysisScenario</title>
<path fill="none" stroke="#6ab0de" stroke-width="3" d="M142.43,-109.98C153.76,-101.15 171.57,-87.27 184.28,-77.36"/>
<polygon fill="#6ab0de" stroke="#6ab0de" stroke-width="3" points="185.51,-78.62 188.38,-74.17 183.36,-75.86 185.51,-78.62"/>
</g>
<!-- AnalysisScenarioResult -->
<g id="node4" class="node">
<title>AnalysisScenarioResult</title>
<g id="a_node4"><a xlink:href="../funman.scenario.html#funman.scenario.scenario.AnalysisScenarioResult" xlink:title="Abstract class for AnalysisScenario result data." target="_top">
<polygon fill="white" stroke="black" stroke-width="0.5" points="131,-74 0,-74 0,-55 131,-55 131,-74"/>
<text text-anchor="middle" x="65.5" y="-62" font-family="Vera Sans, DejaVu Sans, Liberation Sans, Arial, Helvetica, sans" font-size="10.00">AnalysisScenarioResult</text>
</a>
</g>
</g>
<!-- ABC&#45;&gt;AnalysisScenarioResult -->
<g id="edge3" class="edge">
<title>ABC&#45;&gt;AnalysisScenarioResult</title>
<path fill="none" stroke="#6ab0de" stroke-width="3" d="M120.9,-109.98C109.9,-101.15 92.61,-87.27 80.27,-77.36"/>
<polygon fill="#6ab0de" stroke="#6ab0de" stroke-width="3" points="81.29,-75.94 76.3,-74.17 79.1,-78.67 81.29,-75.94"/>
</g>
<!-- BaseModel -->
<g id="node3" class="node">
<title>BaseModel</title>
<g id="a_node3"><a xlink:title="Usage docs: https://docs.pydantic.dev/2.9/concepts/models/">
<polygon fill="white" stroke="black" stroke-width="0.5" points="274,-129 203,-129 203,-110 274,-110 274,-129"/>
<text text-anchor="middle" x="238.5" y="-117" font-family="Vera Sans, DejaVu Sans, Liberation Sans, Arial, Helvetica, sans" font-size="10.00">BaseModel</text>
</a>
</g>
</g>
<!-- BaseModel&#45;&gt;AnalysisScenario -->
<g id="edge2" class="edge">
<title>BaseModel&#45;&gt;AnalysisScenario</title>
<path fill="none" stroke="#6ab0de" stroke-width="3" d="M232.06,-109.75C225.76,-101.18 216.08,-88.03 208.92,-78.3"/>
<polygon fill="#6ab0de" stroke="#6ab0de" stroke-width="3" points="210.19,-77.08 205.82,-74.09 207.37,-79.15 210.19,-77.08"/>
</g>
<!-- AnalysisScenarioResultException -->
<g id="node5" class="node">
<title>AnalysisScenarioResultException</title>
<g id="a_node5"><a xlink:href="../funman.scenario.html#funman.scenario.scenario.AnalysisScenarioResultException" xlink:title="AnalysisScenarioResultException" target="_top">
<polygon fill="white" stroke="black" stroke-width="0.5" points="261,-19 82,-19 82,0 261,0 261,-19"/>
<text text-anchor="middle" x="171.5" y="-7" font-family="Vera Sans, DejaVu Sans, Liberation Sans, Arial, Helvetica, sans" font-size="10.00">AnalysisScenarioResultException</text>
</a>
</g>
</g>
<!-- BaseModel&#45;&gt;AnalysisScenarioResultException -->
<g id="edge4" class="edge">
<title>BaseModel&#45;&gt;AnalysisScenarioResultException</title>
<path fill="none" stroke="#6ab0de" stroke-width="3" d="M245.61,-109.73C255.06,-96.93 269.36,-72.75 258.5,-55 248.22,-38.2 229.38,-27.49 211.85,-20.79"/>
<polygon fill="#6ab0de" stroke="#6ab0de" stroke-width="3" points="212.24,-19.07 206.94,-19.01 211.05,-22.36 212.24,-19.07"/>
</g>
<!-- AnalysisScenarioResult&#45;&gt;AnalysisScenarioResultException -->
<g id="edge5" class="edge">
<title>AnalysisScenarioResult&#45;&gt;AnalysisScenarioResultException</title>
<path fill="none" stroke="#6ab0de" stroke-width="3" d="M82.53,-54.98C100.74,-45.88 129.66,-31.42 149.56,-21.47"/>
<polygon fill="#6ab0de" stroke="#6ab0de" stroke-width="3" points="150.47,-22.97 154.16,-19.17 148.9,-19.84 150.47,-22.97"/>
</g>
</g>
</svg>
