<?xml version="1.0" encoding="UTF-8" standalone="no"?>
<!DOCTYPE svg PUBLIC "-//W3C//DTD SVG 1.1//EN"
 "http://www.w3.org/Graphics/SVG/1.1/DTD/svg11.dtd">
<!-- Generated by graphviz version 2.43.0 (0)
 -->
<!-- Title: inheritancea8d9b48412 Pages: 1 -->
<svg width="231pt" height="137pt"
 viewBox="0.00 0.00 230.50 137.00" xmlns="http://www.w3.org/2000/svg" xmlns:xlink="http://www.w3.org/1999/xlink">
<g id="graph0" class="graph" transform="scale(1 1) rotate(0) translate(4 133)">
<title>inheritancea8d9b48412</title>
<!-- ABC -->
<g id="node1" class="node">
<title>ABC</title>
<g id="a_node1"><a xlink:title="Helper class that provides a standard way to create an ABC using">
<polygon fill="white" stroke="black" stroke-width="0.5" points="74.5,-129 20.5,-129 20.5,-110 74.5,-110 74.5,-129"/>
<text text-anchor="middle" x="47.5" y="-117" font-family="Vera Sans, DejaVu Sans, Liberation Sans, Arial, Helvetica, sans" font-size="10.00">ABC</text>
</a>
</g>
</g>
<!-- FunmanModel -->
<g id="node5" class="node">
<title>FunmanModel</title>
<g id="a_node5"><a xlink:href="../funman.model.html#funman.model.model.FunmanModel" xlink:title="The abstract base class for Models." target="_top">
<polygon fill="white" stroke="black" stroke-width="0.5" points="90.5,-74 4.5,-74 4.5,-55 90.5,-55 90.5,-74"/>
<text text-anchor="middle" x="47.5" y="-62" font-family="Vera Sans, DejaVu Sans, Liberation Sans, Arial, Helvetica, sans" font-size="10.00">FunmanModel</text>
</a>
</g>
</g>
<!-- ABC&#45;&gt;FunmanModel -->
<g id="edge3" class="edge">
<title>ABC&#45;&gt;FunmanModel</title>
<path fill="none" stroke="#6ab0de" stroke-width="3" d="M47.5,-109.75C47.5,-101.41 47.5,-88.74 47.5,-79.09"/>
<polygon fill="#6ab0de" stroke="#6ab0de" stroke-width="3" points="49.25,-79.09 47.5,-74.09 45.75,-79.09 49.25,-79.09"/>
</g>
<!-- BaseModel -->
<g id="node2" class="node">
<title>BaseModel</title>
<g id="a_node2"><a xlink:title="Usage docs: https://docs.pydantic.dev/2.9/concepts/models/">
<polygon fill="white" stroke="black" stroke-width="0.5" points="182,-129 111,-129 111,-110 182,-110 182,-129"/>
<text text-anchor="middle" x="146.5" y="-117" font-family="Vera Sans, DejaVu Sans, Liberation Sans, Arial, Helvetica, sans" font-size="10.00">BaseModel</text>
</a>
</g>
</g>
<!-- DecapodeDynamics -->
<g id="node3" class="node">
<title>DecapodeDynamics</title>
<g id="a_node3"><a xlink:href="../funman.model.html#funman.model.decapode.DecapodeDynamics" xlink:title="DecapodeDynamics" target="_top">
<polygon fill="white" stroke="black" stroke-width="0.5" points="222.5,-74 108.5,-74 108.5,-55 222.5,-55 222.5,-74"/>
<text text-anchor="middle" x="165.5" y="-62" font-family="Vera Sans, DejaVu Sans, Liberation Sans, Arial, Helvetica, sans" font-size="10.00">DecapodeDynamics</text>
</a>
</g>
</g>
<!-- BaseModel&#45;&gt;DecapodeDynamics -->
<g id="edge1" class="edge">
<title>BaseModel&#45;&gt;DecapodeDynamics</title>
<path fill="none" stroke="#6ab0de" stroke-width="3" d="M149.64,-109.75C152.65,-101.34 157.25,-88.51 160.72,-78.83"/>
<polygon fill="#6ab0de" stroke="#6ab0de" stroke-width="3" points="162.38,-79.39 162.42,-74.09 159.09,-78.21 162.38,-79.39"/>
</g>
<!-- BaseModel&#45;&gt;FunmanModel -->
<g id="edge4" class="edge">
<title>BaseModel&#45;&gt;FunmanModel</title>
<path fill="none" stroke="#6ab0de" stroke-width="3" d="M130.59,-109.98C113.66,-100.92 86.81,-86.54 68.23,-76.6"/>
<polygon fill="#6ab0de" stroke="#6ab0de" stroke-width="3" points="68.93,-74.99 63.7,-74.17 67.28,-78.07 68.93,-74.99"/>
</g>
<!-- DecapodeModel -->
<g id="node4" class="node">
<title>DecapodeModel</title>
<g id="a_node4"><a xlink:href="../funman.model.html#funman.model.decapode.DecapodeModel" xlink:title="DecapodeModel" target="_top">
<polygon fill="white" stroke="black" stroke-width="0.5" points="95,-19 0,-19 0,0 95,0 95,-19"/>
<text text-anchor="middle" x="47.5" y="-7" font-family="Vera Sans, DejaVu Sans, Liberation Sans, Arial, Helvetica, sans" font-size="10.00">DecapodeModel</text>
</a>
</g>
</g>
<!-- FunmanModel&#45;&gt;DecapodeModel -->
<g id="edge2" class="edge">
<title>FunmanModel&#45;&gt;DecapodeModel</title>
<path fill="none" stroke="#6ab0de" stroke-width="3" d="M47.5,-54.75C47.5,-46.41 47.5,-33.74 47.5,-24.09"/>
<polygon fill="#6ab0de" stroke="#6ab0de" stroke-width="3" points="49.25,-24.09 47.5,-19.09 45.75,-24.09 49.25,-24.09"/>
</g>
</g>
</svg>
