<?xml version="1.0" encoding="UTF-8" standalone="no"?>
<!DOCTYPE svg PUBLIC "-//W3C//DTD SVG 1.1//EN"
 "http://www.w3.org/Graphics/SVG/1.1/DTD/svg11.dtd">
<!-- Generated by graphviz version 2.43.0 (0)
 -->
<!-- Title: inheritance6219dd65fa Pages: 1 -->
<svg width="851pt" height="137pt"
 viewBox="0.00 0.00 850.50 137.00" xmlns="http://www.w3.org/2000/svg" xmlns:xlink="http://www.w3.org/1999/xlink">
<g id="graph0" class="graph" transform="scale(1 1) rotate(0) translate(4 133)">
<title>inheritance6219dd65fa</title>
<!-- ABC -->
<g id="node1" class="node">
<title>ABC</title>
<g id="a_node1"><a xlink:title="Helper class that provides a standard way to create an ABC using">
<polygon fill="white" stroke="black" stroke-width="0.5" points="276.5,-129 222.5,-129 222.5,-110 276.5,-110 276.5,-129"/>
<text text-anchor="middle" x="249.5" y="-117" font-family="Vera Sans, DejaVu Sans, Liberation Sans, Arial, Helvetica, sans" font-size="10.00">ABC</text>
</a>
</g>
</g>
<!-- BilayerGraph -->
<g id="node4" class="node">
<title>BilayerGraph</title>
<g id="a_node4"><a xlink:href="../funman.model.html#funman.model.bilayer.BilayerGraph" xlink:title="Abstract representation of a Bilayer graph." target="_top">
<polygon fill="white" stroke="black" stroke-width="0.5" points="317.5,-74 237.5,-74 237.5,-55 317.5,-55 317.5,-74"/>
<text text-anchor="middle" x="277.5" y="-62" font-family="Vera Sans, DejaVu Sans, Liberation Sans, Arial, Helvetica, sans" font-size="10.00">BilayerGraph</text>
</a>
</g>
</g>
<!-- ABC&#45;&gt;BilayerGraph -->
<g id="edge4" class="edge">
<title>ABC&#45;&gt;BilayerGraph</title>
<path fill="none" stroke="#6ab0de" stroke-width="3" d="M254.12,-109.75C258.61,-101.26 265.47,-88.27 270.6,-78.56"/>
<polygon fill="#6ab0de" stroke="#6ab0de" stroke-width="3" points="272.17,-79.33 272.96,-74.09 269.08,-77.69 272.17,-79.33"/>
</g>
<!-- FunmanModel -->
<g id="node11" class="node">
<title>FunmanModel</title>
<g id="a_node11"><a xlink:href="../funman.model.html#funman.model.model.FunmanModel" xlink:title="The abstract base class for Models." target="_top">
<polygon fill="white" stroke="black" stroke-width="0.5" points="219.5,-74 133.5,-74 133.5,-55 219.5,-55 219.5,-74"/>
<text text-anchor="middle" x="176.5" y="-62" font-family="Vera Sans, DejaVu Sans, Liberation Sans, Arial, Helvetica, sans" font-size="10.00">FunmanModel</text>
</a>
</g>
</g>
<!-- ABC&#45;&gt;FunmanModel -->
<g id="edge14" class="edge">
<title>ABC&#45;&gt;FunmanModel</title>
<path fill="none" stroke="#6ab0de" stroke-width="3" d="M237.77,-109.98C225.6,-101.15 206.49,-87.27 192.84,-77.36"/>
<polygon fill="#6ab0de" stroke="#6ab0de" stroke-width="3" points="193.52,-75.69 188.44,-74.17 191.46,-78.52 193.52,-75.69"/>
</g>
<!-- BaseModel -->
<g id="node2" class="node">
<title>BaseModel</title>
<g id="a_node2"><a xlink:title="Usage docs: https://docs.pydantic.dev/2.9/concepts/models/">
<polygon fill="white" stroke="black" stroke-width="0.5" points="411,-129 340,-129 340,-110 411,-110 411,-129"/>
<text text-anchor="middle" x="375.5" y="-117" font-family="Vera Sans, DejaVu Sans, Liberation Sans, Arial, Helvetica, sans" font-size="10.00">BaseModel</text>
</a>
</g>
</g>
<!-- BaseModel&#45;&gt;BilayerGraph -->
<g id="edge5" class="edge">
<title>BaseModel&#45;&gt;BilayerGraph</title>
<path fill="none" stroke="#6ab0de" stroke-width="3" d="M359.75,-109.98C343,-100.92 316.41,-86.54 298.02,-76.6"/>
<polygon fill="#6ab0de" stroke="#6ab0de" stroke-width="3" points="298.76,-75.01 293.53,-74.17 297.1,-78.09 298.76,-75.01"/>
</g>
<!-- BilayerEdge -->
<g id="node5" class="node">
<title>BilayerEdge</title>
<g id="a_node5"><a xlink:href="../funman.model.html#funman.model.bilayer.BilayerEdge" xlink:title="BilayerEdge" target="_top">
<polygon fill="white" stroke="black" stroke-width="0.5" points="452,-74 377,-74 377,-55 452,-55 452,-74"/>
<text text-anchor="middle" x="414.5" y="-62" font-family="Vera Sans, DejaVu Sans, Liberation Sans, Arial, Helvetica, sans" font-size="10.00">BilayerEdge</text>
</a>
</g>
</g>
<!-- BaseModel&#45;&gt;BilayerEdge -->
<g id="edge2" class="edge">
<title>BaseModel&#45;&gt;BilayerEdge</title>
<path fill="none" stroke="#6ab0de" stroke-width="3" d="M381.94,-109.75C388.24,-101.18 397.92,-88.03 405.08,-78.3"/>
<polygon fill="#6ab0de" stroke="#6ab0de" stroke-width="3" points="406.63,-79.15 408.18,-74.09 403.81,-77.08 406.63,-79.15"/>
</g>
<!-- BilayerNode -->
<g id="node7" class="node">
<title>BilayerNode</title>
<g id="a_node7"><a xlink:href="../funman.model.html#funman.model.bilayer.BilayerNode" xlink:title="Node in a BilayerGraph." target="_top">
<polygon fill="white" stroke="black" stroke-width="0.5" points="630,-74 553,-74 553,-55 630,-55 630,-74"/>
<text text-anchor="middle" x="591.5" y="-62" font-family="Vera Sans, DejaVu Sans, Liberation Sans, Arial, Helvetica, sans" font-size="10.00">BilayerNode</text>
</a>
</g>
</g>
<!-- BaseModel&#45;&gt;BilayerNode -->
<g id="edge11" class="edge">
<title>BaseModel&#45;&gt;BilayerNode</title>
<path fill="none" stroke="#6ab0de" stroke-width="3" d="M410.2,-109.98C448.67,-100.55 510.61,-85.35 551.19,-75.39"/>
<polygon fill="#6ab0de" stroke="#6ab0de" stroke-width="3" points="552.08,-76.97 556.52,-74.08 551.25,-73.57 552.08,-76.97"/>
</g>
<!-- BilayerMeasurement -->
<g id="node8" class="node">
<title>BilayerMeasurement</title>
<g id="a_node8"><a xlink:href="../funman.model.html#funman.model.bilayer.BilayerMeasurement" xlink:title="The BilayerMeasurement class represents measurements taken on the BilayerNode state nodes of a BilayerDynamics object. &#160;The graph consists of:" target="_top">
<polygon fill="white" stroke="black" stroke-width="0.5" points="337,-19 218,-19 218,0 337,0 337,-19"/>
<text text-anchor="middle" x="277.5" y="-7" font-family="Vera Sans, DejaVu Sans, Liberation Sans, Arial, Helvetica, sans" font-size="10.00">BilayerMeasurement</text>
</a>
</g>
</g>
<!-- BaseModel&#45;&gt;BilayerMeasurement -->
<g id="edge7" class="edge">
<title>BaseModel&#45;&gt;BilayerMeasurement</title>
<path fill="none" stroke="#6ab0de" stroke-width="3" d="M369.6,-109.9C360.82,-97.33 343.5,-73.42 326.5,-55 315.63,-43.22 302.06,-31.07 291.96,-22.44"/>
<polygon fill="#6ab0de" stroke="#6ab0de" stroke-width="3" points="293.08,-21.1 288.13,-19.21 290.82,-23.77 293.08,-21.1"/>
</g>
<!-- BilayerMetadata -->
<g id="node9" class="node">
<title>BilayerMetadata</title>
<g id="a_node9"><a xlink:href="../funman.model.html#funman.model.bilayer.BilayerMetadata" xlink:title="Metadata for a BilayerNode" target="_top">
<polygon fill="white" stroke="black" stroke-width="0.5" points="746.5,-74 648.5,-74 648.5,-55 746.5,-55 746.5,-74"/>
<text text-anchor="middle" x="697.5" y="-62" font-family="Vera Sans, DejaVu Sans, Liberation Sans, Arial, Helvetica, sans" font-size="10.00">BilayerMetadata</text>
</a>
</g>
</g>
<!-- BaseModel&#45;&gt;BilayerMetadata -->
<g id="edge8" class="edge">
<title>BaseModel&#45;&gt;BilayerMetadata</title>
<path fill="none" stroke="#6ab0de" stroke-width="3" d="M411.19,-112.63C467.44,-103.37 577.11,-85.32 643.19,-74.44"/>
<polygon fill="#6ab0de" stroke="#6ab0de" stroke-width="3" points="643.61,-76.14 648.26,-73.6 643.04,-72.69 643.61,-76.14"/>
</g>
<!-- BaseModel&#45;&gt;FunmanModel -->
<g id="edge15" class="edge">
<title>BaseModel&#45;&gt;FunmanModel</title>
<path fill="none" stroke="#6ab0de" stroke-width="3" d="M343.53,-109.98C308.09,-100.55 251.02,-85.35 213.64,-75.39"/>
<polygon fill="#6ab0de" stroke="#6ab0de" stroke-width="3" points="214.01,-73.68 208.72,-74.08 213.1,-77.06 214.01,-73.68"/>
</g>
<!-- BilayerDynamics -->
<g id="node3" class="node">
<title>BilayerDynamics</title>
<g id="a_node3"><a xlink:href="../funman.model.html#funman.model.bilayer.BilayerDynamics" xlink:title="The BilayerDynamics class represents a state update (dynamics) model for a set of variables. &#160;The graph consists of:" target="_top">
<polygon fill="white" stroke="black" stroke-width="0.5" points="199.5,-19 99.5,-19 99.5,0 199.5,0 199.5,-19"/>
<text text-anchor="middle" x="149.5" y="-7" font-family="Vera Sans, DejaVu Sans, Liberation Sans, Arial, Helvetica, sans" font-size="10.00">BilayerDynamics</text>
</a>
</g>
</g>
<!-- BilayerGraph&#45;&gt;BilayerDynamics -->
<g id="edge1" class="edge">
<title>BilayerGraph&#45;&gt;BilayerDynamics</title>
<path fill="none" stroke="#6ab0de" stroke-width="3" d="M256.93,-54.98C234.67,-45.77 199.14,-31.05 175.09,-21.1"/>
<polygon fill="#6ab0de" stroke="#6ab0de" stroke-width="3" points="175.73,-19.47 170.44,-19.17 174.39,-22.7 175.73,-19.47"/>
</g>
<!-- BilayerGraph&#45;&gt;BilayerMeasurement -->
<g id="edge6" class="edge">
<title>BilayerGraph&#45;&gt;BilayerMeasurement</title>
<path fill="none" stroke="#6ab0de" stroke-width="3" d="M277.5,-54.75C277.5,-46.41 277.5,-33.74 277.5,-24.09"/>
<polygon fill="#6ab0de" stroke="#6ab0de" stroke-width="3" points="279.25,-24.09 277.5,-19.09 275.75,-24.09 279.25,-24.09"/>
</g>
<!-- BilayerNegativeEdge -->
<g id="node12" class="node">
<title>BilayerNegativeEdge</title>
<g id="a_node12"><a xlink:href="../funman.model.html#funman.model.bilayer.BilayerNegativeEdge" xlink:title="Class representing a positive influence between a FluxNode and a StateNode." target="_top">
<polygon fill="white" stroke="black" stroke-width="0.5" points="474,-19 355,-19 355,0 474,0 474,-19"/>
<text text-anchor="middle" x="414.5" y="-7" font-family="Vera Sans, DejaVu Sans, Liberation Sans, Arial, Helvetica, sans" font-size="10.00">BilayerNegativeEdge</text>
</a>
</g>
</g>
<!-- BilayerEdge&#45;&gt;BilayerNegativeEdge -->
<g id="edge10" class="edge">
<title>BilayerEdge&#45;&gt;BilayerNegativeEdge</title>
<path fill="none" stroke="#6ab0de" stroke-width="3" d="M414.5,-54.75C414.5,-46.41 414.5,-33.74 414.5,-24.09"/>
<polygon fill="#6ab0de" stroke="#6ab0de" stroke-width="3" points="416.25,-24.09 414.5,-19.09 412.75,-24.09 416.25,-24.09"/>
</g>
<!-- BilayerPositiveEdge -->
<g id="node13" class="node">
<title>BilayerPositiveEdge</title>
<g id="a_node13"><a xlink:href="../funman.model.html#funman.model.bilayer.BilayerPositiveEdge" xlink:title="Class representing a positive influence between a FluxNode and a StateNode." target="_top">
<polygon fill="white" stroke="black" stroke-width="0.5" points="606.5,-19 492.5,-19 492.5,0 606.5,0 606.5,-19"/>
<text text-anchor="middle" x="549.5" y="-7" font-family="Vera Sans, DejaVu Sans, Liberation Sans, Arial, Helvetica, sans" font-size="10.00">BilayerPositiveEdge</text>
</a>
</g>
</g>
<!-- BilayerEdge&#45;&gt;BilayerPositiveEdge -->
<g id="edge12" class="edge">
<title>BilayerEdge&#45;&gt;BilayerPositiveEdge</title>
<path fill="none" stroke="#6ab0de" stroke-width="3" d="M436.19,-54.98C459.67,-45.77 497.15,-31.05 522.51,-21.1"/>
<polygon fill="#6ab0de" stroke="#6ab0de" stroke-width="3" points="523.4,-22.63 527.42,-19.17 522.12,-19.37 523.4,-22.63"/>
</g>
<!-- BilayerFluxNode -->
<g id="node6" class="node">
<title>BilayerFluxNode</title>
<g id="a_node6"><a xlink:href="../funman.model.html#funman.model.bilayer.BilayerFluxNode" xlink:title="BilayerNode representing a flux." target="_top">
<polygon fill="white" stroke="black" stroke-width="0.5" points="842.5,-19 744.5,-19 744.5,0 842.5,0 842.5,-19"/>
<text text-anchor="middle" x="793.5" y="-7" font-family="Vera Sans, DejaVu Sans, Liberation Sans, Arial, Helvetica, sans" font-size="10.00">BilayerFluxNode</text>
</a>
</g>
</g>
<!-- BilayerNode&#45;&gt;BilayerFluxNode -->
<g id="edge3" class="edge">
<title>BilayerNode&#45;&gt;BilayerFluxNode</title>
<path fill="none" stroke="#6ab0de" stroke-width="3" d="M623.95,-54.98C659.92,-45.55 717.85,-30.35 755.8,-20.39"/>
<polygon fill="#6ab0de" stroke="#6ab0de" stroke-width="3" points="756.4,-22.04 760.79,-19.08 755.51,-18.66 756.4,-22.04"/>
</g>
<!-- BilayerStateNode -->
<g id="node14" class="node">
<title>BilayerStateNode</title>
<g id="a_node14"><a xlink:href="../funman.model.html#funman.model.bilayer.BilayerStateNode" xlink:title="BilayerNode representing a state variable." target="_top">
<polygon fill="white" stroke="black" stroke-width="0.5" points="726.5,-19 624.5,-19 624.5,0 726.5,0 726.5,-19"/>
<text text-anchor="middle" x="675.5" y="-7" font-family="Vera Sans, DejaVu Sans, Liberation Sans, Arial, Helvetica, sans" font-size="10.00">BilayerStateNode</text>
</a>
</g>
</g>
<!-- BilayerNode&#45;&gt;BilayerStateNode -->
<g id="edge13" class="edge">
<title>BilayerNode&#45;&gt;BilayerStateNode</title>
<path fill="none" stroke="#6ab0de" stroke-width="3" d="M605,-54.98C619.24,-46 641.76,-31.79 657.51,-21.85"/>
<polygon fill="#6ab0de" stroke="#6ab0de" stroke-width="3" points="658.46,-23.32 661.76,-19.17 656.6,-20.36 658.46,-23.32"/>
</g>
<!-- BilayerModel -->
<g id="node10" class="node">
<title>BilayerModel</title>
<g id="a_node10"><a xlink:href="../funman.model.html#funman.model.bilayer.BilayerModel" xlink:title="A BilayerModel is a complete specification of a Model that uses a BilayerDynamics graph to represent dynamics. It includes the attributes:" target="_top">
<polygon fill="white" stroke="black" stroke-width="0.5" points="81,-19 0,-19 0,0 81,0 81,-19"/>
<text text-anchor="middle" x="40.5" y="-7" font-family="Vera Sans, DejaVu Sans, Liberation Sans, Arial, Helvetica, sans" font-size="10.00">BilayerModel</text>
</a>
</g>
</g>
<!-- FunmanModel&#45;&gt;BilayerModel -->
<g id="edge9" class="edge">
<title>FunmanModel&#45;&gt;BilayerModel</title>
<path fill="none" stroke="#6ab0de" stroke-width="3" d="M154.65,-54.98C131,-45.77 93.24,-31.05 67.69,-21.1"/>
<polygon fill="#6ab0de" stroke="#6ab0de" stroke-width="3" points="68.04,-19.36 62.75,-19.17 66.77,-22.62 68.04,-19.36"/>
</g>
</g>
</svg>
