<?xml version="1.0" encoding="UTF-8" standalone="no"?>
<!DOCTYPE svg PUBLIC "-//W3C//DTD SVG 1.1//EN"
 "http://www.w3.org/Graphics/SVG/1.1/DTD/svg11.dtd">
<!-- Generated by graphviz version 2.43.0 (0)
 -->
<!-- Title: inheritance4f39d304b7 Pages: 1 -->
<svg width="254pt" height="137pt"
 viewBox="0.00 0.00 253.50 137.00" xmlns="http://www.w3.org/2000/svg" xmlns:xlink="http://www.w3.org/1999/xlink">
<g id="graph0" class="graph" transform="scale(1 1) rotate(0) translate(4 133)">
<title>inheritance4f39d304b7</title>
<!-- ABC -->
<g id="node1" class="node">
<title>ABC</title>
<g id="a_node1"><a xlink:title="Helper class that provides a standard way to create an ABC using">
<polygon fill="white" stroke="black" stroke-width="0.5" points="91,-129 37,-129 37,-110 91,-110 91,-129"/>
<text text-anchor="middle" x="64" y="-117" font-family="Vera Sans, DejaVu Sans, Liberation Sans, Arial, Helvetica, sans" font-size="10.00">ABC</text>
</a>
</g>
</g>
<!-- Encoder -->
<g id="node3" class="node">
<title>Encoder</title>
<g id="a_node3"><a xlink:href="../funman.translate.html#funman.translate.translate.Encoder" xlink:title="An Encoder translates a Model into an SMTLib formula." target="_top">
<polygon fill="white" stroke="black" stroke-width="0.5" points="92,-74 36,-74 36,-55 92,-55 92,-74"/>
<text text-anchor="middle" x="64" y="-62" font-family="Vera Sans, DejaVu Sans, Liberation Sans, Arial, Helvetica, sans" font-size="10.00">Encoder</text>
</a>
</g>
</g>
<!-- ABC&#45;&gt;Encoder -->
<g id="edge1" class="edge">
<title>ABC&#45;&gt;Encoder</title>
<path fill="none" stroke="#6ab0de" stroke-width="3" d="M64,-109.75C64,-101.41 64,-88.74 64,-79.09"/>
<polygon fill="#6ab0de" stroke="#6ab0de" stroke-width="3" points="65.75,-79.09 64,-74.09 62.25,-79.09 65.75,-79.09"/>
</g>
<!-- BaseModel -->
<g id="node2" class="node">
<title>BaseModel</title>
<g id="a_node2"><a xlink:title="Usage docs: https://docs.pydantic.dev/2.4/concepts/models/">
<polygon fill="white" stroke="black" stroke-width="0.5" points="187.5,-129 116.5,-129 116.5,-110 187.5,-110 187.5,-129"/>
<text text-anchor="middle" x="152" y="-117" font-family="Vera Sans, DejaVu Sans, Liberation Sans, Arial, Helvetica, sans" font-size="10.00">BaseModel</text>
</a>
</g>
</g>
<!-- BaseModel&#45;&gt;Encoder -->
<g id="edge2" class="edge">
<title>BaseModel&#45;&gt;Encoder</title>
<path fill="none" stroke="#6ab0de" stroke-width="3" d="M137.86,-109.98C122.94,-101 99.34,-86.79 82.85,-76.85"/>
<polygon fill="#6ab0de" stroke="#6ab0de" stroke-width="3" points="83.58,-75.25 78.4,-74.17 81.78,-78.25 83.58,-75.25"/>
</g>
<!-- EncodingOptions -->
<g id="node4" class="node">
<title>EncodingOptions</title>
<g id="a_node4"><a xlink:href="../funman.translate.html#funman.translate.encoding.EncodingOptions" xlink:title="EncodingOptions" target="_top">
<polygon fill="white" stroke="black" stroke-width="0.5" points="217,-74 119,-74 119,-55 217,-55 217,-74"/>
<text text-anchor="middle" x="168" y="-62" font-family="Vera Sans, DejaVu Sans, Liberation Sans, Arial, Helvetica, sans" font-size="10.00">EncodingOptions</text>
</a>
</g>
</g>
<!-- BaseModel&#45;&gt;EncodingOptions -->
<g id="edge3" class="edge">
<title>BaseModel&#45;&gt;EncodingOptions</title>
<path fill="none" stroke="#6ab0de" stroke-width="3" d="M154.64,-109.75C157.16,-101.41 160.98,-88.74 163.9,-79.09"/>
<polygon fill="#6ab0de" stroke="#6ab0de" stroke-width="3" points="165.64,-79.38 165.41,-74.09 162.29,-78.37 165.64,-79.38"/>
</g>
<!-- GrometEncoder -->
<g id="node5" class="node">
<title>GrometEncoder</title>
<g id="a_node5"><a xlink:href="../funman.translate.html#funman.translate.gromet.GrometEncoder" xlink:title="Encodes Gromet models into SMTLib formulas." target="_top">
<polygon fill="white" stroke="black" stroke-width="0.5" points="92,-19 0,-19 0,0 92,0 92,-19"/>
<text text-anchor="middle" x="46" y="-7" font-family="Vera Sans, DejaVu Sans, Liberation Sans, Arial, Helvetica, sans" font-size="10.00">GrometEncoder</text>
</a>
</g>
</g>
<!-- Encoder&#45;&gt;GrometEncoder -->
<g id="edge4" class="edge">
<title>Encoder&#45;&gt;GrometEncoder</title>
<path fill="none" stroke="#6ab0de" stroke-width="3" d="M61.03,-54.75C58.17,-46.34 53.81,-33.51 50.53,-23.83"/>
<polygon fill="#6ab0de" stroke="#6ab0de" stroke-width="3" points="52.18,-23.26 48.92,-19.09 48.87,-24.39 52.18,-23.26"/>
</g>
<!-- GrometEncodingOptions -->
<g id="node6" class="node">
<title>GrometEncodingOptions</title>
<g id="a_node6"><a xlink:href="../funman.translate.html#funman.translate.gromet.GrometEncodingOptions" xlink:title="Gromet encoding options." target="_top">
<polygon fill="white" stroke="black" stroke-width="0.5" points="245.5,-19 110.5,-19 110.5,0 245.5,0 245.5,-19"/>
<text text-anchor="middle" x="178" y="-7" font-family="Vera Sans, DejaVu Sans, Liberation Sans, Arial, Helvetica, sans" font-size="10.00">GrometEncodingOptions</text>
</a>
</g>
</g>
<!-- EncodingOptions&#45;&gt;GrometEncodingOptions -->
<g id="edge5" class="edge">
<title>EncodingOptions&#45;&gt;GrometEncodingOptions</title>
<path fill="none" stroke="#6ab0de" stroke-width="3" d="M169.65,-54.75C171.22,-46.41 173.61,-33.74 175.44,-24.09"/>
<polygon fill="#6ab0de" stroke="#6ab0de" stroke-width="3" points="177.17,-24.33 176.38,-19.09 173.73,-23.68 177.17,-24.33"/>
</g>
</g>
</svg>
