<?xml version="1.0" encoding="UTF-8" standalone="no"?>
<!DOCTYPE svg PUBLIC "-//W3C//DTD SVG 1.1//EN"
 "http://www.w3.org/Graphics/SVG/1.1/DTD/svg11.dtd">
<!-- Generated by graphviz version 2.43.0 (0)
 -->
<!-- Title: inheritance75213a3cd1 Pages: 1 -->
<svg width="102pt" height="137pt"
 viewBox="0.00 0.00 102.00 137.00" xmlns="http://www.w3.org/2000/svg" xmlns:xlink="http://www.w3.org/1999/xlink">
<g id="graph0" class="graph" transform="scale(1 1) rotate(0) translate(4 133)">
<title>inheritance75213a3cd1</title>
<!-- ABC -->
<g id="node1" class="node">
<title>ABC</title>
<g id="a_node1"><a xlink:title="Helper class that provides a standard way to create an ABC using">
<polygon fill="white" stroke="black" stroke-width="0.5" points="74,-129 20,-129 20,-110 74,-110 74,-129"/>
<text text-anchor="middle" x="47" y="-117" font-family="Vera Sans, DejaVu Sans, Liberation Sans, Arial, Helvetica, sans" font-size="10.00">ABC</text>
</a>
</g>
</g>
<!-- Search -->
<g id="node2" class="node">
<title>Search</title>
<g id="a_node2"><a xlink:href="../funman.search.html#funman.search.search.Search" xlink:title="Search" target="_top">
<polygon fill="white" stroke="black" stroke-width="0.5" points="74,-74 20,-74 20,-55 74,-55 74,-74"/>
<text text-anchor="middle" x="47" y="-62" font-family="Vera Sans, DejaVu Sans, Liberation Sans, Arial, Helvetica, sans" font-size="10.00">Search</text>
</a>
</g>
</g>
<!-- ABC&#45;&gt;Search -->
<g id="edge1" class="edge">
<title>ABC&#45;&gt;Search</title>
<path fill="none" stroke="#6ab0de" stroke-width="3" d="M47,-109.75C47,-101.41 47,-88.74 47,-79.09"/>
<polygon fill="#6ab0de" stroke="#6ab0de" stroke-width="3" points="48.75,-79.09 47,-74.09 45.25,-79.09 48.75,-79.09"/>
</g>
<!-- SimulatorCheck -->
<g id="node3" class="node">
<title>SimulatorCheck</title>
<g id="a_node3"><a xlink:href="../funman.search.html#funman.search.simulator_check.SimulatorCheck" xlink:title="SimulatorCheck" target="_top">
<polygon fill="white" stroke="black" stroke-width="0.5" points="94,-19 0,-19 0,0 94,0 94,-19"/>
<text text-anchor="middle" x="47" y="-7" font-family="Vera Sans, DejaVu Sans, Liberation Sans, Arial, Helvetica, sans" font-size="10.00">SimulatorCheck</text>
</a>
</g>
</g>
<!-- Search&#45;&gt;SimulatorCheck -->
<g id="edge2" class="edge">
<title>Search&#45;&gt;SimulatorCheck</title>
<path fill="none" stroke="#6ab0de" stroke-width="3" d="M47,-54.75C47,-46.41 47,-33.74 47,-24.09"/>
<polygon fill="#6ab0de" stroke="#6ab0de" stroke-width="3" points="48.75,-24.09 47,-19.09 45.25,-24.09 48.75,-24.09"/>
</g>
</g>
</svg>
