<?xml version="1.0" encoding="UTF-8" standalone="no"?>
<!DOCTYPE svg PUBLIC "-//W3C//DTD SVG 1.1//EN"
 "http://www.w3.org/Graphics/SVG/1.1/DTD/svg11.dtd">
<!-- Generated by graphviz version 2.43.0 (0)
 -->
<!-- Title: inheritancef90de127ea Pages: 1 -->
<svg width="1452pt" height="192pt"
 viewBox="0.00 0.00 1451.50 192.00" xmlns="http://www.w3.org/2000/svg" xmlns:xlink="http://www.w3.org/1999/xlink">
<g id="graph0" class="graph" transform="scale(1 1) rotate(0) translate(4 188)">
<title>inheritancef90de127ea</title>
<!-- BaseModel -->
<g id="node1" class="node">
<title>BaseModel</title>
<g id="a_node1"><a xlink:title="Usage docs: https://docs.pydantic.dev/2.9/concepts/models/">
<polygon fill="white" stroke="black" stroke-width="0.5" points="730.5,-184 659.5,-184 659.5,-165 730.5,-165 730.5,-184"/>
<text text-anchor="middle" x="695" y="-172" font-family="Vera Sans, DejaVu Sans, Liberation Sans, Arial, Helvetica, sans" font-size="10.00">BaseModel</text>
</a>
</g>
</g>
<!-- Distribution -->
<g id="node2" class="node">
<title>Distribution</title>
<g id="a_node2"><a xlink:href="../funman.model.generated_models.html#funman.model.generated_models.petrinet.Distribution" xlink:title="Distribution" target="_top">
<polygon fill="white" stroke="black" stroke-width="0.5" points="74,-129 0,-129 0,-110 74,-110 74,-129"/>
<text text-anchor="middle" x="37" y="-117" font-family="Vera Sans, DejaVu Sans, Liberation Sans, Arial, Helvetica, sans" font-size="10.00">Distribution</text>
</a>
</g>
</g>
<!-- BaseModel&#45;&gt;Distribution -->
<g id="edge1" class="edge">
<title>BaseModel&#45;&gt;Distribution</title>
<path fill="none" stroke="#6ab0de" stroke-width="3" d="M659.34,-172.28C564.95,-168.76 300.93,-156.97 83,-129 81.73,-128.84 80.44,-128.66 79.15,-128.48"/>
<polygon fill="#6ab0de" stroke="#6ab0de" stroke-width="3" points="79.31,-126.73 74.1,-127.72 78.79,-130.19 79.31,-126.73"/>
</g>
<!-- Grounding -->
<g id="node4" class="node">
<title>Grounding</title>
<g id="a_node4"><a xlink:href="../funman.model.generated_models.html#funman.model.generated_models.petrinet.Grounding" xlink:title="Grounding" target="_top">
<polygon fill="white" stroke="black" stroke-width="0.5" points="159.5,-129 92.5,-129 92.5,-110 159.5,-110 159.5,-129"/>
<text text-anchor="middle" x="126" y="-117" font-family="Vera Sans, DejaVu Sans, Liberation Sans, Arial, Helvetica, sans" font-size="10.00">Grounding</text>
</a>
</g>
</g>
<!-- BaseModel&#45;&gt;Grounding -->
<g id="edge2" class="edge">
<title>BaseModel&#45;&gt;Grounding</title>
<path fill="none" stroke="#6ab0de" stroke-width="3" d="M659.45,-171.85C574.38,-167.62 352.55,-154.82 169,-129 167.59,-128.8 166.15,-128.59 164.7,-128.36"/>
<polygon fill="#6ab0de" stroke="#6ab0de" stroke-width="3" points="164.96,-126.63 159.74,-127.54 164.39,-130.08 164.96,-126.63"/>
</g>
<!-- Header -->
<g id="node5" class="node">
<title>Header</title>
<g id="a_node5"><a xlink:href="../funman.model.generated_models.html#funman.model.generated_models.petrinet.Header" xlink:title="Header" target="_top">
<polygon fill="white" stroke="black" stroke-width="0.5" points="232,-129 178,-129 178,-110 232,-110 232,-129"/>
<text text-anchor="middle" x="205" y="-117" font-family="Vera Sans, DejaVu Sans, Liberation Sans, Arial, Helvetica, sans" font-size="10.00">Header</text>
</a>
</g>
</g>
<!-- BaseModel&#45;&gt;Header -->
<g id="edge3" class="edge">
<title>BaseModel&#45;&gt;Header</title>
<path fill="none" stroke="#6ab0de" stroke-width="3" d="M659.47,-171.64C582.68,-167.28 395.69,-154.72 241,-129 239.73,-128.79 238.43,-128.56 237.12,-128.31"/>
<polygon fill="#6ab0de" stroke="#6ab0de" stroke-width="3" points="237.29,-126.56 232.05,-127.3 236.61,-129.99 237.29,-126.56"/>
</g>
<!-- Rate -->
<g id="node7" class="node">
<title>Rate</title>
<g id="a_node7"><a xlink:href="../funman.model.generated_models.html#funman.model.generated_models.petrinet.Rate" xlink:title="Rate" target="_top">
<polygon fill="white" stroke="black" stroke-width="0.5" points="304,-129 250,-129 250,-110 304,-110 304,-129"/>
<text text-anchor="middle" x="277" y="-117" font-family="Vera Sans, DejaVu Sans, Liberation Sans, Arial, Helvetica, sans" font-size="10.00">Rate</text>
</a>
</g>
</g>
<!-- BaseModel&#45;&gt;Rate -->
<g id="edge11" class="edge">
<title>BaseModel&#45;&gt;Rate</title>
<path fill="none" stroke="#6ab0de" stroke-width="3" d="M659.25,-170.73C591.4,-165.16 439.42,-151.21 313,-129 311.73,-128.78 310.43,-128.54 309.13,-128.28"/>
<polygon fill="#6ab0de" stroke="#6ab0de" stroke-width="3" points="309.31,-126.53 304.06,-127.24 308.6,-129.96 309.31,-126.53"/>
</g>
<!-- Model -->
<g id="node8" class="node">
<title>Model</title>
<g id="a_node8"><a xlink:href="../funman.model.generated_models.html#funman.model.generated_models.petrinet.Model" xlink:title="Model" target="_top">
<polygon fill="white" stroke="black" stroke-width="0.5" points="376,-129 322,-129 322,-110 376,-110 376,-129"/>
<text text-anchor="middle" x="349" y="-117" font-family="Vera Sans, DejaVu Sans, Liberation Sans, Arial, Helvetica, sans" font-size="10.00">Model</text>
</a>
</g>
</g>
<!-- BaseModel&#45;&gt;Model -->
<g id="edge5" class="edge">
<title>BaseModel&#45;&gt;Model</title>
<path fill="none" stroke="#6ab0de" stroke-width="3" d="M659.5,-169.45C601.71,-162.62 483.83,-147.72 385,-129 383.73,-128.76 382.44,-128.5 381.13,-128.24"/>
<polygon fill="#6ab0de" stroke="#6ab0de" stroke-width="3" points="381.33,-126.49 376.07,-127.17 380.6,-129.91 381.33,-126.49"/>
</g>
<!-- Model1 -->
<g id="node9" class="node">
<title>Model1</title>
<g id="a_node9"><a xlink:href="../funman.model.generated_models.html#funman.model.generated_models.petrinet.Model1" xlink:title="Model1" target="_top">
<polygon fill="white" stroke="black" stroke-width="0.5" points="448,-129 394,-129 394,-110 448,-110 448,-129"/>
<text text-anchor="middle" x="421" y="-117" font-family="Vera Sans, DejaVu Sans, Liberation Sans, Arial, Helvetica, sans" font-size="10.00">Model1</text>
</a>
</g>
</g>
<!-- BaseModel&#45;&gt;Model1 -->
<g id="edge6" class="edge">
<title>BaseModel&#45;&gt;Model1</title>
<path fill="none" stroke="#6ab0de" stroke-width="3" d="M659.41,-167.38C612.79,-159.25 528.56,-144.13 457,-129 455.74,-128.73 454.45,-128.45 453.15,-128.17"/>
<polygon fill="#6ab0de" stroke="#6ab0de" stroke-width="3" points="453.36,-126.42 448.1,-127.04 452.59,-129.84 453.36,-126.42"/>
</g>
<!-- Observable -->
<g id="node10" class="node">
<title>Observable</title>
<g id="a_node10"><a xlink:href="../funman.model.generated_models.html#funman.model.generated_models.petrinet.Observable" xlink:title="Observable" target="_top">
<polygon fill="white" stroke="black" stroke-width="0.5" points="538,-129 466,-129 466,-110 538,-110 538,-129"/>
<text text-anchor="middle" x="502" y="-117" font-family="Vera Sans, DejaVu Sans, Liberation Sans, Arial, Helvetica, sans" font-size="10.00">Observable</text>
</a>
</g>
</g>
<!-- BaseModel&#45;&gt;Observable -->
<g id="edge7" class="edge">
<title>BaseModel&#45;&gt;Observable</title>
<path fill="none" stroke="#6ab0de" stroke-width="3" d="M663.99,-164.98C629.77,-155.59 574.73,-140.47 538.46,-130.51"/>
<polygon fill="#6ab0de" stroke="#6ab0de" stroke-width="3" points="538.54,-128.72 533.25,-129.08 537.61,-132.09 538.54,-128.72"/>
</g>
<!-- OdeSemantics -->
<g id="node11" class="node">
<title>OdeSemantics</title>
<g id="a_node11"><a xlink:href="../funman.model.generated_models.html#funman.model.generated_models.petrinet.OdeSemantics" xlink:title="OdeSemantics" target="_top">
<polygon fill="white" stroke="black" stroke-width="0.5" points="643.5,-129 556.5,-129 556.5,-110 643.5,-110 643.5,-129"/>
<text text-anchor="middle" x="600" y="-117" font-family="Vera Sans, DejaVu Sans, Liberation Sans, Arial, Helvetica, sans" font-size="10.00">OdeSemantics</text>
</a>
</g>
</g>
<!-- BaseModel&#45;&gt;OdeSemantics -->
<g id="edge8" class="edge">
<title>BaseModel&#45;&gt;OdeSemantics</title>
<path fill="none" stroke="#6ab0de" stroke-width="3" d="M679.74,-164.98C663.63,-156 638.15,-141.79 620.35,-131.85"/>
<polygon fill="#6ab0de" stroke="#6ab0de" stroke-width="3" points="620.76,-130.08 615.54,-129.17 619.05,-133.13 620.76,-130.08"/>
</g>
<!-- Parameter -->
<g id="node12" class="node">
<title>Parameter</title>
<g id="a_node12"><a xlink:href="../funman.model.generated_models.html#funman.model.generated_models.petrinet.Parameter" xlink:title="Parameter" target="_top">
<polygon fill="white" stroke="black" stroke-width="0.5" points="728.5,-129 661.5,-129 661.5,-110 728.5,-110 728.5,-129"/>
<text text-anchor="middle" x="695" y="-117" font-family="Vera Sans, DejaVu Sans, Liberation Sans, Arial, Helvetica, sans" font-size="10.00">Parameter</text>
</a>
</g>
</g>
<!-- BaseModel&#45;&gt;Parameter -->
<g id="edge9" class="edge">
<title>BaseModel&#45;&gt;Parameter</title>
<path fill="none" stroke="#6ab0de" stroke-width="3" d="M695,-164.75C695,-156.41 695,-143.74 695,-134.09"/>
<polygon fill="#6ab0de" stroke="#6ab0de" stroke-width="3" points="696.75,-134.09 695,-129.09 693.25,-134.09 696.75,-134.09"/>
</g>
<!-- Properties -->
<g id="node13" class="node">
<title>Properties</title>
<g id="a_node13"><a xlink:href="../funman.model.generated_models.html#funman.model.generated_models.petrinet.Properties" xlink:title="Properties" target="_top">
<polygon fill="white" stroke="black" stroke-width="0.5" points="813,-129 747,-129 747,-110 813,-110 813,-129"/>
<text text-anchor="middle" x="780" y="-117" font-family="Vera Sans, DejaVu Sans, Liberation Sans, Arial, Helvetica, sans" font-size="10.00">Properties</text>
</a>
</g>
</g>
<!-- BaseModel&#45;&gt;Properties -->
<g id="edge10" class="edge">
<title>BaseModel&#45;&gt;Properties</title>
<path fill="none" stroke="#6ab0de" stroke-width="3" d="M708.66,-164.98C723.07,-156 745.86,-141.79 761.8,-131.85"/>
<polygon fill="#6ab0de" stroke="#6ab0de" stroke-width="3" points="762.78,-133.3 766.09,-129.17 760.93,-130.33 762.78,-133.3"/>
</g>
<!-- RootModel -->
<g id="node14" class="node">
<title>RootModel</title>
<g id="a_node14"><a xlink:title="Usage docs: https://docs.pydantic.dev/2.9/concepts/models/#rootmodel&#45;and&#45;custom&#45;root&#45;types">
<polygon fill="white" stroke="black" stroke-width="0.5" points="1402.5,-129 1333.5,-129 1333.5,-110 1402.5,-110 1402.5,-129"/>
<text text-anchor="middle" x="1368" y="-117" font-family="Vera Sans, DejaVu Sans, Liberation Sans, Arial, Helvetica, sans" font-size="10.00">RootModel</text>
</a>
</g>
</g>
<!-- BaseModel&#45;&gt;RootModel -->
<g id="edge12" class="edge">
<title>BaseModel&#45;&gt;RootModel</title>
<path fill="none" stroke="#6ab0de" stroke-width="3" d="M730.62,-172.48C826.74,-169.4 1099.32,-158.54 1324,-129 1325.45,-128.81 1326.92,-128.6 1328.4,-128.38"/>
<polygon fill="#6ab0de" stroke="#6ab0de" stroke-width="3" points="1328.81,-130.09 1333.48,-127.58 1328.26,-126.63 1328.81,-130.09"/>
</g>
<!-- Semantics -->
<g id="node15" class="node">
<title>Semantics</title>
<g id="a_node15"><a xlink:href="../funman.model.generated_models.html#funman.model.generated_models.petrinet.Semantics" xlink:title="Semantics" target="_top">
<polygon fill="white" stroke="black" stroke-width="0.5" points="899,-129 831,-129 831,-110 899,-110 899,-129"/>
<text text-anchor="middle" x="865" y="-117" font-family="Vera Sans, DejaVu Sans, Liberation Sans, Arial, Helvetica, sans" font-size="10.00">Semantics</text>
</a>
</g>
</g>
<!-- BaseModel&#45;&gt;Semantics -->
<g id="edge14" class="edge">
<title>BaseModel&#45;&gt;Semantics</title>
<path fill="none" stroke="#6ab0de" stroke-width="3" d="M722.31,-164.98C752.34,-155.62 800.54,-140.6 832.49,-130.64"/>
<polygon fill="#6ab0de" stroke="#6ab0de" stroke-width="3" points="833.22,-132.24 837.47,-129.08 832.18,-128.9 833.22,-132.24"/>
</g>
<!-- State -->
<g id="node16" class="node">
<title>State</title>
<g id="a_node16"><a xlink:href="../funman.model.generated_models.html#funman.model.generated_models.petrinet.State" xlink:title="State" target="_top">
<polygon fill="white" stroke="black" stroke-width="0.5" points="971,-129 917,-129 917,-110 971,-110 971,-129"/>
<text text-anchor="middle" x="944" y="-117" font-family="Vera Sans, DejaVu Sans, Liberation Sans, Arial, Helvetica, sans" font-size="10.00">State</text>
</a>
</g>
</g>
<!-- BaseModel&#45;&gt;State -->
<g id="edge15" class="edge">
<title>BaseModel&#45;&gt;State</title>
<path fill="none" stroke="#6ab0de" stroke-width="3" d="M730.86,-166.3C773.25,-157.73 845.86,-142.82 908,-129 909.26,-128.72 910.55,-128.43 911.85,-128.14"/>
<polygon fill="#6ab0de" stroke="#6ab0de" stroke-width="3" points="912.41,-129.8 916.89,-126.98 911.63,-126.39 912.41,-129.8"/>
</g>
<!-- Time -->
<g id="node19" class="node">
<title>Time</title>
<g id="a_node19"><a xlink:href="../funman.model.generated_models.html#funman.model.generated_models.petrinet.Time" xlink:title="Time" target="_top">
<polygon fill="white" stroke="black" stroke-width="0.5" points="1043,-129 989,-129 989,-110 1043,-110 1043,-129"/>
<text text-anchor="middle" x="1016" y="-117" font-family="Vera Sans, DejaVu Sans, Liberation Sans, Arial, Helvetica, sans" font-size="10.00">Time</text>
</a>
</g>
</g>
<!-- BaseModel&#45;&gt;Time -->
<g id="edge18" class="edge">
<title>BaseModel&#45;&gt;Time</title>
<path fill="none" stroke="#6ab0de" stroke-width="3" d="M730.7,-168.83C784.83,-161.53 890.8,-146.47 980,-129 981.27,-128.75 982.56,-128.49 983.86,-128.22"/>
<polygon fill="#6ab0de" stroke="#6ab0de" stroke-width="3" points="984.4,-129.89 988.92,-127.13 983.67,-126.47 984.4,-129.89"/>
</g>
<!-- Transition -->
<g id="node20" class="node">
<title>Transition</title>
<g id="a_node20"><a xlink:href="../funman.model.generated_models.html#funman.model.generated_models.petrinet.Transition" xlink:title="Transition" target="_top">
<polygon fill="white" stroke="black" stroke-width="0.5" points="1125,-129 1061,-129 1061,-110 1125,-110 1125,-129"/>
<text text-anchor="middle" x="1093" y="-117" font-family="Vera Sans, DejaVu Sans, Liberation Sans, Arial, Helvetica, sans" font-size="10.00">Transition</text>
</a>
</g>
</g>
<!-- BaseModel&#45;&gt;Transition -->
<g id="edge19" class="edge">
<title>BaseModel&#45;&gt;Transition</title>
<path fill="none" stroke="#6ab0de" stroke-width="3" d="M730.61,-170.02C794.98,-163.52 934.92,-148.4 1052,-129 1053.26,-128.79 1054.53,-128.57 1055.82,-128.34"/>
<polygon fill="#6ab0de" stroke="#6ab0de" stroke-width="3" points="1056.21,-130.05 1060.82,-127.43 1055.58,-126.61 1056.21,-130.05"/>
</g>
<!-- TypingSemantics -->
<g id="node23" class="node">
<title>TypingSemantics</title>
<g id="a_node23"><a xlink:href="../funman.model.generated_models.html#funman.model.generated_models.petrinet.TypingSemantics" xlink:title="TypingSemantics" target="_top">
<polygon fill="white" stroke="black" stroke-width="0.5" points="1242.5,-129 1143.5,-129 1143.5,-110 1242.5,-110 1242.5,-129"/>
<text text-anchor="middle" x="1193" y="-117" font-family="Vera Sans, DejaVu Sans, Liberation Sans, Arial, Helvetica, sans" font-size="10.00">TypingSemantics</text>
</a>
</g>
</g>
<!-- BaseModel&#45;&gt;TypingSemantics -->
<g id="edge22" class="edge">
<title>BaseModel&#45;&gt;TypingSemantics</title>
<path fill="none" stroke="#6ab0de" stroke-width="3" d="M730.62,-170.4C805.44,-163.78 984.4,-147.35 1134,-129 1135.44,-128.82 1136.91,-128.64 1138.38,-128.45"/>
<polygon fill="#6ab0de" stroke="#6ab0de" stroke-width="3" points="1138.71,-130.17 1143.45,-127.79 1138.26,-126.7 1138.71,-130.17"/>
</g>
<!-- Unit -->
<g id="node24" class="node">
<title>Unit</title>
<g id="a_node24"><a xlink:href="../funman.model.generated_models.html#funman.model.generated_models.petrinet.Unit" xlink:title="Unit" target="_top">
<polygon fill="white" stroke="black" stroke-width="0.5" points="1315,-129 1261,-129 1261,-110 1315,-110 1315,-129"/>
<text text-anchor="middle" x="1288" y="-117" font-family="Vera Sans, DejaVu Sans, Liberation Sans, Arial, Helvetica, sans" font-size="10.00">Unit</text>
</a>
</g>
</g>
<!-- BaseModel&#45;&gt;Unit -->
<g id="edge23" class="edge">
<title>BaseModel&#45;&gt;Unit</title>
<path fill="none" stroke="#6ab0de" stroke-width="3" d="M730.66,-172.45C819.2,-169.45 1056,-159.04 1251,-129 1252.47,-128.77 1253.96,-128.52 1255.47,-128.25"/>
<polygon fill="#6ab0de" stroke="#6ab0de" stroke-width="3" points="1256.03,-129.93 1260.61,-127.26 1255.37,-126.49 1256.03,-129.93"/>
</g>
<!-- Generic -->
<g id="node3" class="node">
<title>Generic</title>
<g id="a_node3"><a xlink:title="Abstract base class for generic types.">
<polygon fill="white" stroke="black" stroke-width="0.5" points="1395,-184 1341,-184 1341,-165 1395,-165 1395,-184"/>
<text text-anchor="middle" x="1368" y="-172" font-family="Vera Sans, DejaVu Sans, Liberation Sans, Arial, Helvetica, sans" font-size="10.00">Generic</text>
</a>
</g>
</g>
<!-- Generic&#45;&gt;RootModel -->
<g id="edge13" class="edge">
<title>Generic&#45;&gt;RootModel</title>
<path fill="none" stroke="#6ab0de" stroke-width="3" d="M1368,-164.75C1368,-156.41 1368,-143.74 1368,-134.09"/>
<polygon fill="#6ab0de" stroke="#6ab0de" stroke-width="3" points="1369.75,-134.09 1368,-129.09 1366.25,-134.09 1369.75,-134.09"/>
</g>
<!-- Initial -->
<g id="node6" class="node">
<title>Initial</title>
<g id="a_node6"><a xlink:href="../funman.model.generated_models.html#funman.model.generated_models.petrinet.Initial" xlink:title="Initial" target="_top">
<polygon fill="white" stroke="black" stroke-width="0.5" points="304,-74 250,-74 250,-55 304,-55 304,-74"/>
<text text-anchor="middle" x="277" y="-62" font-family="Vera Sans, DejaVu Sans, Liberation Sans, Arial, Helvetica, sans" font-size="10.00">Initial</text>
</a>
</g>
</g>
<!-- Rate&#45;&gt;Initial -->
<g id="edge4" class="edge">
<title>Rate&#45;&gt;Initial</title>
<path fill="none" stroke="#6ab0de" stroke-width="3" d="M277,-109.75C277,-101.41 277,-88.74 277,-79.09"/>
<polygon fill="#6ab0de" stroke="#6ab0de" stroke-width="3" points="278.75,-79.09 277,-74.09 275.25,-79.09 278.75,-79.09"/>
</g>
<!-- State]] -->
<g id="node17" class="node">
<title>State]]</title>
<polygon fill="white" stroke="black" stroke-width="0.5" points="1354,-74 1300,-74 1300,-55 1354,-55 1354,-74"/>
<text text-anchor="middle" x="1327" y="-62" font-family="Vera Sans, DejaVu Sans, Liberation Sans, Arial, Helvetica, sans" font-size="10.00">State]]</text>
</g>
<!-- RootModel&#45;&gt;State]] -->
<g id="edge16" class="edge">
<title>RootModel&#45;&gt;State]]</title>
<path fill="none" stroke="#6ab0de" stroke-width="3" d="M1361.23,-109.75C1354.6,-101.18 1344.43,-88.03 1336.9,-78.3"/>
<polygon fill="#6ab0de" stroke="#6ab0de" stroke-width="3" points="1338.09,-76.97 1333.64,-74.09 1335.32,-79.11 1338.09,-76.97"/>
</g>
<!-- Transition]] -->
<g id="node21" class="node">
<title>Transition]]</title>
<polygon fill="white" stroke="black" stroke-width="0.5" points="1443.5,-74 1372.5,-74 1372.5,-55 1443.5,-55 1443.5,-74"/>
<text text-anchor="middle" x="1408" y="-62" font-family="Vera Sans, DejaVu Sans, Liberation Sans, Arial, Helvetica, sans" font-size="10.00">Transition]]</text>
</g>
<!-- RootModel&#45;&gt;Transition]] -->
<g id="edge20" class="edge">
<title>RootModel&#45;&gt;Transition]]</title>
<path fill="none" stroke="#6ab0de" stroke-width="3" d="M1374.61,-109.75C1381.07,-101.18 1390.99,-88.03 1398.34,-78.3"/>
<polygon fill="#6ab0de" stroke="#6ab0de" stroke-width="3" points="1399.9,-79.13 1401.52,-74.09 1397.11,-77.03 1399.9,-79.13"/>
</g>
<!-- States -->
<g id="node18" class="node">
<title>States</title>
<g id="a_node18"><a xlink:href="../funman.model.generated_models.html#funman.model.generated_models.petrinet.States" xlink:title="States" target="_top">
<polygon fill="white" stroke="black" stroke-width="0.5" points="1354,-19 1300,-19 1300,0 1354,0 1354,-19"/>
<text text-anchor="middle" x="1327" y="-7" font-family="Vera Sans, DejaVu Sans, Liberation Sans, Arial, Helvetica, sans" font-size="10.00">States</text>
</a>
</g>
</g>
<!-- State]]&#45;&gt;States -->
<g id="edge17" class="edge">
<title>State]]&#45;&gt;States</title>
<path fill="none" stroke="#6ab0de" stroke-width="3" d="M1327,-54.75C1327,-46.41 1327,-33.74 1327,-24.09"/>
<polygon fill="#6ab0de" stroke="#6ab0de" stroke-width="3" points="1328.75,-24.09 1327,-19.09 1325.25,-24.09 1328.75,-24.09"/>
</g>
<!-- Transitions -->
<g id="node22" class="node">
<title>Transitions</title>
<g id="a_node22"><a xlink:href="../funman.model.generated_models.html#funman.model.generated_models.petrinet.Transitions" xlink:title="Transitions" target="_top">
<polygon fill="white" stroke="black" stroke-width="0.5" points="1442.5,-19 1373.5,-19 1373.5,0 1442.5,0 1442.5,-19"/>
<text text-anchor="middle" x="1408" y="-7" font-family="Vera Sans, DejaVu Sans, Liberation Sans, Arial, Helvetica, sans" font-size="10.00">Transitions</text>
</a>
</g>
</g>
<!-- Transition]]&#45;&gt;Transitions -->
<g id="edge21" class="edge">
<title>Transition]]&#45;&gt;Transitions</title>
<path fill="none" stroke="#6ab0de" stroke-width="3" d="M1408,-54.75C1408,-46.41 1408,-33.74 1408,-24.09"/>
<polygon fill="#6ab0de" stroke="#6ab0de" stroke-width="3" points="1409.75,-24.09 1408,-19.09 1406.25,-24.09 1409.75,-24.09"/>
</g>
</g>
</svg>
