<?xml version="1.0" encoding="UTF-8" standalone="no"?>
<!DOCTYPE svg PUBLIC "-//W3C//DTD SVG 1.1//EN"
 "http://www.w3.org/Graphics/SVG/1.1/DTD/svg11.dtd">
<!-- Generated by graphviz version 2.43.0 (0)
 -->
<!-- Title: inheritance02552982d8 Pages: 1 -->
<svg width="537pt" height="192pt"
 viewBox="0.00 0.00 536.50 192.00" xmlns="http://www.w3.org/2000/svg" xmlns:xlink="http://www.w3.org/1999/xlink">
<g id="graph0" class="graph" transform="scale(1 1) rotate(0) translate(4 188)">
<title>inheritance02552982d8</title>
<!-- BaseModel -->
<g id="node1" class="node">
<title>BaseModel</title>
<g id="a_node1"><a xlink:title="Usage docs: https://docs.pydantic.dev/2.4/concepts/models/">
<polygon fill="white" stroke="black" stroke-width="0.5" points="328,-184 257,-184 257,-165 328,-165 328,-184"/>
<text text-anchor="middle" x="292.5" y="-172" font-family="Vera Sans, DejaVu Sans, Liberation Sans, Arial, Helvetica, sans" font-size="10.00">BaseModel</text>
</a>
</g>
</g>
<!-- Constraint -->
<g id="node2" class="node">
<title>Constraint</title>
<g id="a_node2"><a xlink:href="../funman.representation.html#funman.representation.constraint.Constraint" xlink:title="Constraint" target="_top">
<polygon fill="white" stroke="black" stroke-width="0.5" points="326,-129 259,-129 259,-110 326,-110 326,-129"/>
<text text-anchor="middle" x="292.5" y="-117" font-family="Vera Sans, DejaVu Sans, Liberation Sans, Arial, Helvetica, sans" font-size="10.00">Constraint</text>
</a>
</g>
</g>
<!-- BaseModel&#45;&gt;Constraint -->
<g id="edge1" class="edge">
<title>BaseModel&#45;&gt;Constraint</title>
<path fill="none" stroke="#6ab0de" stroke-width="3" d="M292.5,-164.75C292.5,-156.41 292.5,-143.74 292.5,-134.09"/>
<polygon fill="#6ab0de" stroke="#6ab0de" stroke-width="3" points="294.25,-134.09 292.5,-129.09 290.75,-134.09 294.25,-134.09"/>
</g>
<!-- TimedConstraint -->
<g id="node4" class="node">
<title>TimedConstraint</title>
<g id="a_node4"><a xlink:href="../funman.representation.html#funman.representation.constraint.TimedConstraint" xlink:title="TimedConstraint" target="_top">
<polygon fill="white" stroke="black" stroke-width="0.5" points="163.5,-74 65.5,-74 65.5,-55 163.5,-55 163.5,-74"/>
<text text-anchor="middle" x="114.5" y="-62" font-family="Vera Sans, DejaVu Sans, Liberation Sans, Arial, Helvetica, sans" font-size="10.00">TimedConstraint</text>
</a>
</g>
</g>
<!-- Constraint&#45;&gt;TimedConstraint -->
<g id="edge7" class="edge">
<title>Constraint&#45;&gt;TimedConstraint</title>
<path fill="none" stroke="#6ab0de" stroke-width="3" d="M263.9,-109.98C232.34,-100.59 181.58,-85.47 148.13,-75.51"/>
<polygon fill="#6ab0de" stroke="#6ab0de" stroke-width="3" points="148.61,-73.83 143.32,-74.08 147.62,-77.19 148.61,-73.83"/>
</g>
<!-- ModelConstraint -->
<g id="node5" class="node">
<title>ModelConstraint</title>
<g id="a_node5"><a xlink:href="../funman.representation.html#funman.representation.constraint.ModelConstraint" xlink:title="ModelConstraint" target="_top">
<polygon fill="white" stroke="black" stroke-width="0.5" points="279,-74 182,-74 182,-55 279,-55 279,-74"/>
<text text-anchor="middle" x="230.5" y="-62" font-family="Vera Sans, DejaVu Sans, Liberation Sans, Arial, Helvetica, sans" font-size="10.00">ModelConstraint</text>
</a>
</g>
</g>
<!-- Constraint&#45;&gt;ModelConstraint -->
<g id="edge3" class="edge">
<title>Constraint&#45;&gt;ModelConstraint</title>
<path fill="none" stroke="#6ab0de" stroke-width="3" d="M282.54,-109.98C272.3,-101.23 256.25,-87.51 244.68,-77.62"/>
<polygon fill="#6ab0de" stroke="#6ab0de" stroke-width="3" points="245.58,-76.09 240.64,-74.17 243.31,-78.75 245.58,-76.09"/>
</g>
<!-- ParameterConstraint -->
<g id="node6" class="node">
<title>ParameterConstraint</title>
<g id="a_node6"><a xlink:href="../funman.representation.html#funman.representation.constraint.ParameterConstraint" xlink:title="ParameterConstraint" target="_top">
<polygon fill="white" stroke="black" stroke-width="0.5" points="414,-74 297,-74 297,-55 414,-55 414,-74"/>
<text text-anchor="middle" x="355.5" y="-62" font-family="Vera Sans, DejaVu Sans, Liberation Sans, Arial, Helvetica, sans" font-size="10.00">ParameterConstraint</text>
</a>
</g>
</g>
<!-- Constraint&#45;&gt;ParameterConstraint -->
<g id="edge4" class="edge">
<title>Constraint&#45;&gt;ParameterConstraint</title>
<path fill="none" stroke="#6ab0de" stroke-width="3" d="M302.62,-109.98C313.03,-101.23 329.34,-87.51 341.09,-77.62"/>
<polygon fill="#6ab0de" stroke="#6ab0de" stroke-width="3" points="342.49,-78.73 345.19,-74.17 340.24,-76.05 342.49,-78.73"/>
</g>
<!-- QueryConstraint -->
<g id="node7" class="node">
<title>QueryConstraint</title>
<g id="a_node7"><a xlink:href="../funman.representation.html#funman.representation.constraint.QueryConstraint" xlink:title="QueryConstraint" target="_top">
<polygon fill="white" stroke="black" stroke-width="0.5" points="528.5,-74 432.5,-74 432.5,-55 528.5,-55 528.5,-74"/>
<text text-anchor="middle" x="480.5" y="-62" font-family="Vera Sans, DejaVu Sans, Liberation Sans, Arial, Helvetica, sans" font-size="10.00">QueryConstraint</text>
</a>
</g>
</g>
<!-- Constraint&#45;&gt;QueryConstraint -->
<g id="edge5" class="edge">
<title>Constraint&#45;&gt;QueryConstraint</title>
<path fill="none" stroke="#6ab0de" stroke-width="3" d="M322.71,-109.98C356.04,-100.59 409.66,-85.47 444.98,-75.51"/>
<polygon fill="#6ab0de" stroke="#6ab0de" stroke-width="3" points="445.72,-77.12 450.06,-74.08 444.77,-73.75 445.72,-77.12"/>
</g>
<!-- LinearConstraint -->
<g id="node3" class="node">
<title>LinearConstraint</title>
<g id="a_node3"><a xlink:href="../funman.representation.html#funman.representation.constraint.LinearConstraint" xlink:title="LinearConstraint" target="_top">
<polygon fill="white" stroke="black" stroke-width="0.5" points="97,-19 0,-19 0,0 97,0 97,-19"/>
<text text-anchor="middle" x="48.5" y="-7" font-family="Vera Sans, DejaVu Sans, Liberation Sans, Arial, Helvetica, sans" font-size="10.00">LinearConstraint</text>
</a>
</g>
</g>
<!-- TimedConstraint&#45;&gt;LinearConstraint -->
<g id="edge2" class="edge">
<title>TimedConstraint&#45;&gt;LinearConstraint</title>
<path fill="none" stroke="#6ab0de" stroke-width="3" d="M103.9,-54.98C92.9,-46.15 75.61,-32.27 63.27,-22.36"/>
<polygon fill="#6ab0de" stroke="#6ab0de" stroke-width="3" points="64.29,-20.94 59.3,-19.17 62.1,-23.67 64.29,-20.94"/>
</g>
<!-- StateVariableConstraint -->
<g id="node8" class="node">
<title>StateVariableConstraint</title>
<g id="a_node8"><a xlink:href="../funman.representation.html#funman.representation.constraint.StateVariableConstraint" xlink:title="StateVariableConstraint" target="_top">
<polygon fill="white" stroke="black" stroke-width="0.5" points="247.5,-19 115.5,-19 115.5,0 247.5,0 247.5,-19"/>
<text text-anchor="middle" x="181.5" y="-7" font-family="Vera Sans, DejaVu Sans, Liberation Sans, Arial, Helvetica, sans" font-size="10.00">StateVariableConstraint</text>
</a>
</g>
</g>
<!-- TimedConstraint&#45;&gt;StateVariableConstraint -->
<g id="edge6" class="edge">
<title>TimedConstraint&#45;&gt;StateVariableConstraint</title>
<path fill="none" stroke="#6ab0de" stroke-width="3" d="M125.26,-54.98C136.43,-46.15 153.98,-32.27 166.5,-22.36"/>
<polygon fill="#6ab0de" stroke="#6ab0de" stroke-width="3" points="167.7,-23.64 170.54,-19.17 165.53,-20.9 167.7,-23.64"/>
</g>
</g>
</svg>
