<?xml version="1.0" encoding="UTF-8" standalone="no"?>
<!DOCTYPE svg PUBLIC "-//W3C//DTD SVG 1.1//EN"
 "http://www.w3.org/Graphics/SVG/1.1/DTD/svg11.dtd">
<!-- Generated by graphviz version 2.43.0 (0)
 -->
<!-- Title: inheritance8a36b9cba3 Pages: 1 -->
<svg width="152pt" height="82pt"
 viewBox="0.00 0.00 151.50 82.00" xmlns="http://www.w3.org/2000/svg" xmlns:xlink="http://www.w3.org/1999/xlink">
<g id="graph0" class="graph" transform="scale(1 1) rotate(0) translate(4 78)">
<title>inheritance8a36b9cba3</title>
<!-- BaseModel -->
<g id="node1" class="node">
<title>BaseModel</title>
<g id="a_node1"><a xlink:title="Usage docs: https://docs.pydantic.dev/2.9/concepts/models/">
<polygon fill="white" stroke="black" stroke-width="0.5" points="102.5,-74 31.5,-74 31.5,-55 102.5,-55 102.5,-74"/>
<text text-anchor="middle" x="67" y="-62" font-family="Vera Sans, DejaVu Sans, Liberation Sans, Arial, Helvetica, sans" font-size="10.00">BaseModel</text>
</a>
</g>
</g>
<!-- Point -->
<g id="node2" class="node">
<title>Point</title>
<g id="a_node2"><a xlink:href="../funman.representation.html#funman.representation.representation.Point" xlink:title="Point" target="_top">
<polygon fill="white" stroke="black" stroke-width="0.5" points="54,-19 0,-19 0,0 54,0 54,-19"/>
<text text-anchor="middle" x="27" y="-7" font-family="Vera Sans, DejaVu Sans, Liberation Sans, Arial, Helvetica, sans" font-size="10.00">Point</text>
</a>
</g>
</g>
<!-- BaseModel&#45;&gt;Point -->
<g id="edge1" class="edge">
<title>BaseModel&#45;&gt;Point</title>
<path fill="none" stroke="#6ab0de" stroke-width="3" d="M60.39,-54.75C53.93,-46.18 44.01,-33.03 36.66,-23.3"/>
<polygon fill="#6ab0de" stroke="#6ab0de" stroke-width="3" points="37.89,-22.03 33.48,-19.09 35.1,-24.13 37.89,-22.03"/>
</g>
<!-- Timeseries -->
<g id="node3" class="node">
<title>Timeseries</title>
<g id="a_node3"><a xlink:href="../funman.representation.html#funman.representation.representation.Timeseries" xlink:title="Timeseries" target="_top">
<polygon fill="white" stroke="black" stroke-width="0.5" points="143.5,-19 72.5,-19 72.5,0 143.5,0 143.5,-19"/>
<text text-anchor="middle" x="108" y="-7" font-family="Vera Sans, DejaVu Sans, Liberation Sans, Arial, Helvetica, sans" font-size="10.00">Timeseries</text>
</a>
</g>
</g>
<!-- BaseModel&#45;&gt;Timeseries -->
<g id="edge2" class="edge">
<title>BaseModel&#45;&gt;Timeseries</title>
<path fill="none" stroke="#6ab0de" stroke-width="3" d="M73.77,-54.75C80.4,-46.18 90.57,-33.03 98.1,-23.3"/>
<polygon fill="#6ab0de" stroke="#6ab0de" stroke-width="3" points="99.68,-24.11 101.36,-19.09 96.91,-21.97 99.68,-24.11"/>
</g>
</g>
</svg>
