<?xml version="1.0" encoding="UTF-8" standalone="no"?>
<!DOCTYPE svg PUBLIC "-//W3C//DTD SVG 1.1//EN"
 "http://www.w3.org/Graphics/SVG/1.1/DTD/svg11.dtd">
<!-- Generated by graphviz version 2.43.0 (0)
 -->
<!-- Title: inheritance0dd246bf9e Pages: 1 -->
<svg width="618pt" height="82pt"
 viewBox="0.00 0.00 617.50 82.00" xmlns="http://www.w3.org/2000/svg" xmlns:xlink="http://www.w3.org/1999/xlink">
<g id="graph0" class="graph" transform="scale(1 1) rotate(0) translate(4 78)">
<title>inheritance0dd246bf9e</title>
<!-- BaseModel -->
<g id="node1" class="node">
<title>BaseModel</title>
<g id="a_node1"><a xlink:title="Usage docs: https://docs.pydantic.dev/2.9/concepts/models/">
<polygon fill="white" stroke="black" stroke-width="0.5" points="324.5,-74 253.5,-74 253.5,-55 324.5,-55 324.5,-74"/>
<text text-anchor="middle" x="289" y="-62" font-family="Vera Sans, DejaVu Sans, Liberation Sans, Arial, Helvetica, sans" font-size="10.00">BaseModel</text>
</a>
</g>
</g>
<!-- FunmanProgress -->
<g id="node2" class="node">
<title>FunmanProgress</title>
<g id="a_node2"><a xlink:href="../funman.server.html#funman.server.query.FunmanProgress" xlink:title="FunmanProgress" target="_top">
<polygon fill="white" stroke="black" stroke-width="0.5" points="98,-19 0,-19 0,0 98,0 98,-19"/>
<text text-anchor="middle" x="49" y="-7" font-family="Vera Sans, DejaVu Sans, Liberation Sans, Arial, Helvetica, sans" font-size="10.00">FunmanProgress</text>
</a>
</g>
</g>
<!-- BaseModel&#45;&gt;FunmanProgress -->
<g id="edge1" class="edge">
<title>BaseModel&#45;&gt;FunmanProgress</title>
<path fill="none" stroke="#6ab0de" stroke-width="3" d="M253.33,-55.62C210.49,-46.16 138.67,-30.3 92.59,-20.13"/>
<polygon fill="#6ab0de" stroke="#6ab0de" stroke-width="3" points="92.91,-18.41 87.65,-19.04 92.16,-21.82 92.91,-18.41"/>
</g>
<!-- FunmanResults -->
<g id="node3" class="node">
<title>FunmanResults</title>
<g id="a_node3"><a xlink:href="../funman.server.html#funman.server.query.FunmanResults" xlink:title="FunmanResults" target="_top">
<polygon fill="white" stroke="black" stroke-width="0.5" points="208,-19 116,-19 116,0 208,0 208,-19"/>
<text text-anchor="middle" x="162" y="-7" font-family="Vera Sans, DejaVu Sans, Liberation Sans, Arial, Helvetica, sans" font-size="10.00">FunmanResults</text>
</a>
</g>
</g>
<!-- BaseModel&#45;&gt;FunmanResults -->
<g id="edge2" class="edge">
<title>BaseModel&#45;&gt;FunmanResults</title>
<path fill="none" stroke="#6ab0de" stroke-width="3" d="M268.6,-54.98C246.6,-45.81 211.54,-31.18 187.69,-21.22"/>
<polygon fill="#6ab0de" stroke="#6ab0de" stroke-width="3" points="188.06,-19.48 182.78,-19.17 186.72,-22.71 188.06,-19.48"/>
</g>
<!-- FunmanResultsTiming -->
<g id="node4" class="node">
<title>FunmanResultsTiming</title>
<g id="a_node4"><a xlink:href="../funman.server.html#funman.server.query.FunmanResultsTiming" xlink:title="FunmanResultsTiming" target="_top">
<polygon fill="white" stroke="black" stroke-width="0.5" points="351.5,-19 226.5,-19 226.5,0 351.5,0 351.5,-19"/>
<text text-anchor="middle" x="289" y="-7" font-family="Vera Sans, DejaVu Sans, Liberation Sans, Arial, Helvetica, sans" font-size="10.00">FunmanResultsTiming</text>
</a>
</g>
</g>
<!-- BaseModel&#45;&gt;FunmanResultsTiming -->
<g id="edge3" class="edge">
<title>BaseModel&#45;&gt;FunmanResultsTiming</title>
<path fill="none" stroke="#6ab0de" stroke-width="3" d="M289,-54.75C289,-46.41 289,-33.74 289,-24.09"/>
<polygon fill="#6ab0de" stroke="#6ab0de" stroke-width="3" points="290.75,-24.09 289,-19.09 287.25,-24.09 290.75,-24.09"/>
</g>
<!-- FunmanWorkRequest -->
<g id="node5" class="node">
<title>FunmanWorkRequest</title>
<g id="a_node5"><a xlink:href="../funman.server.html#funman.server.query.FunmanWorkRequest" xlink:title="FunmanWorkRequest" target="_top">
<polygon fill="white" stroke="black" stroke-width="0.5" points="490,-19 370,-19 370,0 490,0 490,-19"/>
<text text-anchor="middle" x="430" y="-7" font-family="Vera Sans, DejaVu Sans, Liberation Sans, Arial, Helvetica, sans" font-size="10.00">FunmanWorkRequest</text>
</a>
</g>
</g>
<!-- BaseModel&#45;&gt;FunmanWorkRequest -->
<g id="edge4" class="edge">
<title>BaseModel&#45;&gt;FunmanWorkRequest</title>
<path fill="none" stroke="#6ab0de" stroke-width="3" d="M311.65,-54.98C336.28,-45.73 375.65,-30.93 402.14,-20.97"/>
<polygon fill="#6ab0de" stroke="#6ab0de" stroke-width="3" points="402.87,-22.57 406.93,-19.17 401.64,-19.29 402.87,-22.57"/>
</g>
<!-- FunmanWorkUnit -->
<g id="node6" class="node">
<title>FunmanWorkUnit</title>
<g id="a_node6"><a xlink:href="../funman.server.html#funman.server.query.FunmanWorkUnit" xlink:title="Fields" target="_top">
<polygon fill="white" stroke="black" stroke-width="0.5" points="609.5,-19 508.5,-19 508.5,0 609.5,0 609.5,-19"/>
<text text-anchor="middle" x="559" y="-7" font-family="Vera Sans, DejaVu Sans, Liberation Sans, Arial, Helvetica, sans" font-size="10.00">FunmanWorkUnit</text>
</a>
</g>
</g>
<!-- BaseModel&#45;&gt;FunmanWorkUnit -->
<g id="edge5" class="edge">
<title>BaseModel&#45;&gt;FunmanWorkUnit</title>
<path fill="none" stroke="#6ab0de" stroke-width="3" d="M324.58,-56.52C372.16,-47.18 456.71,-30.58 510.21,-20.08"/>
<polygon fill="#6ab0de" stroke="#6ab0de" stroke-width="3" points="510.72,-21.76 515.29,-19.08 510.05,-18.33 510.72,-21.76"/>
</g>
</g>
</svg>
