<?xml version="1.0" encoding="UTF-8" standalone="no"?>
<!DOCTYPE svg PUBLIC "-//W3C//DTD SVG 1.1//EN"
 "http://www.w3.org/Graphics/SVG/1.1/DTD/svg11.dtd">
<!-- Generated by graphviz version 2.43.0 (0)
 -->
<!-- Title: inheritance311f46ea7b Pages: 1 -->
<svg width="334pt" height="137pt"
 viewBox="0.00 0.00 333.50 137.00" xmlns="http://www.w3.org/2000/svg" xmlns:xlink="http://www.w3.org/1999/xlink">
<g id="graph0" class="graph" transform="scale(1 1) rotate(0) translate(4 133)">
<title>inheritance311f46ea7b</title>
<!-- ABC -->
<g id="node1" class="node">
<title>ABC</title>
<g id="a_node1"><a xlink:title="Helper class that provides a standard way to create an ABC using">
<polygon fill="white" stroke="black" stroke-width="0.5" points="221,-129 167,-129 167,-110 221,-110 221,-129"/>
<text text-anchor="middle" x="194" y="-117" font-family="Vera Sans, DejaVu Sans, Liberation Sans, Arial, Helvetica, sans" font-size="10.00">ABC</text>
</a>
</g>
</g>
<!-- AnalysisScenario -->
<g id="node2" class="node">
<title>AnalysisScenario</title>
<g id="a_node2"><a xlink:href="../funman.scenario.html#funman.scenario.scenario.AnalysisScenario" xlink:title="Abstract class for Analysis Scenarios." target="_top">
<polygon fill="white" stroke="black" stroke-width="0.5" points="176,-74 76,-74 76,-55 176,-55 176,-74"/>
<text text-anchor="middle" x="126" y="-62" font-family="Vera Sans, DejaVu Sans, Liberation Sans, Arial, Helvetica, sans" font-size="10.00">AnalysisScenario</text>
</a>
</g>
</g>
<!-- ABC&#45;&gt;AnalysisScenario -->
<g id="edge1" class="edge">
<title>ABC&#45;&gt;AnalysisScenario</title>
<path fill="none" stroke="#6ab0de" stroke-width="3" d="M183.07,-109.98C171.74,-101.15 153.93,-87.27 141.22,-77.36"/>
<polygon fill="#6ab0de" stroke="#6ab0de" stroke-width="3" points="142.14,-75.86 137.12,-74.17 139.99,-78.62 142.14,-75.86"/>
</g>
<!-- AnalysisScenarioResult -->
<g id="node4" class="node">
<title>AnalysisScenarioResult</title>
<g id="a_node4"><a xlink:href="../funman.scenario.html#funman.scenario.scenario.AnalysisScenarioResult" xlink:title="Abstract class for AnalysisScenario result data." target="_top">
<polygon fill="white" stroke="black" stroke-width="0.5" points="325.5,-74 194.5,-74 194.5,-55 325.5,-55 325.5,-74"/>
<text text-anchor="middle" x="260" y="-62" font-family="Vera Sans, DejaVu Sans, Liberation Sans, Arial, Helvetica, sans" font-size="10.00">AnalysisScenarioResult</text>
</a>
</g>
</g>
<!-- ABC&#45;&gt;AnalysisScenarioResult -->
<g id="edge3" class="edge">
<title>ABC&#45;&gt;AnalysisScenarioResult</title>
<path fill="none" stroke="#6ab0de" stroke-width="3" d="M204.6,-109.98C215.6,-101.15 232.89,-87.27 245.23,-77.36"/>
<polygon fill="#6ab0de" stroke="#6ab0de" stroke-width="3" points="246.4,-78.67 249.2,-74.17 244.21,-75.94 246.4,-78.67"/>
</g>
<!-- ConsistencyScenario -->
<g id="node5" class="node">
<title>ConsistencyScenario</title>
<g id="a_node5"><a xlink:href="../funman.scenario.html#funman.scenario.consistency.ConsistencyScenario" xlink:title="The ConsistencyScenario class is an Analysis Scenario that analyzes a Model to find assignments to all variables, if consistent." target="_top">
<polygon fill="white" stroke="black" stroke-width="0.5" points="118,-19 0,-19 0,0 118,0 118,-19"/>
<text text-anchor="middle" x="59" y="-7" font-family="Vera Sans, DejaVu Sans, Liberation Sans, Arial, Helvetica, sans" font-size="10.00">ConsistencyScenario</text>
</a>
</g>
</g>
<!-- AnalysisScenario&#45;&gt;ConsistencyScenario -->
<g id="edge4" class="edge">
<title>AnalysisScenario&#45;&gt;ConsistencyScenario</title>
<path fill="none" stroke="#6ab0de" stroke-width="3" d="M115.24,-54.98C104.07,-46.15 86.52,-32.27 74,-22.36"/>
<polygon fill="#6ab0de" stroke="#6ab0de" stroke-width="3" points="74.97,-20.9 69.96,-19.17 72.8,-23.64 74.97,-20.9"/>
</g>
<!-- BaseModel -->
<g id="node3" class="node">
<title>BaseModel</title>
<g id="a_node3"><a xlink:title="Usage docs: https://docs.pydantic.dev/2.9/concepts/models/">
<polygon fill="white" stroke="black" stroke-width="0.5" points="83.5,-129 12.5,-129 12.5,-110 83.5,-110 83.5,-129"/>
<text text-anchor="middle" x="48" y="-117" font-family="Vera Sans, DejaVu Sans, Liberation Sans, Arial, Helvetica, sans" font-size="10.00">BaseModel</text>
</a>
</g>
</g>
<!-- BaseModel&#45;&gt;AnalysisScenario -->
<g id="edge2" class="edge">
<title>BaseModel&#45;&gt;AnalysisScenario</title>
<path fill="none" stroke="#6ab0de" stroke-width="3" d="M60.53,-109.98C73.65,-101.07 94.32,-87.03 108.92,-77.11"/>
<polygon fill="#6ab0de" stroke="#6ab0de" stroke-width="3" points="110.09,-78.43 113.24,-74.17 108.12,-75.53 110.09,-78.43"/>
</g>
<!-- BaseModel&#45;&gt;ConsistencyScenario -->
<g id="edge5" class="edge">
<title>BaseModel&#45;&gt;ConsistencyScenario</title>
<path fill="none" stroke="#6ab0de" stroke-width="3" d="M43.48,-109.82C37.67,-97.55 28.91,-74.44 34,-55 36.99,-43.57 43.65,-31.98 49.34,-23.49"/>
<polygon fill="#6ab0de" stroke="#6ab0de" stroke-width="3" points="50.96,-24.22 52.37,-19.12 48.08,-22.23 50.96,-24.22"/>
</g>
<!-- ConsistencyScenarioResult -->
<g id="node6" class="node">
<title>ConsistencyScenarioResult</title>
<g id="a_node6"><a xlink:href="../funman.scenario.html#funman.scenario.consistency.ConsistencyScenarioResult" xlink:title="ConsistencyScenarioResult result, which includes the consistency flag and" target="_top">
<polygon fill="white" stroke="black" stroke-width="0.5" points="309.5,-19 160.5,-19 160.5,0 309.5,0 309.5,-19"/>
<text text-anchor="middle" x="235" y="-7" font-family="Vera Sans, DejaVu Sans, Liberation Sans, Arial, Helvetica, sans" font-size="10.00">ConsistencyScenarioResult</text>
</a>
</g>
</g>
<!-- BaseModel&#45;&gt;ConsistencyScenarioResult -->
<g id="edge7" class="edge">
<title>BaseModel&#45;&gt;ConsistencyScenarioResult</title>
<path fill="none" stroke="#6ab0de" stroke-width="3" d="M48.05,-109.75C48.63,-96.09 51.79,-69.73 67,-55 90.45,-32.28 124.09,-20.82 155.12,-15.16"/>
<polygon fill="#6ab0de" stroke="#6ab0de" stroke-width="3" points="155.45,-16.87 160.08,-14.3 154.85,-13.43 155.45,-16.87"/>
</g>
<!-- AnalysisScenarioResult&#45;&gt;ConsistencyScenarioResult -->
<g id="edge6" class="edge">
<title>AnalysisScenarioResult&#45;&gt;ConsistencyScenarioResult</title>
<path fill="none" stroke="#6ab0de" stroke-width="3" d="M255.87,-54.75C251.9,-46.34 245.85,-33.51 241.29,-23.83"/>
<polygon fill="#6ab0de" stroke="#6ab0de" stroke-width="3" points="242.77,-22.86 239.05,-19.09 239.6,-24.36 242.77,-22.86"/>
</g>
</g>
</svg>
