<?xml version="1.0" encoding="UTF-8" standalone="no"?>
<!DOCTYPE svg PUBLIC "-//W3C//DTD SVG 1.1//EN"
 "http://www.w3.org/Graphics/SVG/1.1/DTD/svg11.dtd">
<!-- Generated by graphviz version 2.43.0 (0)
 -->
<!-- Title: inheritance0dd246bf9e Pages: 1 -->
<svg width="474pt" height="82pt"
 viewBox="0.00 0.00 473.50 82.00" xmlns="http://www.w3.org/2000/svg" xmlns:xlink="http://www.w3.org/1999/xlink">
<g id="graph0" class="graph" transform="scale(1 1) rotate(0) translate(4 78)">
<title>inheritance0dd246bf9e</title>
<!-- BaseModel -->
<g id="node1" class="node">
<title>BaseModel</title>
<g id="a_node1"><a xlink:title="Usage docs: https://docs.pydantic.dev/2.4/concepts/models/">
<polygon fill="white" stroke="black" stroke-width="0.5" points="259.5,-74 188.5,-74 188.5,-55 259.5,-55 259.5,-74"/>
<text text-anchor="middle" x="224" y="-62" font-family="Vera Sans, DejaVu Sans, Liberation Sans, Arial, Helvetica, sans" font-size="10.00">BaseModel</text>
</a>
</g>
</g>
<!-- FunmanProgress -->
<g id="node2" class="node">
<title>FunmanProgress</title>
<g id="a_node2"><a xlink:href="../funman.server.html#funman.server.query.FunmanProgress" xlink:title="FunmanProgress" target="_top">
<polygon fill="white" stroke="black" stroke-width="0.5" points="98,-19 0,-19 0,0 98,0 98,-19"/>
<text text-anchor="middle" x="49" y="-7" font-family="Vera Sans, DejaVu Sans, Liberation Sans, Arial, Helvetica, sans" font-size="10.00">FunmanProgress</text>
</a>
</g>
</g>
<!-- BaseModel&#45;&gt;FunmanProgress -->
<g id="edge1" class="edge">
<title>BaseModel&#45;&gt;FunmanProgress</title>
<path fill="none" stroke="#6ab0de" stroke-width="3" d="M195.88,-54.98C164.98,-45.62 115.35,-30.6 82.47,-20.64"/>
<polygon fill="#6ab0de" stroke="#6ab0de" stroke-width="3" points="82.63,-18.86 77.34,-19.08 81.62,-22.21 82.63,-18.86"/>
</g>
<!-- FunmanResults -->
<g id="node3" class="node">
<title>FunmanResults</title>
<g id="a_node3"><a xlink:href="../funman.server.html#funman.server.query.FunmanResults" xlink:title="FunmanResults" target="_top">
<polygon fill="white" stroke="black" stroke-width="0.5" points="208,-19 116,-19 116,0 208,0 208,-19"/>
<text text-anchor="middle" x="162" y="-7" font-family="Vera Sans, DejaVu Sans, Liberation Sans, Arial, Helvetica, sans" font-size="10.00">FunmanResults</text>
</a>
</g>
</g>
<!-- BaseModel&#45;&gt;FunmanResults -->
<g id="edge2" class="edge">
<title>BaseModel&#45;&gt;FunmanResults</title>
<path fill="none" stroke="#6ab0de" stroke-width="3" d="M214.04,-54.98C203.8,-46.23 187.75,-32.51 176.18,-22.62"/>
<polygon fill="#6ab0de" stroke="#6ab0de" stroke-width="3" points="177.08,-21.09 172.14,-19.17 174.81,-23.75 177.08,-21.09"/>
</g>
<!-- FunmanWorkRequest -->
<g id="node4" class="node">
<title>FunmanWorkRequest</title>
<g id="a_node4"><a xlink:href="../funman.server.html#funman.server.query.FunmanWorkRequest" xlink:title="FunmanWorkRequest" target="_top">
<polygon fill="white" stroke="black" stroke-width="0.5" points="346,-19 226,-19 226,0 346,0 346,-19"/>
<text text-anchor="middle" x="286" y="-7" font-family="Vera Sans, DejaVu Sans, Liberation Sans, Arial, Helvetica, sans" font-size="10.00">FunmanWorkRequest</text>
</a>
</g>
</g>
<!-- BaseModel&#45;&gt;FunmanWorkRequest -->
<g id="edge3" class="edge">
<title>BaseModel&#45;&gt;FunmanWorkRequest</title>
<path fill="none" stroke="#6ab0de" stroke-width="3" d="M233.96,-54.98C244.2,-46.23 260.25,-32.51 271.82,-22.62"/>
<polygon fill="#6ab0de" stroke="#6ab0de" stroke-width="3" points="273.19,-23.75 275.86,-19.17 270.92,-21.09 273.19,-23.75"/>
</g>
<!-- FunmanWorkUnit -->
<g id="node5" class="node">
<title>FunmanWorkUnit</title>
<g id="a_node5"><a xlink:href="../funman.server.html#funman.server.query.FunmanWorkUnit" xlink:title="Fields" target="_top">
<polygon fill="white" stroke="black" stroke-width="0.5" points="465.5,-19 364.5,-19 364.5,0 465.5,0 465.5,-19"/>
<text text-anchor="middle" x="415" y="-7" font-family="Vera Sans, DejaVu Sans, Liberation Sans, Arial, Helvetica, sans" font-size="10.00">FunmanWorkUnit</text>
</a>
</g>
</g>
<!-- BaseModel&#45;&gt;FunmanWorkUnit -->
<g id="edge4" class="edge">
<title>BaseModel&#45;&gt;FunmanWorkUnit</title>
<path fill="none" stroke="#6ab0de" stroke-width="3" d="M254.69,-54.98C288.56,-45.59 343.03,-30.47 378.92,-20.51"/>
<polygon fill="#6ab0de" stroke="#6ab0de" stroke-width="3" points="379.72,-22.11 384.07,-19.08 378.79,-18.73 379.72,-22.11"/>
</g>
</g>
</svg>
