<?xml version="1.0" encoding="UTF-8" standalone="no"?>
<!DOCTYPE svg PUBLIC "-//W3C//DTD SVG 1.1//EN"
 "http://www.w3.org/Graphics/SVG/1.1/DTD/svg11.dtd">
<!-- Generated by graphviz version 2.43.0 (0)
 -->
<!-- Title: inheritance54d12d9f5f Pages: 1 -->
<svg width="274pt" height="137pt"
 viewBox="0.00 0.00 273.50 137.00" xmlns="http://www.w3.org/2000/svg" xmlns:xlink="http://www.w3.org/1999/xlink">
<g id="graph0" class="graph" transform="scale(1 1) rotate(0) translate(4 133)">
<title>inheritance54d12d9f5f</title>
<!-- BaseModel -->
<g id="node1" class="node">
<title>BaseModel</title>
<g id="a_node1"><a xlink:title="Usage docs: https://docs.pydantic.dev/2.4/concepts/models/">
<polygon fill="white" stroke="black" stroke-width="0.5" points="153,-129 82,-129 82,-110 153,-110 153,-129"/>
<text text-anchor="middle" x="117.5" y="-117" font-family="Vera Sans, DejaVu Sans, Liberation Sans, Arial, Helvetica, sans" font-size="10.00">BaseModel</text>
</a>
</g>
</g>
<!-- Explanation -->
<g id="node3" class="node">
<title>Explanation</title>
<g id="a_node3"><a xlink:href="../funman.representation.html#funman.representation.explanation.Explanation" xlink:title="Explanation" target="_top">
<polygon fill="white" stroke="black" stroke-width="0.5" points="154.5,-74 80.5,-74 80.5,-55 154.5,-55 154.5,-74"/>
<text text-anchor="middle" x="117.5" y="-62" font-family="Vera Sans, DejaVu Sans, Liberation Sans, Arial, Helvetica, sans" font-size="10.00">Explanation</text>
</a>
</g>
</g>
<!-- BaseModel&#45;&gt;Explanation -->
<g id="edge2" class="edge">
<title>BaseModel&#45;&gt;Explanation</title>
<path fill="none" stroke="#6ab0de" stroke-width="3" d="M117.5,-109.75C117.5,-101.41 117.5,-88.74 117.5,-79.09"/>
<polygon fill="#6ab0de" stroke="#6ab0de" stroke-width="3" points="119.25,-79.09 117.5,-74.09 115.75,-79.09 119.25,-79.09"/>
</g>
<!-- BoxExplanation -->
<g id="node2" class="node">
<title>BoxExplanation</title>
<g id="a_node2"><a xlink:href="../funman.representation.html#funman.representation.explanation.BoxExplanation" xlink:title="BoxExplanation" target="_top">
<polygon fill="white" stroke="black" stroke-width="0.5" points="93,-19 0,-19 0,0 93,0 93,-19"/>
<text text-anchor="middle" x="46.5" y="-7" font-family="Vera Sans, DejaVu Sans, Liberation Sans, Arial, Helvetica, sans" font-size="10.00">BoxExplanation</text>
</a>
</g>
</g>
<!-- Explanation&#45;&gt;BoxExplanation -->
<g id="edge1" class="edge">
<title>Explanation&#45;&gt;BoxExplanation</title>
<path fill="none" stroke="#6ab0de" stroke-width="3" d="M106.09,-54.98C94.26,-46.15 75.66,-32.27 62.39,-22.36"/>
<polygon fill="#6ab0de" stroke="#6ab0de" stroke-width="3" points="63.17,-20.76 58.11,-19.17 61.07,-23.56 63.17,-20.76"/>
</g>
<!-- ParameterSpaceExplanation -->
<g id="node4" class="node">
<title>ParameterSpaceExplanation</title>
<g id="a_node4"><a xlink:href="../funman.representation.html#funman.representation.explanation.ParameterSpaceExplanation" xlink:title="ParameterSpaceExplanation" target="_top">
<polygon fill="white" stroke="black" stroke-width="0.5" points="265.5,-19 111.5,-19 111.5,0 265.5,0 265.5,-19"/>
<text text-anchor="middle" x="188.5" y="-7" font-family="Vera Sans, DejaVu Sans, Liberation Sans, Arial, Helvetica, sans" font-size="10.00">ParameterSpaceExplanation</text>
</a>
</g>
</g>
<!-- Explanation&#45;&gt;ParameterSpaceExplanation -->
<g id="edge3" class="edge">
<title>Explanation&#45;&gt;ParameterSpaceExplanation</title>
<path fill="none" stroke="#6ab0de" stroke-width="3" d="M128.91,-54.98C140.74,-46.15 159.34,-32.27 172.61,-22.36"/>
<polygon fill="#6ab0de" stroke="#6ab0de" stroke-width="3" points="173.93,-23.56 176.89,-19.17 171.83,-20.76 173.93,-23.56"/>
</g>
</g>
</svg>
