<?xml version="1.0" encoding="UTF-8" standalone="no"?>
<!DOCTYPE svg PUBLIC "-//W3C//DTD SVG 1.1//EN"
 "http://www.w3.org/Graphics/SVG/1.1/DTD/svg11.dtd">
<!-- Generated by graphviz version 2.43.0 (0)
 -->
<!-- Title: inheritance35263aaa7f Pages: 1 -->
<svg width="844pt" height="192pt"
 viewBox="0.00 0.00 843.50 192.00" xmlns="http://www.w3.org/2000/svg" xmlns:xlink="http://www.w3.org/1999/xlink">
<g id="graph0" class="graph" transform="scale(1 1) rotate(0) translate(4 188)">
<title>inheritance35263aaa7f</title>
<!-- BaseModel -->
<g id="node1" class="node">
<title>BaseModel</title>
<g id="a_node1"><a xlink:title="Usage docs: https://docs.pydantic.dev/2.9/concepts/models/">
<polygon fill="white" stroke="black" stroke-width="0.5" points="485.5,-184 414.5,-184 414.5,-165 485.5,-165 485.5,-184"/>
<text text-anchor="middle" x="450" y="-172" font-family="Vera Sans, DejaVu Sans, Liberation Sans, Arial, Helvetica, sans" font-size="10.00">BaseModel</text>
</a>
</g>
</g>
<!-- BaseProperties -->
<g id="node2" class="node">
<title>BaseProperties</title>
<g id="a_node2"><a xlink:href="../funman.model.generated_models.html#funman.model.generated_models.regnet.BaseProperties" xlink:title="BaseProperties" target="_top">
<polygon fill="white" stroke="black" stroke-width="0.5" points="90,-129 0,-129 0,-110 90,-110 90,-129"/>
<text text-anchor="middle" x="45" y="-117" font-family="Vera Sans, DejaVu Sans, Liberation Sans, Arial, Helvetica, sans" font-size="10.00">BaseProperties</text>
</a>
</g>
</g>
<!-- BaseModel&#45;&gt;BaseProperties -->
<g id="edge1" class="edge">
<title>BaseModel&#45;&gt;BaseProperties</title>
<path fill="none" stroke="#6ab0de" stroke-width="3" d="M414.33,-169.34C350.84,-161.85 214.09,-145.35 99,-129 97.73,-128.82 96.43,-128.63 95.13,-128.44"/>
<polygon fill="#6ab0de" stroke="#6ab0de" stroke-width="3" points="95.27,-126.69 90.07,-127.7 94.76,-130.16 95.27,-126.69"/>
</g>
<!-- Distribution -->
<g id="node3" class="node">
<title>Distribution</title>
<g id="a_node3"><a xlink:href="../funman.model.generated_models.html#funman.model.generated_models.regnet.Distribution" xlink:title="Distribution" target="_top">
<polygon fill="white" stroke="black" stroke-width="0.5" points="182,-129 108,-129 108,-110 182,-110 182,-129"/>
<text text-anchor="middle" x="145" y="-117" font-family="Vera Sans, DejaVu Sans, Liberation Sans, Arial, Helvetica, sans" font-size="10.00">Distribution</text>
</a>
</g>
</g>
<!-- BaseModel&#45;&gt;Distribution -->
<g id="edge2" class="edge">
<title>BaseModel&#45;&gt;Distribution</title>
<path fill="none" stroke="#6ab0de" stroke-width="3" d="M414.36,-167.52C364.41,-159.11 270.73,-143.21 191,-129 189.74,-128.78 188.46,-128.55 187.17,-128.31"/>
<polygon fill="#6ab0de" stroke="#6ab0de" stroke-width="3" points="187.38,-126.57 182.15,-127.41 186.76,-130.02 187.38,-126.57"/>
</g>
<!-- SignedGraphElement -->
<g id="node5" class="node">
<title>SignedGraphElement</title>
<g id="a_node5"><a xlink:href="../funman.model.generated_models.html#funman.model.generated_models.regnet.SignedGraphElement" xlink:title="SignedGraphElement" target="_top">
<polygon fill="white" stroke="black" stroke-width="0.5" points="319.5,-129 200.5,-129 200.5,-110 319.5,-110 319.5,-129"/>
<text text-anchor="middle" x="260" y="-117" font-family="Vera Sans, DejaVu Sans, Liberation Sans, Arial, Helvetica, sans" font-size="10.00">SignedGraphElement</text>
</a>
</g>
</g>
<!-- BaseModel&#45;&gt;SignedGraphElement -->
<g id="edge13" class="edge">
<title>BaseModel&#45;&gt;SignedGraphElement</title>
<path fill="none" stroke="#6ab0de" stroke-width="3" d="M419.47,-164.98C385.78,-155.59 331.6,-140.47 295.89,-130.51"/>
<polygon fill="#6ab0de" stroke="#6ab0de" stroke-width="3" points="296.05,-128.74 290.77,-129.08 295.11,-132.11 296.05,-128.74"/>
</g>
<!-- Grounding -->
<g id="node7" class="node">
<title>Grounding</title>
<g id="a_node7"><a xlink:href="../funman.model.generated_models.html#funman.model.generated_models.regnet.Grounding" xlink:title="Grounding" target="_top">
<polygon fill="white" stroke="black" stroke-width="0.5" points="404.5,-129 337.5,-129 337.5,-110 404.5,-110 404.5,-129"/>
<text text-anchor="middle" x="371" y="-117" font-family="Vera Sans, DejaVu Sans, Liberation Sans, Arial, Helvetica, sans" font-size="10.00">Grounding</text>
</a>
</g>
</g>
<!-- BaseModel&#45;&gt;Grounding -->
<g id="edge4" class="edge">
<title>BaseModel&#45;&gt;Grounding</title>
<path fill="none" stroke="#6ab0de" stroke-width="3" d="M437.31,-164.98C424.03,-156.07 403.09,-142.03 388.3,-132.11"/>
<polygon fill="#6ab0de" stroke="#6ab0de" stroke-width="3" points="389.05,-130.5 383.92,-129.17 387.1,-133.41 389.05,-130.5"/>
</g>
<!-- Header -->
<g id="node8" class="node">
<title>Header</title>
<g id="a_node8"><a xlink:href="../funman.model.generated_models.html#funman.model.generated_models.regnet.Header" xlink:title="Header" target="_top">
<polygon fill="white" stroke="black" stroke-width="0.5" points="477,-129 423,-129 423,-110 477,-110 477,-129"/>
<text text-anchor="middle" x="450" y="-117" font-family="Vera Sans, DejaVu Sans, Liberation Sans, Arial, Helvetica, sans" font-size="10.00">Header</text>
</a>
</g>
</g>
<!-- BaseModel&#45;&gt;Header -->
<g id="edge5" class="edge">
<title>BaseModel&#45;&gt;Header</title>
<path fill="none" stroke="#6ab0de" stroke-width="3" d="M450,-164.75C450,-156.41 450,-143.74 450,-134.09"/>
<polygon fill="#6ab0de" stroke="#6ab0de" stroke-width="3" points="451.75,-134.09 450,-129.09 448.25,-134.09 451.75,-134.09"/>
</g>
<!-- Model -->
<g id="node9" class="node">
<title>Model</title>
<g id="a_node9"><a xlink:href="../funman.model.generated_models.html#funman.model.generated_models.regnet.Model" xlink:title="Model" target="_top">
<polygon fill="white" stroke="black" stroke-width="0.5" points="549,-129 495,-129 495,-110 549,-110 549,-129"/>
<text text-anchor="middle" x="522" y="-117" font-family="Vera Sans, DejaVu Sans, Liberation Sans, Arial, Helvetica, sans" font-size="10.00">Model</text>
</a>
</g>
</g>
<!-- BaseModel&#45;&gt;Model -->
<g id="edge6" class="edge">
<title>BaseModel&#45;&gt;Model</title>
<path fill="none" stroke="#6ab0de" stroke-width="3" d="M461.57,-164.98C473.57,-156.15 492.43,-142.27 505.88,-132.36"/>
<polygon fill="#6ab0de" stroke="#6ab0de" stroke-width="3" points="507.23,-133.54 510.22,-129.17 505.16,-130.73 507.23,-133.54"/>
</g>
<!-- Model1 -->
<g id="node10" class="node">
<title>Model1</title>
<g id="a_node10"><a xlink:href="../funman.model.generated_models.html#funman.model.generated_models.regnet.Model1" xlink:title="Model1" target="_top">
<polygon fill="white" stroke="black" stroke-width="0.5" points="621,-129 567,-129 567,-110 621,-110 621,-129"/>
<text text-anchor="middle" x="594" y="-117" font-family="Vera Sans, DejaVu Sans, Liberation Sans, Arial, Helvetica, sans" font-size="10.00">Model1</text>
</a>
</g>
</g>
<!-- BaseModel&#45;&gt;Model1 -->
<g id="edge7" class="edge">
<title>BaseModel&#45;&gt;Model1</title>
<path fill="none" stroke="#6ab0de" stroke-width="3" d="M473.14,-164.98C498.28,-155.73 538.49,-140.93 565.55,-130.97"/>
<polygon fill="#6ab0de" stroke="#6ab0de" stroke-width="3" points="566.36,-132.54 570.44,-129.17 565.15,-129.26 566.36,-132.54"/>
</g>
<!-- Parameter -->
<g id="node13" class="node">
<title>Parameter</title>
<g id="a_node13"><a xlink:href="../funman.model.generated_models.html#funman.model.generated_models.regnet.Parameter" xlink:title="Parameter" target="_top">
<polygon fill="white" stroke="black" stroke-width="0.5" points="706.5,-129 639.5,-129 639.5,-110 706.5,-110 706.5,-129"/>
<text text-anchor="middle" x="673" y="-117" font-family="Vera Sans, DejaVu Sans, Liberation Sans, Arial, Helvetica, sans" font-size="10.00">Parameter</text>
</a>
</g>
</g>
<!-- BaseModel&#45;&gt;Parameter -->
<g id="edge9" class="edge">
<title>BaseModel&#45;&gt;Parameter</title>
<path fill="none" stroke="#6ab0de" stroke-width="3" d="M485.83,-164.98C526.53,-155.31 592.69,-139.59 634.48,-129.66"/>
<polygon fill="#6ab0de" stroke="#6ab0de" stroke-width="3" points="634.99,-131.33 639.45,-128.47 634.18,-127.93 634.99,-131.33"/>
</g>
<!-- RootModel -->
<g id="node14" class="node">
<title>RootModel</title>
<g id="a_node14"><a xlink:title="Usage docs: https://docs.pydantic.dev/2.9/concepts/models/#rootmodel&#45;and&#45;custom&#45;root&#45;types">
<polygon fill="white" stroke="black" stroke-width="0.5" points="793.5,-129 724.5,-129 724.5,-110 793.5,-110 793.5,-129"/>
<text text-anchor="middle" x="759" y="-117" font-family="Vera Sans, DejaVu Sans, Liberation Sans, Arial, Helvetica, sans" font-size="10.00">RootModel</text>
</a>
</g>
</g>
<!-- BaseModel&#45;&gt;RootModel -->
<g id="edge10" class="edge">
<title>BaseModel&#45;&gt;RootModel</title>
<path fill="none" stroke="#6ab0de" stroke-width="3" d="M485.62,-167.8C536.55,-159.59 633.05,-143.79 715,-129 716.44,-128.74 717.9,-128.47 719.37,-128.2"/>
<polygon fill="#6ab0de" stroke="#6ab0de" stroke-width="3" points="719.83,-129.9 724.43,-127.26 719.19,-126.46 719.83,-129.9"/>
</g>
<!-- Vertice -->
<g id="node15" class="node">
<title>Vertice</title>
<g id="a_node15"><a xlink:href="../funman.model.generated_models.html#funman.model.generated_models.regnet.Vertice" xlink:title="Vertice" target="_top">
<polygon fill="white" stroke="black" stroke-width="0.5" points="144,-74 90,-74 90,-55 144,-55 144,-74"/>
<text text-anchor="middle" x="117" y="-62" font-family="Vera Sans, DejaVu Sans, Liberation Sans, Arial, Helvetica, sans" font-size="10.00">Vertice</text>
</a>
</g>
</g>
<!-- BaseProperties&#45;&gt;Vertice -->
<g id="edge15" class="edge">
<title>BaseProperties&#45;&gt;Vertice</title>
<path fill="none" stroke="#6ab0de" stroke-width="3" d="M56.57,-109.98C68.57,-101.15 87.43,-87.27 100.88,-77.36"/>
<polygon fill="#6ab0de" stroke="#6ab0de" stroke-width="3" points="102.23,-78.54 105.22,-74.17 100.16,-75.73 102.23,-78.54"/>
</g>
<!-- Edge -->
<g id="node4" class="node">
<title>Edge</title>
<g id="a_node4"><a xlink:href="../funman.model.generated_models.html#funman.model.generated_models.regnet.Edge" xlink:title="Edge" target="_top">
<polygon fill="white" stroke="black" stroke-width="0.5" points="287,-74 233,-74 233,-55 287,-55 287,-74"/>
<text text-anchor="middle" x="260" y="-62" font-family="Vera Sans, DejaVu Sans, Liberation Sans, Arial, Helvetica, sans" font-size="10.00">Edge</text>
</a>
</g>
</g>
<!-- SignedGraphElement&#45;&gt;Edge -->
<g id="edge3" class="edge">
<title>SignedGraphElement&#45;&gt;Edge</title>
<path fill="none" stroke="#6ab0de" stroke-width="3" d="M260,-109.75C260,-101.41 260,-88.74 260,-79.09"/>
<polygon fill="#6ab0de" stroke="#6ab0de" stroke-width="3" points="261.75,-79.09 260,-74.09 258.25,-79.09 261.75,-79.09"/>
</g>
<!-- SignedGraphElement&#45;&gt;Vertice -->
<g id="edge14" class="edge">
<title>SignedGraphElement&#45;&gt;Vertice</title>
<path fill="none" stroke="#6ab0de" stroke-width="3" d="M237.02,-109.98C212.05,-100.73 172.12,-85.93 145.25,-75.97"/>
<polygon fill="#6ab0de" stroke="#6ab0de" stroke-width="3" points="145.69,-74.27 140.39,-74.17 144.47,-77.55 145.69,-74.27"/>
</g>
<!-- Generic -->
<g id="node6" class="node">
<title>Generic</title>
<g id="a_node6"><a xlink:title="Abstract base class for generic types.">
<polygon fill="white" stroke="black" stroke-width="0.5" points="786,-184 732,-184 732,-165 786,-165 786,-184"/>
<text text-anchor="middle" x="759" y="-172" font-family="Vera Sans, DejaVu Sans, Liberation Sans, Arial, Helvetica, sans" font-size="10.00">Generic</text>
</a>
</g>
</g>
<!-- Generic&#45;&gt;RootModel -->
<g id="edge11" class="edge">
<title>Generic&#45;&gt;RootModel</title>
<path fill="none" stroke="#6ab0de" stroke-width="3" d="M759,-164.75C759,-156.41 759,-143.74 759,-134.09"/>
<polygon fill="#6ab0de" stroke="#6ab0de" stroke-width="3" points="760.75,-134.09 759,-129.09 757.25,-134.09 760.75,-134.09"/>
</g>
<!-- ParamOrNumber -->
<g id="node11" class="node">
<title>ParamOrNumber</title>
<g id="a_node11"><a xlink:href="../funman.model.generated_models.html#funman.model.generated_models.regnet.ParamOrNumber" xlink:title="ParamOrNumber" target="_top">
<polygon fill="white" stroke="black" stroke-width="0.5" points="808,-19 710,-19 710,0 808,0 808,-19"/>
<text text-anchor="middle" x="759" y="-7" font-family="Vera Sans, DejaVu Sans, Liberation Sans, Arial, Helvetica, sans" font-size="10.00">ParamOrNumber</text>
</a>
</g>
</g>
<!-- RootModel[Union[float, str]] -->
<g id="node12" class="node">
<title>RootModel[Union[float, str]]</title>
<polygon fill="white" stroke="black" stroke-width="0.5" points="835.5,-74 682.5,-74 682.5,-55 835.5,-55 835.5,-74"/>
<text text-anchor="middle" x="759" y="-62" font-family="Vera Sans, DejaVu Sans, Liberation Sans, Arial, Helvetica, sans" font-size="10.00">RootModel[Union[float, str]]</text>
</g>
<!-- RootModel[Union[float, str]]&#45;&gt;ParamOrNumber -->
<g id="edge8" class="edge">
<title>RootModel[Union[float, str]]&#45;&gt;ParamOrNumber</title>
<path fill="none" stroke="#6ab0de" stroke-width="3" d="M759,-54.75C759,-46.41 759,-33.74 759,-24.09"/>
<polygon fill="#6ab0de" stroke="#6ab0de" stroke-width="3" points="760.75,-24.09 759,-19.09 757.25,-24.09 760.75,-24.09"/>
</g>
<!-- RootModel&#45;&gt;RootModel[Union[float, str]] -->
<g id="edge12" class="edge">
<title>RootModel&#45;&gt;RootModel[Union[float, str]]</title>
<path fill="none" stroke="#6ab0de" stroke-width="3" d="M759,-109.75C759,-101.41 759,-88.74 759,-79.09"/>
<polygon fill="#6ab0de" stroke="#6ab0de" stroke-width="3" points="760.75,-79.09 759,-74.09 757.25,-79.09 760.75,-79.09"/>
</g>
</g>
</svg>
