<?xml version="1.0" encoding="UTF-8" standalone="no"?>
<!DOCTYPE svg PUBLIC "-//W3C//DTD SVG 1.1//EN"
 "http://www.w3.org/Graphics/SVG/1.1/DTD/svg11.dtd">
<!-- Generated by graphviz version 2.43.0 (0)
 -->
<!-- Title: inheritance54d12d9f5f Pages: 1 -->
<svg width="407pt" height="137pt"
 viewBox="0.00 0.00 407.00 137.00" xmlns="http://www.w3.org/2000/svg" xmlns:xlink="http://www.w3.org/1999/xlink">
<g id="graph0" class="graph" transform="scale(1 1) rotate(0) translate(4 133)">
<title>inheritance54d12d9f5f</title>
<!-- BaseModel -->
<g id="node1" class="node">
<title>BaseModel</title>
<g id="a_node1"><a xlink:title="Usage docs: https://docs.pydantic.dev/2.9/concepts/models/">
<polygon fill="white" stroke="black" stroke-width="0.5" points="224,-129 153,-129 153,-110 224,-110 224,-129"/>
<text text-anchor="middle" x="188.5" y="-117" font-family="Vera Sans, DejaVu Sans, Liberation Sans, Arial, Helvetica, sans" font-size="10.00">BaseModel</text>
</a>
</g>
</g>
<!-- Explanation -->
<g id="node3" class="node">
<title>Explanation</title>
<g id="a_node3"><a xlink:href="../funman.representation.html#funman.representation.explanation.Explanation" xlink:title="Explanation" target="_top">
<polygon fill="white" stroke="black" stroke-width="0.5" points="225.5,-74 151.5,-74 151.5,-55 225.5,-55 225.5,-74"/>
<text text-anchor="middle" x="188.5" y="-62" font-family="Vera Sans, DejaVu Sans, Liberation Sans, Arial, Helvetica, sans" font-size="10.00">Explanation</text>
</a>
</g>
</g>
<!-- BaseModel&#45;&gt;Explanation -->
<g id="edge2" class="edge">
<title>BaseModel&#45;&gt;Explanation</title>
<path fill="none" stroke="#6ab0de" stroke-width="3" d="M188.5,-109.75C188.5,-101.41 188.5,-88.74 188.5,-79.09"/>
<polygon fill="#6ab0de" stroke="#6ab0de" stroke-width="3" points="190.25,-79.09 188.5,-74.09 186.75,-79.09 190.25,-79.09"/>
</g>
<!-- BoxExplanation -->
<g id="node2" class="node">
<title>BoxExplanation</title>
<g id="a_node2"><a xlink:href="../funman.representation.html#funman.representation.explanation.BoxExplanation" xlink:title="BoxExplanation" target="_top">
<polygon fill="white" stroke="black" stroke-width="0.5" points="93,-19 0,-19 0,0 93,0 93,-19"/>
<text text-anchor="middle" x="46.5" y="-7" font-family="Vera Sans, DejaVu Sans, Liberation Sans, Arial, Helvetica, sans" font-size="10.00">BoxExplanation</text>
</a>
</g>
</g>
<!-- Explanation&#45;&gt;BoxExplanation -->
<g id="edge1" class="edge">
<title>Explanation&#45;&gt;BoxExplanation</title>
<path fill="none" stroke="#6ab0de" stroke-width="3" d="M165.69,-54.98C140.89,-45.73 101.24,-30.93 74.56,-20.97"/>
<polygon fill="#6ab0de" stroke="#6ab0de" stroke-width="3" points="75.03,-19.28 69.73,-19.17 73.8,-22.56 75.03,-19.28"/>
</g>
<!-- ParameterSpaceExplanation -->
<g id="node4" class="node">
<title>ParameterSpaceExplanation</title>
<g id="a_node4"><a xlink:href="../funman.representation.html#funman.representation.explanation.ParameterSpaceExplanation" xlink:title="ParameterSpaceExplanation" target="_top">
<polygon fill="white" stroke="black" stroke-width="0.5" points="265.5,-19 111.5,-19 111.5,0 265.5,0 265.5,-19"/>
<text text-anchor="middle" x="188.5" y="-7" font-family="Vera Sans, DejaVu Sans, Liberation Sans, Arial, Helvetica, sans" font-size="10.00">ParameterSpaceExplanation</text>
</a>
</g>
</g>
<!-- Explanation&#45;&gt;ParameterSpaceExplanation -->
<g id="edge3" class="edge">
<title>Explanation&#45;&gt;ParameterSpaceExplanation</title>
<path fill="none" stroke="#6ab0de" stroke-width="3" d="M188.5,-54.75C188.5,-46.41 188.5,-33.74 188.5,-24.09"/>
<polygon fill="#6ab0de" stroke="#6ab0de" stroke-width="3" points="190.25,-24.09 188.5,-19.09 186.75,-24.09 190.25,-24.09"/>
</g>
<!-- TimeoutExplanation -->
<g id="node5" class="node">
<title>TimeoutExplanation</title>
<g id="a_node5"><a xlink:href="../funman.representation.html#funman.representation.explanation.TimeoutExplanation" xlink:title="TimeoutExplanation" target="_top">
<polygon fill="white" stroke="black" stroke-width="0.5" points="399,-19 284,-19 284,0 399,0 399,-19"/>
<text text-anchor="middle" x="341.5" y="-7" font-family="Vera Sans, DejaVu Sans, Liberation Sans, Arial, Helvetica, sans" font-size="10.00">TimeoutExplanation</text>
</a>
</g>
</g>
<!-- Explanation&#45;&gt;TimeoutExplanation -->
<g id="edge4" class="edge">
<title>Explanation&#45;&gt;TimeoutExplanation</title>
<path fill="none" stroke="#6ab0de" stroke-width="3" d="M213.08,-54.98C239.99,-45.66 283.13,-30.72 311.89,-20.76"/>
<polygon fill="#6ab0de" stroke="#6ab0de" stroke-width="3" points="312.57,-22.37 316.73,-19.08 311.43,-19.07 312.57,-22.37"/>
</g>
</g>
</svg>
