<?xml version="1.0" encoding="UTF-8" standalone="no"?>
<!DOCTYPE svg PUBLIC "-//W3C//DTD SVG 1.1//EN"
 "http://www.w3.org/Graphics/SVG/1.1/DTD/svg11.dtd">
<!-- Generated by graphviz version 2.43.0 (0)
 -->
<!-- Title: inheritancee593ec16dc Pages: 1 -->
<svg width="385pt" height="137pt"
 viewBox="0.00 0.00 384.50 137.00" xmlns="http://www.w3.org/2000/svg" xmlns:xlink="http://www.w3.org/1999/xlink">
<g id="graph0" class="graph" transform="scale(1 1) rotate(0) translate(4 133)">
<title>inheritancee593ec16dc</title>
<!-- ABC -->
<g id="node1" class="node">
<title>ABC</title>
<g id="a_node1"><a xlink:title="Helper class that provides a standard way to create an ABC using">
<polygon fill="white" stroke="black" stroke-width="0.5" points="259,-129 205,-129 205,-110 259,-110 259,-129"/>
<text text-anchor="middle" x="232" y="-117" font-family="Vera Sans, DejaVu Sans, Liberation Sans, Arial, Helvetica, sans" font-size="10.00">ABC</text>
</a>
</g>
</g>
<!-- AnalysisScenario -->
<g id="node2" class="node">
<title>AnalysisScenario</title>
<g id="a_node2"><a xlink:href="../funman.scenario.html#funman.scenario.scenario.AnalysisScenario" xlink:title="Abstract class for Analysis Scenarios." target="_top">
<polygon fill="white" stroke="black" stroke-width="0.5" points="214,-74 114,-74 114,-55 214,-55 214,-74"/>
<text text-anchor="middle" x="164" y="-62" font-family="Vera Sans, DejaVu Sans, Liberation Sans, Arial, Helvetica, sans" font-size="10.00">AnalysisScenario</text>
</a>
</g>
</g>
<!-- ABC&#45;&gt;AnalysisScenario -->
<g id="edge1" class="edge">
<title>ABC&#45;&gt;AnalysisScenario</title>
<path fill="none" stroke="#6ab0de" stroke-width="3" d="M221.07,-109.98C209.74,-101.15 191.93,-87.27 179.22,-77.36"/>
<polygon fill="#6ab0de" stroke="#6ab0de" stroke-width="3" points="180.14,-75.86 175.12,-74.17 177.99,-78.62 180.14,-75.86"/>
</g>
<!-- AnalysisScenarioResult -->
<g id="node4" class="node">
<title>AnalysisScenarioResult</title>
<g id="a_node4"><a xlink:href="../funman.scenario.html#funman.scenario.scenario.AnalysisScenarioResult" xlink:title="Abstract class for AnalysisScenario result data." target="_top">
<polygon fill="white" stroke="black" stroke-width="0.5" points="363.5,-74 232.5,-74 232.5,-55 363.5,-55 363.5,-74"/>
<text text-anchor="middle" x="298" y="-62" font-family="Vera Sans, DejaVu Sans, Liberation Sans, Arial, Helvetica, sans" font-size="10.00">AnalysisScenarioResult</text>
</a>
</g>
</g>
<!-- ABC&#45;&gt;AnalysisScenarioResult -->
<g id="edge3" class="edge">
<title>ABC&#45;&gt;AnalysisScenarioResult</title>
<path fill="none" stroke="#6ab0de" stroke-width="3" d="M242.6,-109.98C253.6,-101.15 270.89,-87.27 283.23,-77.36"/>
<polygon fill="#6ab0de" stroke="#6ab0de" stroke-width="3" points="284.4,-78.67 287.2,-74.17 282.21,-75.94 284.4,-78.67"/>
</g>
<!-- ParameterSynthesisScenario -->
<g id="node5" class="node">
<title>ParameterSynthesisScenario</title>
<g id="a_node5"><a xlink:href="../funman.scenario.html#funman.scenario.parameter_synthesis.ParameterSynthesisScenario" xlink:title="Parameter synthesis problem description that identifies the parameters to" target="_top">
<polygon fill="white" stroke="black" stroke-width="0.5" points="156,-19 0,-19 0,0 156,0 156,-19"/>
<text text-anchor="middle" x="78" y="-7" font-family="Vera Sans, DejaVu Sans, Liberation Sans, Arial, Helvetica, sans" font-size="10.00">ParameterSynthesisScenario</text>
</a>
</g>
</g>
<!-- AnalysisScenario&#45;&gt;ParameterSynthesisScenario -->
<g id="edge4" class="edge">
<title>AnalysisScenario&#45;&gt;ParameterSynthesisScenario</title>
<path fill="none" stroke="#6ab0de" stroke-width="3" d="M150.18,-54.98C135.6,-46 112.54,-31.79 96.42,-21.85"/>
<polygon fill="#6ab0de" stroke="#6ab0de" stroke-width="3" points="97.24,-20.3 92.07,-19.17 95.41,-23.28 97.24,-20.3"/>
</g>
<!-- BaseModel -->
<g id="node3" class="node">
<title>BaseModel</title>
<g id="a_node3"><a xlink:title="Usage docs: https://docs.pydantic.dev/2.4/concepts/models/">
<polygon fill="white" stroke="black" stroke-width="0.5" points="121.5,-129 50.5,-129 50.5,-110 121.5,-110 121.5,-129"/>
<text text-anchor="middle" x="86" y="-117" font-family="Vera Sans, DejaVu Sans, Liberation Sans, Arial, Helvetica, sans" font-size="10.00">BaseModel</text>
</a>
</g>
</g>
<!-- BaseModel&#45;&gt;AnalysisScenario -->
<g id="edge2" class="edge">
<title>BaseModel&#45;&gt;AnalysisScenario</title>
<path fill="none" stroke="#6ab0de" stroke-width="3" d="M98.53,-109.98C111.65,-101.07 132.32,-87.03 146.92,-77.11"/>
<polygon fill="#6ab0de" stroke="#6ab0de" stroke-width="3" points="148.09,-78.43 151.24,-74.17 146.12,-75.53 148.09,-78.43"/>
</g>
<!-- BaseModel&#45;&gt;ParameterSynthesisScenario -->
<g id="edge5" class="edge">
<title>BaseModel&#45;&gt;ParameterSynthesisScenario</title>
<path fill="none" stroke="#6ab0de" stroke-width="3" d="M82.4,-109.82C78.94,-100.99 73.97,-86.81 72,-74 69.38,-56.95 72.17,-37.14 74.76,-24.24"/>
<polygon fill="#6ab0de" stroke="#6ab0de" stroke-width="3" points="76.51,-24.42 75.84,-19.17 73.08,-23.69 76.51,-24.42"/>
</g>
<!-- ParameterSynthesisScenarioResult -->
<g id="node6" class="node">
<title>ParameterSynthesisScenarioResult</title>
<g id="a_node6"><a xlink:href="../funman.scenario.html#funman.scenario.parameter_synthesis.ParameterSynthesisScenarioResult" xlink:title="ParameterSynthesisScenario result, which includes the parameter space and" target="_top">
<polygon fill="white" stroke="black" stroke-width="0.5" points="376.5,-19 189.5,-19 189.5,0 376.5,0 376.5,-19"/>
<text text-anchor="middle" x="283" y="-7" font-family="Vera Sans, DejaVu Sans, Liberation Sans, Arial, Helvetica, sans" font-size="10.00">ParameterSynthesisScenarioResult</text>
</a>
</g>
</g>
<!-- BaseModel&#45;&gt;ParameterSynthesisScenarioResult -->
<g id="edge7" class="edge">
<title>BaseModel&#45;&gt;ParameterSynthesisScenarioResult</title>
<path fill="none" stroke="#6ab0de" stroke-width="3" d="M86.03,-109.73C86.57,-96.03 89.69,-69.63 105,-55 121.3,-39.43 173.99,-27.47 217.85,-19.89"/>
<polygon fill="#6ab0de" stroke="#6ab0de" stroke-width="3" points="218.24,-21.6 222.88,-19.04 217.66,-18.15 218.24,-21.6"/>
</g>
<!-- AnalysisScenarioResult&#45;&gt;ParameterSynthesisScenarioResult -->
<g id="edge6" class="edge">
<title>AnalysisScenarioResult&#45;&gt;ParameterSynthesisScenarioResult</title>
<path fill="none" stroke="#6ab0de" stroke-width="3" d="M295.52,-54.75C293.16,-46.41 289.58,-33.74 286.85,-24.09"/>
<polygon fill="#6ab0de" stroke="#6ab0de" stroke-width="3" points="288.48,-23.42 285.43,-19.09 285.11,-24.38 288.48,-23.42"/>
</g>
</g>
</svg>
