<?xml version="1.0" encoding="UTF-8" standalone="no"?>
<!DOCTYPE svg PUBLIC "-//W3C//DTD SVG 1.1//EN"
 "http://www.w3.org/Graphics/SVG/1.1/DTD/svg11.dtd">
<!-- Generated by graphviz version 2.43.0 (0)
 -->
<!-- Title: inheritance408c3046e7 Pages: 1 -->
<svg width="403pt" height="192pt"
 viewBox="0.00 0.00 402.50 192.00" xmlns="http://www.w3.org/2000/svg" xmlns:xlink="http://www.w3.org/1999/xlink">
<g id="graph0" class="graph" transform="scale(1 1) rotate(0) translate(4 188)">
<title>inheritance408c3046e7</title>
<!-- BaseModel -->
<g id="node1" class="node">
<title>BaseModel</title>
<g id="a_node1"><a xlink:title="Usage docs: https://docs.pydantic.dev/2.9/concepts/models/">
<polygon fill="white" stroke="black" stroke-width="0.5" points="108.5,-184 37.5,-184 37.5,-165 108.5,-165 108.5,-184"/>
<text text-anchor="middle" x="73" y="-172" font-family="Vera Sans, DejaVu Sans, Liberation Sans, Arial, Helvetica, sans" font-size="10.00">BaseModel</text>
</a>
</g>
</g>
<!-- SympyBoundedSubstituter -->
<g id="node7" class="node">
<title>SympyBoundedSubstituter</title>
<g id="a_node7"><a xlink:href="../funman.utils.html#funman.utils.sympy_utils.SympyBoundedSubstituter" xlink:title="SympyBoundedSubstituter" target="_top">
<polygon fill="white" stroke="black" stroke-width="0.5" points="146,-129 0,-129 0,-110 146,-110 146,-129"/>
<text text-anchor="middle" x="73" y="-117" font-family="Vera Sans, DejaVu Sans, Liberation Sans, Arial, Helvetica, sans" font-size="10.00">SympyBoundedSubstituter</text>
</a>
</g>
</g>
<!-- BaseModel&#45;&gt;SympyBoundedSubstituter -->
<g id="edge4" class="edge">
<title>BaseModel&#45;&gt;SympyBoundedSubstituter</title>
<path fill="none" stroke="#6ab0de" stroke-width="3" d="M73,-164.75C73,-156.41 73,-143.74 73,-134.09"/>
<polygon fill="#6ab0de" stroke="#6ab0de" stroke-width="3" points="74.75,-134.09 73,-129.09 71.25,-134.09 74.75,-134.09"/>
</g>
<!-- DagWalker -->
<g id="node2" class="node">
<title>DagWalker</title>
<g id="a_node2"><a xlink:title="DagWalker treats the formula as a DAG and performs memoization of the">
<polygon fill="white" stroke="black" stroke-width="0.5" points="233.5,-129 164.5,-129 164.5,-110 233.5,-110 233.5,-129"/>
<text text-anchor="middle" x="199" y="-117" font-family="Vera Sans, DejaVu Sans, Liberation Sans, Arial, Helvetica, sans" font-size="10.00">DagWalker</text>
</a>
</g>
</g>
<!-- IdentityDagWalker -->
<g id="node6" class="node">
<title>IdentityDagWalker</title>
<g id="a_node6"><a xlink:title="This class traverses a formula and rebuilds it recursively">
<polygon fill="white" stroke="black" stroke-width="0.5" points="252.5,-74 145.5,-74 145.5,-55 252.5,-55 252.5,-74"/>
<text text-anchor="middle" x="199" y="-62" font-family="Vera Sans, DejaVu Sans, Liberation Sans, Arial, Helvetica, sans" font-size="10.00">IdentityDagWalker</text>
</a>
</g>
</g>
<!-- DagWalker&#45;&gt;IdentityDagWalker -->
<g id="edge3" class="edge">
<title>DagWalker&#45;&gt;IdentityDagWalker</title>
<path fill="none" stroke="#6ab0de" stroke-width="3" d="M199,-109.75C199,-101.41 199,-88.74 199,-79.09"/>
<polygon fill="#6ab0de" stroke="#6ab0de" stroke-width="3" points="200.75,-79.09 199,-74.09 197.25,-79.09 200.75,-79.09"/>
</g>
<!-- Walker -->
<g id="node3" class="node">
<title>Walker</title>
<g id="a_node3"><a xlink:title="Base Abstract Walker class.">
<polygon fill="white" stroke="black" stroke-width="0.5" points="226,-184 172,-184 172,-165 226,-165 226,-184"/>
<text text-anchor="middle" x="199" y="-172" font-family="Vera Sans, DejaVu Sans, Liberation Sans, Arial, Helvetica, sans" font-size="10.00">Walker</text>
</a>
</g>
</g>
<!-- Walker&#45;&gt;DagWalker -->
<g id="edge1" class="edge">
<title>Walker&#45;&gt;DagWalker</title>
<path fill="none" stroke="#6ab0de" stroke-width="3" d="M199,-164.75C199,-156.41 199,-143.74 199,-134.09"/>
<polygon fill="#6ab0de" stroke="#6ab0de" stroke-width="3" points="200.75,-134.09 199,-129.09 197.25,-134.09 200.75,-134.09"/>
</g>
<!-- FUNMANFormulaManager -->
<g id="node4" class="node">
<title>FUNMANFormulaManager</title>
<g id="a_node4"><a xlink:href="../funman.utils.html#funman.utils.sympy_utils.FUNMANFormulaManager" xlink:title="FormulaManager is responsible for the creation of all formulae." target="_top">
<polygon fill="white" stroke="black" stroke-width="0.5" points="394.5,-129 251.5,-129 251.5,-110 394.5,-110 394.5,-129"/>
<text text-anchor="middle" x="323" y="-117" font-family="Vera Sans, DejaVu Sans, Liberation Sans, Arial, Helvetica, sans" font-size="10.00">FUNMANFormulaManager</text>
</a>
</g>
</g>
<!-- FormulaManager -->
<g id="node5" class="node">
<title>FormulaManager</title>
<g id="a_node5"><a xlink:title="FormulaManager is responsible for the creation of all formulae.">
<polygon fill="white" stroke="black" stroke-width="0.5" points="372.5,-184 273.5,-184 273.5,-165 372.5,-165 372.5,-184"/>
<text text-anchor="middle" x="323" y="-172" font-family="Vera Sans, DejaVu Sans, Liberation Sans, Arial, Helvetica, sans" font-size="10.00">FormulaManager</text>
</a>
</g>
</g>
<!-- FormulaManager&#45;&gt;FUNMANFormulaManager -->
<g id="edge2" class="edge">
<title>FormulaManager&#45;&gt;FUNMANFormulaManager</title>
<path fill="none" stroke="#6ab0de" stroke-width="3" d="M323,-164.75C323,-156.41 323,-143.74 323,-134.09"/>
<polygon fill="#6ab0de" stroke="#6ab0de" stroke-width="3" points="324.75,-134.09 323,-129.09 321.25,-134.09 324.75,-134.09"/>
</g>
<!-- SympySerializer -->
<g id="node8" class="node">
<title>SympySerializer</title>
<g id="a_node8"><a xlink:href="../funman.utils.html#funman.utils.sympy_utils.SympySerializer" xlink:title="SympySerializer" target="_top">
<polygon fill="white" stroke="black" stroke-width="0.5" points="247,-19 151,-19 151,0 247,0 247,-19"/>
<text text-anchor="middle" x="199" y="-7" font-family="Vera Sans, DejaVu Sans, Liberation Sans, Arial, Helvetica, sans" font-size="10.00">SympySerializer</text>
</a>
</g>
</g>
<!-- IdentityDagWalker&#45;&gt;SympySerializer -->
<g id="edge5" class="edge">
<title>IdentityDagWalker&#45;&gt;SympySerializer</title>
<path fill="none" stroke="#6ab0de" stroke-width="3" d="M199,-54.75C199,-46.41 199,-33.74 199,-24.09"/>
<polygon fill="#6ab0de" stroke="#6ab0de" stroke-width="3" points="200.75,-24.09 199,-19.09 197.25,-24.09 200.75,-24.09"/>
</g>
</g>
</svg>
