<?xml version="1.0" encoding="UTF-8" standalone="no"?>
<!DOCTYPE svg PUBLIC "-//W3C//DTD SVG 1.1//EN"
 "http://www.w3.org/Graphics/SVG/1.1/DTD/svg11.dtd">
<!-- Generated by graphviz version 2.43.0 (0)
 -->
<!-- Title: inheritance408c3046e7 Pages: 1 -->
<svg width="257pt" height="192pt"
 viewBox="0.00 0.00 257.00 192.00" xmlns="http://www.w3.org/2000/svg" xmlns:xlink="http://www.w3.org/1999/xlink">
<g id="graph0" class="graph" transform="scale(1 1) rotate(0) translate(4 188)">
<title>inheritance408c3046e7</title>
<!-- DagWalker -->
<g id="node1" class="node">
<title>DagWalker</title>
<g id="a_node1"><a xlink:title="DagWalker treats the formula as a DAG and performs memoization of the">
<polygon fill="white" stroke="black" stroke-width="0.5" points="88,-129 19,-129 19,-110 88,-110 88,-129"/>
<text text-anchor="middle" x="53.5" y="-117" font-family="Vera Sans, DejaVu Sans, Liberation Sans, Arial, Helvetica, sans" font-size="10.00">DagWalker</text>
</a>
</g>
</g>
<!-- IdentityDagWalker -->
<g id="node5" class="node">
<title>IdentityDagWalker</title>
<g id="a_node5"><a xlink:title="This class traverses a formula and rebuilds it recursively">
<polygon fill="white" stroke="black" stroke-width="0.5" points="107,-74 0,-74 0,-55 107,-55 107,-74"/>
<text text-anchor="middle" x="53.5" y="-62" font-family="Vera Sans, DejaVu Sans, Liberation Sans, Arial, Helvetica, sans" font-size="10.00">IdentityDagWalker</text>
</a>
</g>
</g>
<!-- DagWalker&#45;&gt;IdentityDagWalker -->
<g id="edge3" class="edge">
<title>DagWalker&#45;&gt;IdentityDagWalker</title>
<path fill="none" stroke="#6ab0de" stroke-width="3" d="M53.5,-109.75C53.5,-101.41 53.5,-88.74 53.5,-79.09"/>
<polygon fill="#6ab0de" stroke="#6ab0de" stroke-width="3" points="55.25,-79.09 53.5,-74.09 51.75,-79.09 55.25,-79.09"/>
</g>
<!-- Walker -->
<g id="node2" class="node">
<title>Walker</title>
<g id="a_node2"><a xlink:title="Base Abstract Walker class.">
<polygon fill="white" stroke="black" stroke-width="0.5" points="80.5,-184 26.5,-184 26.5,-165 80.5,-165 80.5,-184"/>
<text text-anchor="middle" x="53.5" y="-172" font-family="Vera Sans, DejaVu Sans, Liberation Sans, Arial, Helvetica, sans" font-size="10.00">Walker</text>
</a>
</g>
</g>
<!-- Walker&#45;&gt;DagWalker -->
<g id="edge1" class="edge">
<title>Walker&#45;&gt;DagWalker</title>
<path fill="none" stroke="#6ab0de" stroke-width="3" d="M53.5,-164.75C53.5,-156.41 53.5,-143.74 53.5,-134.09"/>
<polygon fill="#6ab0de" stroke="#6ab0de" stroke-width="3" points="55.25,-134.09 53.5,-129.09 51.75,-134.09 55.25,-134.09"/>
</g>
<!-- FUNMANFormulaManager -->
<g id="node3" class="node">
<title>FUNMANFormulaManager</title>
<g id="a_node3"><a xlink:href="../funman.utils.html#funman.utils.sympy_utils.FUNMANFormulaManager" xlink:title="FormulaManager is responsible for the creation of all formulae." target="_top">
<polygon fill="white" stroke="black" stroke-width="0.5" points="249,-129 106,-129 106,-110 249,-110 249,-129"/>
<text text-anchor="middle" x="177.5" y="-117" font-family="Vera Sans, DejaVu Sans, Liberation Sans, Arial, Helvetica, sans" font-size="10.00">FUNMANFormulaManager</text>
</a>
</g>
</g>
<!-- FormulaManager -->
<g id="node4" class="node">
<title>FormulaManager</title>
<g id="a_node4"><a xlink:title="FormulaManager is responsible for the creation of all formulae.">
<polygon fill="white" stroke="black" stroke-width="0.5" points="227,-184 128,-184 128,-165 227,-165 227,-184"/>
<text text-anchor="middle" x="177.5" y="-172" font-family="Vera Sans, DejaVu Sans, Liberation Sans, Arial, Helvetica, sans" font-size="10.00">FormulaManager</text>
</a>
</g>
</g>
<!-- FormulaManager&#45;&gt;FUNMANFormulaManager -->
<g id="edge2" class="edge">
<title>FormulaManager&#45;&gt;FUNMANFormulaManager</title>
<path fill="none" stroke="#6ab0de" stroke-width="3" d="M177.5,-164.75C177.5,-156.41 177.5,-143.74 177.5,-134.09"/>
<polygon fill="#6ab0de" stroke="#6ab0de" stroke-width="3" points="179.25,-134.09 177.5,-129.09 175.75,-134.09 179.25,-134.09"/>
</g>
<!-- SympySerializer -->
<g id="node6" class="node">
<title>SympySerializer</title>
<g id="a_node6"><a xlink:href="../funman.utils.html#funman.utils.sympy_utils.SympySerializer" xlink:title="SympySerializer" target="_top">
<polygon fill="white" stroke="black" stroke-width="0.5" points="101.5,-19 5.5,-19 5.5,0 101.5,0 101.5,-19"/>
<text text-anchor="middle" x="53.5" y="-7" font-family="Vera Sans, DejaVu Sans, Liberation Sans, Arial, Helvetica, sans" font-size="10.00">SympySerializer</text>
</a>
</g>
</g>
<!-- IdentityDagWalker&#45;&gt;SympySerializer -->
<g id="edge4" class="edge">
<title>IdentityDagWalker&#45;&gt;SympySerializer</title>
<path fill="none" stroke="#6ab0de" stroke-width="3" d="M53.5,-54.75C53.5,-46.41 53.5,-33.74 53.5,-24.09"/>
<polygon fill="#6ab0de" stroke="#6ab0de" stroke-width="3" points="55.25,-24.09 53.5,-19.09 51.75,-24.09 55.25,-24.09"/>
</g>
</g>
</svg>
