<?xml version="1.0" encoding="UTF-8" standalone="no"?>
<!DOCTYPE svg PUBLIC "-//W3C//DTD SVG 1.1//EN"
 "http://www.w3.org/Graphics/SVG/1.1/DTD/svg11.dtd">
<!-- Generated by graphviz version 2.43.0 (0)
 -->
<!-- Title: inheritance4df214eb12 Pages: 1 -->
<svg width="281pt" height="192pt"
 viewBox="0.00 0.00 281.00 192.00" xmlns="http://www.w3.org/2000/svg" xmlns:xlink="http://www.w3.org/1999/xlink">
<g id="graph0" class="graph" transform="scale(1 1) rotate(0) translate(4 188)">
<title>inheritance4df214eb12</title>
<!-- ABC -->
<g id="node1" class="node">
<title>ABC</title>
<g id="a_node1"><a xlink:title="Helper class that provides a standard way to create an ABC using">
<polygon fill="white" stroke="black" stroke-width="0.5" points="155,-184 101,-184 101,-165 155,-165 155,-184"/>
<text text-anchor="middle" x="128" y="-172" font-family="Vera Sans, DejaVu Sans, Liberation Sans, Arial, Helvetica, sans" font-size="10.00">ABC</text>
</a>
</g>
</g>
<!-- Model -->
<g id="node3" class="node">
<title>Model</title>
<g id="a_node3"><a xlink:href="../funman.model.html#funman.model.model.Model" xlink:title="The abstract base class for Models." target="_top">
<polygon fill="white" stroke="black" stroke-width="0.5" points="155,-129 101,-129 101,-110 155,-110 155,-129"/>
<text text-anchor="middle" x="128" y="-117" font-family="Vera Sans, DejaVu Sans, Liberation Sans, Arial, Helvetica, sans" font-size="10.00">Model</text>
</a>
</g>
</g>
<!-- ABC&#45;&gt;Model -->
<g id="edge3" class="edge">
<title>ABC&#45;&gt;Model</title>
<path fill="none" stroke="#6ab0de" stroke-width="3" d="M128,-164.75C128,-156.41 128,-143.74 128,-134.09"/>
<polygon fill="#6ab0de" stroke="#6ab0de" stroke-width="3" points="129.75,-134.09 128,-129.09 126.25,-134.09 129.75,-134.09"/>
</g>
<!-- AbstractRegnetModel -->
<g id="node2" class="node">
<title>AbstractRegnetModel</title>
<g id="a_node2"><a xlink:href="../funman.model.html#funman.model.regnet.AbstractRegnetModel" xlink:title="AbstractRegnetModel" target="_top">
<polygon fill="white" stroke="black" stroke-width="0.5" points="189,-74 67,-74 67,-55 189,-55 189,-74"/>
<text text-anchor="middle" x="128" y="-62" font-family="Vera Sans, DejaVu Sans, Liberation Sans, Arial, Helvetica, sans" font-size="10.00">AbstractRegnetModel</text>
</a>
</g>
</g>
<!-- GeneratedRegnetModel -->
<g id="node5" class="node">
<title>GeneratedRegnetModel</title>
<g id="a_node5"><a xlink:href="../funman.model.html#funman.model.regnet.GeneratedRegnetModel" xlink:title="GeneratedRegnetModel" target="_top">
<polygon fill="white" stroke="black" stroke-width="0.5" points="132,-19 0,-19 0,0 132,0 132,-19"/>
<text text-anchor="middle" x="66" y="-7" font-family="Vera Sans, DejaVu Sans, Liberation Sans, Arial, Helvetica, sans" font-size="10.00">GeneratedRegnetModel</text>
</a>
</g>
</g>
<!-- AbstractRegnetModel&#45;&gt;GeneratedRegnetModel -->
<g id="edge2" class="edge">
<title>AbstractRegnetModel&#45;&gt;GeneratedRegnetModel</title>
<path fill="none" stroke="#6ab0de" stroke-width="3" d="M118.04,-54.98C107.8,-46.23 91.75,-32.51 80.18,-22.62"/>
<polygon fill="#6ab0de" stroke="#6ab0de" stroke-width="3" points="81.08,-21.09 76.14,-19.17 78.81,-23.75 81.08,-21.09"/>
</g>
<!-- RegnetModel -->
<g id="node7" class="node">
<title>RegnetModel</title>
<g id="a_node7"><a xlink:href="../funman.model.html#funman.model.regnet.RegnetModel" xlink:title="RegnetModel" target="_top">
<polygon fill="white" stroke="black" stroke-width="0.5" points="231.5,-19 150.5,-19 150.5,0 231.5,0 231.5,-19"/>
<text text-anchor="middle" x="191" y="-7" font-family="Vera Sans, DejaVu Sans, Liberation Sans, Arial, Helvetica, sans" font-size="10.00">RegnetModel</text>
</a>
</g>
</g>
<!-- AbstractRegnetModel&#45;&gt;RegnetModel -->
<g id="edge6" class="edge">
<title>AbstractRegnetModel&#45;&gt;RegnetModel</title>
<path fill="none" stroke="#6ab0de" stroke-width="3" d="M138.12,-54.98C148.53,-46.23 164.84,-32.51 176.59,-22.62"/>
<polygon fill="#6ab0de" stroke="#6ab0de" stroke-width="3" points="177.99,-23.73 180.69,-19.17 175.74,-21.05 177.99,-23.73"/>
</g>
<!-- Model&#45;&gt;AbstractRegnetModel -->
<g id="edge1" class="edge">
<title>Model&#45;&gt;AbstractRegnetModel</title>
<path fill="none" stroke="#6ab0de" stroke-width="3" d="M128,-109.75C128,-101.41 128,-88.74 128,-79.09"/>
<polygon fill="#6ab0de" stroke="#6ab0de" stroke-width="3" points="129.75,-79.09 128,-74.09 126.25,-79.09 129.75,-79.09"/>
</g>
<!-- BaseModel -->
<g id="node4" class="node">
<title>BaseModel</title>
<g id="a_node4"><a xlink:title="Usage docs: https://docs.pydantic.dev/2.4/concepts/models/">
<polygon fill="white" stroke="black" stroke-width="0.5" points="251.5,-184 180.5,-184 180.5,-165 251.5,-165 251.5,-184"/>
<text text-anchor="middle" x="216" y="-172" font-family="Vera Sans, DejaVu Sans, Liberation Sans, Arial, Helvetica, sans" font-size="10.00">BaseModel</text>
</a>
</g>
</g>
<!-- BaseModel&#45;&gt;Model -->
<g id="edge4" class="edge">
<title>BaseModel&#45;&gt;Model</title>
<path fill="none" stroke="#6ab0de" stroke-width="3" d="M201.86,-164.98C186.94,-156 163.34,-141.79 146.85,-131.85"/>
<polygon fill="#6ab0de" stroke="#6ab0de" stroke-width="3" points="147.58,-130.25 142.4,-129.17 145.78,-133.25 147.58,-130.25"/>
</g>
<!-- RegnetDynamics -->
<g id="node6" class="node">
<title>RegnetDynamics</title>
<g id="a_node6"><a xlink:href="../funman.model.html#funman.model.regnet.RegnetDynamics" xlink:title="RegnetDynamics" target="_top">
<polygon fill="white" stroke="black" stroke-width="0.5" points="273,-129 173,-129 173,-110 273,-110 273,-129"/>
<text text-anchor="middle" x="223" y="-117" font-family="Vera Sans, DejaVu Sans, Liberation Sans, Arial, Helvetica, sans" font-size="10.00">RegnetDynamics</text>
</a>
</g>
</g>
<!-- BaseModel&#45;&gt;RegnetDynamics -->
<g id="edge5" class="edge">
<title>BaseModel&#45;&gt;RegnetDynamics</title>
<path fill="none" stroke="#6ab0de" stroke-width="3" d="M217.16,-164.75C218.26,-156.41 219.93,-143.74 221.2,-134.09"/>
<polygon fill="#6ab0de" stroke="#6ab0de" stroke-width="3" points="222.95,-134.28 221.87,-129.09 219.48,-133.82 222.95,-134.28"/>
</g>
</g>
</svg>
