<?xml version="1.0" encoding="UTF-8" standalone="no"?>
<!DOCTYPE svg PUBLIC "-//W3C//DTD SVG 1.1//EN"
 "http://www.w3.org/Graphics/SVG/1.1/DTD/svg11.dtd">
<!-- Generated by graphviz version 2.43.0 (0)
 -->
<!-- Title: inheritance0fb0ec126c Pages: 1 -->
<svg width="314pt" height="82pt"
 viewBox="0.00 0.00 313.50 82.00" xmlns="http://www.w3.org/2000/svg" xmlns:xlink="http://www.w3.org/1999/xlink">
<g id="graph0" class="graph" transform="scale(1 1) rotate(0) translate(4 78)">
<title>inheritance0fb0ec126c</title>
<!-- FunmanException -->
<g id="node1" class="node">
<title>FunmanException</title>
<g id="a_node1"><a xlink:href="../funman.server.html#funman.server.exception.FunmanException" xlink:title="FunmanException" target="_top">
<polygon fill="white" stroke="black" stroke-width="0.5" points="201.5,-74 97.5,-74 97.5,-55 201.5,-55 201.5,-74"/>
<text text-anchor="middle" x="149.5" y="-62" font-family="Vera Sans, DejaVu Sans, Liberation Sans, Arial, Helvetica, sans" font-size="10.00">FunmanException</text>
</a>
</g>
</g>
<!-- FunmanWorkerException -->
<g id="node2" class="node">
<title>FunmanWorkerException</title>
<g id="a_node2"><a xlink:href="../funman.server.html#funman.server.exception.FunmanWorkerException" xlink:title="FunmanWorkerException" target="_top">
<polygon fill="white" stroke="black" stroke-width="0.5" points="137,-19 0,-19 0,0 137,0 137,-19"/>
<text text-anchor="middle" x="68.5" y="-7" font-family="Vera Sans, DejaVu Sans, Liberation Sans, Arial, Helvetica, sans" font-size="10.00">FunmanWorkerException</text>
</a>
</g>
</g>
<!-- FunmanException&#45;&gt;FunmanWorkerException -->
<g id="edge1" class="edge">
<title>FunmanException&#45;&gt;FunmanWorkerException</title>
<path fill="none" stroke="#6ab0de" stroke-width="3" d="M136.49,-54.98C122.87,-46.07 101.4,-32.03 86.24,-22.11"/>
<polygon fill="#6ab0de" stroke="#6ab0de" stroke-width="3" points="86.89,-20.44 81.75,-19.17 84.98,-23.37 86.89,-20.44"/>
</g>
<!-- NotFoundFunmanException -->
<g id="node3" class="node">
<title>NotFoundFunmanException</title>
<g id="a_node3"><a xlink:href="../funman.server.html#funman.server.exception.NotFoundFunmanException" xlink:title="NotFoundFunmanException" target="_top">
<polygon fill="white" stroke="black" stroke-width="0.5" points="305.5,-19 155.5,-19 155.5,0 305.5,0 305.5,-19"/>
<text text-anchor="middle" x="230.5" y="-7" font-family="Vera Sans, DejaVu Sans, Liberation Sans, Arial, Helvetica, sans" font-size="10.00">NotFoundFunmanException</text>
</a>
</g>
</g>
<!-- FunmanException&#45;&gt;NotFoundFunmanException -->
<g id="edge2" class="edge">
<title>FunmanException&#45;&gt;NotFoundFunmanException</title>
<path fill="none" stroke="#6ab0de" stroke-width="3" d="M162.51,-54.98C176.13,-46.07 197.6,-32.03 212.76,-22.11"/>
<polygon fill="#6ab0de" stroke="#6ab0de" stroke-width="3" points="214.02,-23.37 217.25,-19.17 212.11,-20.44 214.02,-23.37"/>
</g>
</g>
</svg>
