<?xml version="1.0" encoding="UTF-8" standalone="no"?>
<!DOCTYPE svg PUBLIC "-//W3C//DTD SVG 1.1//EN"
 "http://www.w3.org/Graphics/SVG/1.1/DTD/svg11.dtd">
<!-- Generated by graphviz version 2.43.0 (0)
 -->
<!-- Title: inheritancee2b6806f0d Pages: 1 -->
<svg width="284pt" height="82pt"
 viewBox="0.00 0.00 283.50 82.00" xmlns="http://www.w3.org/2000/svg" xmlns:xlink="http://www.w3.org/1999/xlink">
<g id="graph0" class="graph" transform="scale(1 1) rotate(0) translate(4 78)">
<title>inheritancee2b6806f0d</title>
<!-- BaseModel -->
<g id="node1" class="node">
<title>BaseModel</title>
<g id="a_node1"><a xlink:title="Usage docs: https://docs.pydantic.dev/2.9/concepts/models/">
<polygon fill="white" stroke="black" stroke-width="0.5" points="164,-74 93,-74 93,-55 164,-55 164,-74"/>
<text text-anchor="middle" x="128.5" y="-62" font-family="Vera Sans, DejaVu Sans, Liberation Sans, Arial, Helvetica, sans" font-size="10.00">BaseModel</text>
</a>
</g>
</g>
<!-- Encoding -->
<g id="node2" class="node">
<title>Encoding</title>
<g id="a_node2"><a xlink:href="../funman.translate.html#funman.translate.encoding.Encoding" xlink:title="Encoding" target="_top">
<polygon fill="white" stroke="black" stroke-width="0.5" points="61,-19 0,-19 0,0 61,0 61,-19"/>
<text text-anchor="middle" x="30.5" y="-7" font-family="Vera Sans, DejaVu Sans, Liberation Sans, Arial, Helvetica, sans" font-size="10.00">Encoding</text>
</a>
</g>
</g>
<!-- BaseModel&#45;&gt;Encoding -->
<g id="edge1" class="edge">
<title>BaseModel&#45;&gt;Encoding</title>
<path fill="none" stroke="#6ab0de" stroke-width="3" d="M112.75,-54.98C96,-45.92 69.41,-31.54 51.02,-21.6"/>
<polygon fill="#6ab0de" stroke="#6ab0de" stroke-width="3" points="51.76,-20.01 46.53,-19.17 50.1,-23.09 51.76,-20.01"/>
</g>
<!-- EncodingOptions -->
<g id="node3" class="node">
<title>EncodingOptions</title>
<g id="a_node3"><a xlink:href="../funman.translate.html#funman.translate.encoding.EncodingOptions" xlink:title="EncodingOptions" target="_top">
<polygon fill="white" stroke="black" stroke-width="0.5" points="177.5,-19 79.5,-19 79.5,0 177.5,0 177.5,-19"/>
<text text-anchor="middle" x="128.5" y="-7" font-family="Vera Sans, DejaVu Sans, Liberation Sans, Arial, Helvetica, sans" font-size="10.00">EncodingOptions</text>
</a>
</g>
</g>
<!-- BaseModel&#45;&gt;EncodingOptions -->
<g id="edge2" class="edge">
<title>BaseModel&#45;&gt;EncodingOptions</title>
<path fill="none" stroke="#6ab0de" stroke-width="3" d="M128.5,-54.75C128.5,-46.41 128.5,-33.74 128.5,-24.09"/>
<polygon fill="#6ab0de" stroke="#6ab0de" stroke-width="3" points="130.25,-24.09 128.5,-19.09 126.75,-24.09 130.25,-24.09"/>
</g>
<!-- FlatEncoding -->
<g id="node4" class="node">
<title>FlatEncoding</title>
<g id="a_node4"><a xlink:href="../funman.translate.html#funman.translate.encoding.FlatEncoding" xlink:title="An encoding comprises a formula over a set of symbols." target="_top">
<polygon fill="white" stroke="black" stroke-width="0.5" points="275.5,-19 195.5,-19 195.5,0 275.5,0 275.5,-19"/>
<text text-anchor="middle" x="235.5" y="-7" font-family="Vera Sans, DejaVu Sans, Liberation Sans, Arial, Helvetica, sans" font-size="10.00">FlatEncoding</text>
</a>
</g>
</g>
<!-- BaseModel&#45;&gt;FlatEncoding -->
<g id="edge3" class="edge">
<title>BaseModel&#45;&gt;FlatEncoding</title>
<path fill="none" stroke="#6ab0de" stroke-width="3" d="M145.69,-54.98C164.07,-45.88 193.26,-31.42 213.35,-21.47"/>
<polygon fill="#6ab0de" stroke="#6ab0de" stroke-width="3" points="214.29,-22.96 218,-19.17 212.74,-19.82 214.29,-22.96"/>
</g>
</g>
</svg>
