<?xml version="1.0" encoding="UTF-8" standalone="no"?>
<!DOCTYPE svg PUBLIC "-//W3C//DTD SVG 1.1//EN"
 "http://www.w3.org/Graphics/SVG/1.1/DTD/svg11.dtd">
<!-- Generated by graphviz version 2.43.0 (0)
 -->
<!-- Title: inheritance9bb791929b Pages: 1 -->
<svg width="283pt" height="137pt"
 viewBox="0.00 0.00 283.00 137.00" xmlns="http://www.w3.org/2000/svg" xmlns:xlink="http://www.w3.org/1999/xlink">
<g id="graph0" class="graph" transform="scale(1 1) rotate(0) translate(4 133)">
<title>inheritance9bb791929b</title>
<!-- ABC -->
<g id="node1" class="node">
<title>ABC</title>
<g id="a_node1"><a xlink:title="Helper class that provides a standard way to create an ABC using">
<polygon fill="white" stroke="black" stroke-width="0.5" points="54,-129 0,-129 0,-110 54,-110 54,-129"/>
<text text-anchor="middle" x="27" y="-117" font-family="Vera Sans, DejaVu Sans, Liberation Sans, Arial, Helvetica, sans" font-size="10.00">ABC</text>
</a>
</g>
</g>
<!-- Search -->
<g id="node3" class="node">
<title>Search</title>
<g id="a_node3"><a xlink:href="../funman.search.html#funman.search.search.Search" xlink:title="Search" target="_top">
<polygon fill="white" stroke="black" stroke-width="0.5" points="54,-74 0,-74 0,-55 54,-55 54,-74"/>
<text text-anchor="middle" x="27" y="-62" font-family="Vera Sans, DejaVu Sans, Liberation Sans, Arial, Helvetica, sans" font-size="10.00">Search</text>
</a>
</g>
</g>
<!-- ABC&#45;&gt;Search -->
<g id="edge1" class="edge">
<title>ABC&#45;&gt;Search</title>
<path fill="none" stroke="#6ab0de" stroke-width="3" d="M27,-109.75C27,-101.41 27,-88.74 27,-79.09"/>
<polygon fill="#6ab0de" stroke="#6ab0de" stroke-width="3" points="28.75,-79.09 27,-74.09 25.25,-79.09 28.75,-79.09"/>
</g>
<!-- BaseModel -->
<g id="node2" class="node">
<title>BaseModel</title>
<g id="a_node2"><a xlink:title="Usage docs: https://docs.pydantic.dev/2.4/concepts/models/">
<polygon fill="white" stroke="black" stroke-width="0.5" points="206.5,-129 135.5,-129 135.5,-110 206.5,-110 206.5,-129"/>
<text text-anchor="middle" x="171" y="-117" font-family="Vera Sans, DejaVu Sans, Liberation Sans, Arial, Helvetica, sans" font-size="10.00">BaseModel</text>
</a>
</g>
</g>
<!-- SearchEpisode -->
<g id="node4" class="node">
<title>SearchEpisode</title>
<g id="a_node4"><a xlink:href="../funman.search.html#funman.search.search.SearchEpisode" xlink:title="SearchEpisode" target="_top">
<polygon fill="white" stroke="black" stroke-width="0.5" points="160,-74 72,-74 72,-55 160,-55 160,-74"/>
<text text-anchor="middle" x="116" y="-62" font-family="Vera Sans, DejaVu Sans, Liberation Sans, Arial, Helvetica, sans" font-size="10.00">SearchEpisode</text>
</a>
</g>
</g>
<!-- BaseModel&#45;&gt;SearchEpisode -->
<g id="edge2" class="edge">
<title>BaseModel&#45;&gt;SearchEpisode</title>
<path fill="none" stroke="#6ab0de" stroke-width="3" d="M161.92,-109.75C152.87,-101.03 138.89,-87.56 128.74,-77.77"/>
<polygon fill="#6ab0de" stroke="#6ab0de" stroke-width="3" points="129.73,-76.3 124.91,-74.09 127.3,-78.82 129.73,-76.3"/>
</g>
<!-- SearchStatistics -->
<g id="node6" class="node">
<title>SearchStatistics</title>
<g id="a_node6"><a xlink:href="../funman.search.html#funman.search.search.SearchStatistics" xlink:title="SearchStatistics" target="_top">
<polygon fill="white" stroke="black" stroke-width="0.5" points="273.5,-74 178.5,-74 178.5,-55 273.5,-55 273.5,-74"/>
<text text-anchor="middle" x="226" y="-62" font-family="Vera Sans, DejaVu Sans, Liberation Sans, Arial, Helvetica, sans" font-size="10.00">SearchStatistics</text>
</a>
</g>
</g>
<!-- BaseModel&#45;&gt;SearchStatistics -->
<g id="edge4" class="edge">
<title>BaseModel&#45;&gt;SearchStatistics</title>
<path fill="none" stroke="#6ab0de" stroke-width="3" d="M180.08,-109.75C189.13,-101.03 203.11,-87.56 213.26,-77.77"/>
<polygon fill="#6ab0de" stroke="#6ab0de" stroke-width="3" points="214.7,-78.82 217.09,-74.09 212.27,-76.3 214.7,-78.82"/>
</g>
<!-- SearchStaticsMP -->
<g id="node5" class="node">
<title>SearchStaticsMP</title>
<g id="a_node5"><a xlink:href="../funman.search.html#funman.search.search.SearchStaticsMP" xlink:title="SearchStaticsMP" target="_top">
<polygon fill="white" stroke="black" stroke-width="0.5" points="275,-19 177,-19 177,0 275,0 275,-19"/>
<text text-anchor="middle" x="226" y="-7" font-family="Vera Sans, DejaVu Sans, Liberation Sans, Arial, Helvetica, sans" font-size="10.00">SearchStaticsMP</text>
</a>
</g>
</g>
<!-- SearchStatistics&#45;&gt;SearchStaticsMP -->
<g id="edge3" class="edge">
<title>SearchStatistics&#45;&gt;SearchStaticsMP</title>
<path fill="none" stroke="#6ab0de" stroke-width="3" d="M226,-54.75C226,-46.41 226,-33.74 226,-24.09"/>
<polygon fill="#6ab0de" stroke="#6ab0de" stroke-width="3" points="227.75,-24.09 226,-19.09 224.25,-24.09 227.75,-24.09"/>
</g>
</g>
</svg>
