<?xml version="1.0" encoding="UTF-8" standalone="no"?>
<!DOCTYPE svg PUBLIC "-//W3C//DTD SVG 1.1//EN"
 "http://www.w3.org/Graphics/SVG/1.1/DTD/svg11.dtd">
<!-- Generated by graphviz version 2.43.0 (0)
 -->
<!-- Title: inheritancef90de127ea Pages: 1 -->
<svg width="1362pt" height="192pt"
 viewBox="0.00 0.00 1361.50 192.00" xmlns="http://www.w3.org/2000/svg" xmlns:xlink="http://www.w3.org/1999/xlink">
<g id="graph0" class="graph" transform="scale(1 1) rotate(0) translate(4 188)">
<title>inheritancef90de127ea</title>
<!-- BaseModel -->
<g id="node1" class="node">
<title>BaseModel</title>
<g id="a_node1"><a xlink:title="Usage docs: https://docs.pydantic.dev/2.4/concepts/models/">
<polygon fill="white" stroke="black" stroke-width="0.5" points="683.5,-184 612.5,-184 612.5,-165 683.5,-165 683.5,-184"/>
<text text-anchor="middle" x="648" y="-172" font-family="Vera Sans, DejaVu Sans, Liberation Sans, Arial, Helvetica, sans" font-size="10.00">BaseModel</text>
</a>
</g>
</g>
<!-- Distribution -->
<g id="node2" class="node">
<title>Distribution</title>
<g id="a_node2"><a xlink:href="../funman.model.generated_models.html#funman.model.generated_models.petrinet.Distribution" xlink:title="Distribution" target="_top">
<polygon fill="white" stroke="black" stroke-width="0.5" points="74,-129 0,-129 0,-110 74,-110 74,-129"/>
<text text-anchor="middle" x="37" y="-117" font-family="Vera Sans, DejaVu Sans, Liberation Sans, Arial, Helvetica, sans" font-size="10.00">Distribution</text>
</a>
</g>
</g>
<!-- BaseModel&#45;&gt;Distribution -->
<g id="edge1" class="edge">
<title>BaseModel&#45;&gt;Distribution</title>
<path fill="none" stroke="#6ab0de" stroke-width="3" d="M612.5,-171.99C523.22,-167.91 282.26,-155.18 83,-129 81.73,-128.83 80.45,-128.66 79.15,-128.47"/>
<polygon fill="#6ab0de" stroke="#6ab0de" stroke-width="3" points="79.31,-126.72 74.1,-127.7 78.78,-130.18 79.31,-126.72"/>
</g>
<!-- Grounding -->
<g id="node4" class="node">
<title>Grounding</title>
<g id="a_node4"><a xlink:href="../funman.model.generated_models.html#funman.model.generated_models.petrinet.Grounding" xlink:title="Grounding" target="_top">
<polygon fill="white" stroke="black" stroke-width="0.5" points="159.5,-129 92.5,-129 92.5,-110 159.5,-110 159.5,-129"/>
<text text-anchor="middle" x="126" y="-117" font-family="Vera Sans, DejaVu Sans, Liberation Sans, Arial, Helvetica, sans" font-size="10.00">Grounding</text>
</a>
</g>
</g>
<!-- BaseModel&#45;&gt;Grounding -->
<g id="edge2" class="edge">
<title>BaseModel&#45;&gt;Grounding</title>
<path fill="none" stroke="#6ab0de" stroke-width="3" d="M612.4,-171.45C532.68,-166.57 333.9,-152.89 169,-129 167.59,-128.8 166.15,-128.58 164.7,-128.34"/>
<polygon fill="#6ab0de" stroke="#6ab0de" stroke-width="3" points="164.97,-126.61 159.74,-127.51 164.39,-130.06 164.97,-126.61"/>
</g>
<!-- Header -->
<g id="node5" class="node">
<title>Header</title>
<g id="a_node5"><a xlink:href="../funman.model.generated_models.html#funman.model.generated_models.petrinet.Header" xlink:title="Header" target="_top">
<polygon fill="white" stroke="black" stroke-width="0.5" points="232,-129 178,-129 178,-110 232,-110 232,-129"/>
<text text-anchor="middle" x="205" y="-117" font-family="Vera Sans, DejaVu Sans, Liberation Sans, Arial, Helvetica, sans" font-size="10.00">Header</text>
</a>
</g>
</g>
<!-- BaseModel&#45;&gt;Header -->
<g id="edge3" class="edge">
<title>BaseModel&#45;&gt;Header</title>
<path fill="none" stroke="#6ab0de" stroke-width="3" d="M612.41,-171.09C541.4,-165.95 377.25,-152.44 241,-129 239.73,-128.78 238.43,-128.54 237.12,-128.29"/>
<polygon fill="#6ab0de" stroke="#6ab0de" stroke-width="3" points="237.3,-126.54 232.05,-127.26 236.61,-129.97 237.3,-126.54"/>
</g>
<!-- Rate -->
<g id="node7" class="node">
<title>Rate</title>
<g id="a_node7"><a xlink:href="../funman.model.generated_models.html#funman.model.generated_models.petrinet.Rate" xlink:title="Rate" target="_top">
<polygon fill="white" stroke="black" stroke-width="0.5" points="304,-129 250,-129 250,-110 304,-110 304,-129"/>
<text text-anchor="middle" x="277" y="-117" font-family="Vera Sans, DejaVu Sans, Liberation Sans, Arial, Helvetica, sans" font-size="10.00">Rate</text>
</a>
</g>
</g>
<!-- BaseModel&#45;&gt;Rate -->
<g id="edge10" class="edge">
<title>BaseModel&#45;&gt;Rate</title>
<path fill="none" stroke="#6ab0de" stroke-width="3" d="M612.12,-169.92C550.61,-163.53 421.19,-148.91 313,-129 311.73,-128.77 310.44,-128.52 309.13,-128.26"/>
<polygon fill="#6ab0de" stroke="#6ab0de" stroke-width="3" points="309.32,-126.51 304.07,-127.2 308.6,-129.93 309.32,-126.51"/>
</g>
<!-- Model -->
<g id="node8" class="node">
<title>Model</title>
<g id="a_node8"><a xlink:href="../funman.model.generated_models.html#funman.model.generated_models.petrinet.Model" xlink:title="Model" target="_top">
<polygon fill="white" stroke="black" stroke-width="0.5" points="376,-129 322,-129 322,-110 376,-110 376,-129"/>
<text text-anchor="middle" x="349" y="-117" font-family="Vera Sans, DejaVu Sans, Liberation Sans, Arial, Helvetica, sans" font-size="10.00">Model</text>
</a>
</g>
</g>
<!-- BaseModel&#45;&gt;Model -->
<g id="edge5" class="edge">
<title>BaseModel&#45;&gt;Model</title>
<path fill="none" stroke="#6ab0de" stroke-width="3" d="M612.13,-168.18C561.38,-160.48 465.79,-145.36 385,-129 383.73,-128.74 382.44,-128.47 381.14,-128.2"/>
<polygon fill="#6ab0de" stroke="#6ab0de" stroke-width="3" points="381.34,-126.45 376.09,-127.09 380.6,-129.87 381.34,-126.45"/>
</g>
<!-- Model1 -->
<g id="node9" class="node">
<title>Model1</title>
<g id="a_node9"><a xlink:href="../funman.model.generated_models.html#funman.model.generated_models.petrinet.Model1" xlink:title="Model1" target="_top">
<polygon fill="white" stroke="black" stroke-width="0.5" points="448,-129 394,-129 394,-110 448,-110 448,-129"/>
<text text-anchor="middle" x="421" y="-117" font-family="Vera Sans, DejaVu Sans, Liberation Sans, Arial, Helvetica, sans" font-size="10.00">Model1</text>
</a>
</g>
</g>
<!-- BaseModel&#45;&gt;Model1 -->
<g id="edge6" class="edge">
<title>BaseModel&#45;&gt;Model1</title>
<path fill="none" stroke="#6ab0de" stroke-width="3" d="M612.44,-165.25C574.08,-156.34 511.2,-141.71 457,-129 455.74,-128.7 454.46,-128.4 453.16,-128.1"/>
<polygon fill="#6ab0de" stroke="#6ab0de" stroke-width="3" points="453.39,-126.36 448.12,-126.91 452.59,-129.76 453.39,-126.36"/>
</g>
<!-- OdeSemantics -->
<g id="node10" class="node">
<title>OdeSemantics</title>
<g id="a_node10"><a xlink:href="../funman.model.generated_models.html#funman.model.generated_models.petrinet.OdeSemantics" xlink:title="OdeSemantics" target="_top">
<polygon fill="white" stroke="black" stroke-width="0.5" points="553.5,-129 466.5,-129 466.5,-110 553.5,-110 553.5,-129"/>
<text text-anchor="middle" x="510" y="-117" font-family="Vera Sans, DejaVu Sans, Liberation Sans, Arial, Helvetica, sans" font-size="10.00">OdeSemantics</text>
</a>
</g>
</g>
<!-- BaseModel&#45;&gt;OdeSemantics -->
<g id="edge7" class="edge">
<title>BaseModel&#45;&gt;OdeSemantics</title>
<path fill="none" stroke="#6ab0de" stroke-width="3" d="M625.83,-164.98C601.73,-155.73 563.2,-140.93 537.26,-130.97"/>
<polygon fill="#6ab0de" stroke="#6ab0de" stroke-width="3" points="537.87,-129.33 532.58,-129.17 536.62,-132.6 537.87,-129.33"/>
</g>
<!-- Parameter -->
<g id="node11" class="node">
<title>Parameter</title>
<g id="a_node11"><a xlink:href="../funman.model.generated_models.html#funman.model.generated_models.petrinet.Parameter" xlink:title="Parameter" target="_top">
<polygon fill="white" stroke="black" stroke-width="0.5" points="638.5,-129 571.5,-129 571.5,-110 638.5,-110 638.5,-129"/>
<text text-anchor="middle" x="605" y="-117" font-family="Vera Sans, DejaVu Sans, Liberation Sans, Arial, Helvetica, sans" font-size="10.00">Parameter</text>
</a>
</g>
</g>
<!-- BaseModel&#45;&gt;Parameter -->
<g id="edge8" class="edge">
<title>BaseModel&#45;&gt;Parameter</title>
<path fill="none" stroke="#6ab0de" stroke-width="3" d="M640.9,-164.75C633.89,-156.1 623.09,-142.8 615.17,-133.03"/>
<polygon fill="#6ab0de" stroke="#6ab0de" stroke-width="3" points="616.48,-131.87 611.97,-129.09 613.76,-134.07 616.48,-131.87"/>
</g>
<!-- Properties -->
<g id="node12" class="node">
<title>Properties</title>
<g id="a_node12"><a xlink:href="../funman.model.generated_models.html#funman.model.generated_models.petrinet.Properties" xlink:title="Properties" target="_top">
<polygon fill="white" stroke="black" stroke-width="0.5" points="723,-129 657,-129 657,-110 723,-110 723,-129"/>
<text text-anchor="middle" x="690" y="-117" font-family="Vera Sans, DejaVu Sans, Liberation Sans, Arial, Helvetica, sans" font-size="10.00">Properties</text>
</a>
</g>
</g>
<!-- BaseModel&#45;&gt;Properties -->
<g id="edge9" class="edge">
<title>BaseModel&#45;&gt;Properties</title>
<path fill="none" stroke="#6ab0de" stroke-width="3" d="M654.94,-164.75C661.79,-156.1 672.33,-142.8 680.07,-133.03"/>
<polygon fill="#6ab0de" stroke="#6ab0de" stroke-width="3" points="681.46,-134.09 683.19,-129.09 678.72,-131.92 681.46,-134.09"/>
</g>
<!-- RootModel -->
<g id="node13" class="node">
<title>RootModel</title>
<g id="a_node13"><a xlink:title="Usage docs: https://docs.pydantic.dev/2.4/concepts/models/#rootmodel&#45;and&#45;custom&#45;root&#45;types">
<polygon fill="white" stroke="black" stroke-width="0.5" points="1312.5,-129 1243.5,-129 1243.5,-110 1312.5,-110 1312.5,-129"/>
<text text-anchor="middle" x="1278" y="-117" font-family="Vera Sans, DejaVu Sans, Liberation Sans, Arial, Helvetica, sans" font-size="10.00">RootModel</text>
</a>
</g>
</g>
<!-- BaseModel&#45;&gt;RootModel -->
<g id="edge11" class="edge">
<title>BaseModel&#45;&gt;RootModel</title>
<path fill="none" stroke="#6ab0de" stroke-width="3" d="M683.82,-172.22C775.63,-168.61 1026.7,-156.8 1234,-129 1235.45,-128.81 1236.92,-128.6 1238.4,-128.37"/>
<polygon fill="#6ab0de" stroke="#6ab0de" stroke-width="3" points="1238.81,-130.08 1243.47,-127.56 1238.26,-126.62 1238.81,-130.08"/>
</g>
<!-- Semantics -->
<g id="node14" class="node">
<title>Semantics</title>
<g id="a_node14"><a xlink:href="../funman.model.generated_models.html#funman.model.generated_models.petrinet.Semantics" xlink:title="Semantics" target="_top">
<polygon fill="white" stroke="black" stroke-width="0.5" points="809,-129 741,-129 741,-110 809,-110 809,-129"/>
<text text-anchor="middle" x="775" y="-117" font-family="Vera Sans, DejaVu Sans, Liberation Sans, Arial, Helvetica, sans" font-size="10.00">Semantics</text>
</a>
</g>
</g>
<!-- BaseModel&#45;&gt;Semantics -->
<g id="edge13" class="edge">
<title>BaseModel&#45;&gt;Semantics</title>
<path fill="none" stroke="#6ab0de" stroke-width="3" d="M668.4,-164.98C690.4,-155.81 725.46,-141.18 749.31,-131.22"/>
<polygon fill="#6ab0de" stroke="#6ab0de" stroke-width="3" points="750.28,-132.71 754.22,-129.17 748.94,-129.48 750.28,-132.71"/>
</g>
<!-- State -->
<g id="node15" class="node">
<title>State</title>
<g id="a_node15"><a xlink:href="../funman.model.generated_models.html#funman.model.generated_models.petrinet.State" xlink:title="State" target="_top">
<polygon fill="white" stroke="black" stroke-width="0.5" points="881,-129 827,-129 827,-110 881,-110 881,-129"/>
<text text-anchor="middle" x="854" y="-117" font-family="Vera Sans, DejaVu Sans, Liberation Sans, Arial, Helvetica, sans" font-size="10.00">State</text>
</a>
</g>
</g>
<!-- BaseModel&#45;&gt;State -->
<g id="edge14" class="edge">
<title>BaseModel&#45;&gt;State</title>
<path fill="none" stroke="#6ab0de" stroke-width="3" d="M681.1,-164.98C719.85,-155.02 783.59,-138.62 821.9,-128.76"/>
<polygon fill="#6ab0de" stroke="#6ab0de" stroke-width="3" points="822.5,-130.41 826.9,-127.47 821.63,-127.02 822.5,-130.41"/>
</g>
<!-- Time -->
<g id="node18" class="node">
<title>Time</title>
<g id="a_node18"><a xlink:href="../funman.model.generated_models.html#funman.model.generated_models.petrinet.Time" xlink:title="Time" target="_top">
<polygon fill="white" stroke="black" stroke-width="0.5" points="953,-129 899,-129 899,-110 953,-110 953,-129"/>
<text text-anchor="middle" x="926" y="-117" font-family="Vera Sans, DejaVu Sans, Liberation Sans, Arial, Helvetica, sans" font-size="10.00">Time</text>
</a>
</g>
</g>
<!-- BaseModel&#45;&gt;Time -->
<g id="edge17" class="edge">
<title>BaseModel&#45;&gt;Time</title>
<path fill="none" stroke="#6ab0de" stroke-width="3" d="M683.78,-167.5C731.11,-159.42 817.05,-144.31 890,-129 891.26,-128.73 892.55,-128.46 893.85,-128.17"/>
<polygon fill="#6ab0de" stroke="#6ab0de" stroke-width="3" points="894.41,-129.84 898.91,-127.05 893.64,-126.43 894.41,-129.84"/>
</g>
<!-- Transition -->
<g id="node19" class="node">
<title>Transition</title>
<g id="a_node19"><a xlink:href="../funman.model.generated_models.html#funman.model.generated_models.petrinet.Transition" xlink:title="Transition" target="_top">
<polygon fill="white" stroke="black" stroke-width="0.5" points="1035,-129 971,-129 971,-110 1035,-110 1035,-129"/>
<text text-anchor="middle" x="1003" y="-117" font-family="Vera Sans, DejaVu Sans, Liberation Sans, Arial, Helvetica, sans" font-size="10.00">Transition</text>
</a>
</g>
</g>
<!-- BaseModel&#45;&gt;Transition -->
<g id="edge18" class="edge">
<title>BaseModel&#45;&gt;Transition</title>
<path fill="none" stroke="#6ab0de" stroke-width="3" d="M683.91,-169.17C742.36,-161.94 861.66,-146.49 962,-129 963.25,-128.78 964.53,-128.55 965.81,-128.32"/>
<polygon fill="#6ab0de" stroke="#6ab0de" stroke-width="3" points="966.22,-130.02 970.81,-127.38 965.57,-126.58 966.22,-130.02"/>
</g>
<!-- TypingSemantics -->
<g id="node22" class="node">
<title>TypingSemantics</title>
<g id="a_node22"><a xlink:href="../funman.model.generated_models.html#funman.model.generated_models.petrinet.TypingSemantics" xlink:title="TypingSemantics" target="_top">
<polygon fill="white" stroke="black" stroke-width="0.5" points="1152.5,-129 1053.5,-129 1053.5,-110 1152.5,-110 1152.5,-129"/>
<text text-anchor="middle" x="1103" y="-117" font-family="Vera Sans, DejaVu Sans, Liberation Sans, Arial, Helvetica, sans" font-size="10.00">TypingSemantics</text>
</a>
</g>
</g>
<!-- BaseModel&#45;&gt;TypingSemantics -->
<g id="edge21" class="edge">
<title>BaseModel&#45;&gt;TypingSemantics</title>
<path fill="none" stroke="#6ab0de" stroke-width="3" d="M683.54,-169.88C752.92,-162.74 911.22,-146.02 1044,-129 1045.44,-128.81 1046.91,-128.62 1048.38,-128.43"/>
<polygon fill="#6ab0de" stroke="#6ab0de" stroke-width="3" points="1048.72,-130.15 1053.44,-127.75 1048.25,-126.68 1048.72,-130.15"/>
</g>
<!-- Unit -->
<g id="node23" class="node">
<title>Unit</title>
<g id="a_node23"><a xlink:href="../funman.model.generated_models.html#funman.model.generated_models.petrinet.Unit" xlink:title="Unit" target="_top">
<polygon fill="white" stroke="black" stroke-width="0.5" points="1225,-129 1171,-129 1171,-110 1225,-110 1225,-129"/>
<text text-anchor="middle" x="1198" y="-117" font-family="Vera Sans, DejaVu Sans, Liberation Sans, Arial, Helvetica, sans" font-size="10.00">Unit</text>
</a>
</g>
</g>
<!-- BaseModel&#45;&gt;Unit -->
<g id="edge22" class="edge">
<title>BaseModel&#45;&gt;Unit</title>
<path fill="none" stroke="#6ab0de" stroke-width="3" d="M683.66,-172.12C767.41,-168.5 983.06,-157.02 1161,-129 1162.46,-128.77 1163.96,-128.51 1165.46,-128.24"/>
<polygon fill="#6ab0de" stroke="#6ab0de" stroke-width="3" points="1166.03,-129.91 1170.6,-127.24 1165.36,-126.48 1166.03,-129.91"/>
</g>
<!-- Generic -->
<g id="node3" class="node">
<title>Generic</title>
<g id="a_node3"><a xlink:title="Abstract base class for generic types.">
<polygon fill="white" stroke="black" stroke-width="0.5" points="1305,-184 1251,-184 1251,-165 1305,-165 1305,-184"/>
<text text-anchor="middle" x="1278" y="-172" font-family="Vera Sans, DejaVu Sans, Liberation Sans, Arial, Helvetica, sans" font-size="10.00">Generic</text>
</a>
</g>
</g>
<!-- Generic&#45;&gt;RootModel -->
<g id="edge12" class="edge">
<title>Generic&#45;&gt;RootModel</title>
<path fill="none" stroke="#6ab0de" stroke-width="3" d="M1278,-164.75C1278,-156.41 1278,-143.74 1278,-134.09"/>
<polygon fill="#6ab0de" stroke="#6ab0de" stroke-width="3" points="1279.75,-134.09 1278,-129.09 1276.25,-134.09 1279.75,-134.09"/>
</g>
<!-- Initial -->
<g id="node6" class="node">
<title>Initial</title>
<g id="a_node6"><a xlink:href="../funman.model.generated_models.html#funman.model.generated_models.petrinet.Initial" xlink:title="Initial" target="_top">
<polygon fill="white" stroke="black" stroke-width="0.5" points="304,-74 250,-74 250,-55 304,-55 304,-74"/>
<text text-anchor="middle" x="277" y="-62" font-family="Vera Sans, DejaVu Sans, Liberation Sans, Arial, Helvetica, sans" font-size="10.00">Initial</text>
</a>
</g>
</g>
<!-- Rate&#45;&gt;Initial -->
<g id="edge4" class="edge">
<title>Rate&#45;&gt;Initial</title>
<path fill="none" stroke="#6ab0de" stroke-width="3" d="M277,-109.75C277,-101.41 277,-88.74 277,-79.09"/>
<polygon fill="#6ab0de" stroke="#6ab0de" stroke-width="3" points="278.75,-79.09 277,-74.09 275.25,-79.09 278.75,-79.09"/>
</g>
<!-- State]] -->
<g id="node16" class="node">
<title>State]]</title>
<polygon fill="white" stroke="black" stroke-width="0.5" points="1264,-74 1210,-74 1210,-55 1264,-55 1264,-74"/>
<text text-anchor="middle" x="1237" y="-62" font-family="Vera Sans, DejaVu Sans, Liberation Sans, Arial, Helvetica, sans" font-size="10.00">State]]</text>
</g>
<!-- RootModel&#45;&gt;State]] -->
<g id="edge15" class="edge">
<title>RootModel&#45;&gt;State]]</title>
<path fill="none" stroke="#6ab0de" stroke-width="3" d="M1271.23,-109.75C1264.6,-101.18 1254.43,-88.03 1246.9,-78.3"/>
<polygon fill="#6ab0de" stroke="#6ab0de" stroke-width="3" points="1248.09,-76.97 1243.64,-74.09 1245.32,-79.11 1248.09,-76.97"/>
</g>
<!-- Transition]] -->
<g id="node20" class="node">
<title>Transition]]</title>
<polygon fill="white" stroke="black" stroke-width="0.5" points="1353.5,-74 1282.5,-74 1282.5,-55 1353.5,-55 1353.5,-74"/>
<text text-anchor="middle" x="1318" y="-62" font-family="Vera Sans, DejaVu Sans, Liberation Sans, Arial, Helvetica, sans" font-size="10.00">Transition]]</text>
</g>
<!-- RootModel&#45;&gt;Transition]] -->
<g id="edge19" class="edge">
<title>RootModel&#45;&gt;Transition]]</title>
<path fill="none" stroke="#6ab0de" stroke-width="3" d="M1284.61,-109.75C1291.07,-101.18 1300.99,-88.03 1308.34,-78.3"/>
<polygon fill="#6ab0de" stroke="#6ab0de" stroke-width="3" points="1309.9,-79.13 1311.52,-74.09 1307.11,-77.03 1309.9,-79.13"/>
</g>
<!-- States -->
<g id="node17" class="node">
<title>States</title>
<g id="a_node17"><a xlink:href="../funman.model.generated_models.html#funman.model.generated_models.petrinet.States" xlink:title="States" target="_top">
<polygon fill="white" stroke="black" stroke-width="0.5" points="1264,-19 1210,-19 1210,0 1264,0 1264,-19"/>
<text text-anchor="middle" x="1237" y="-7" font-family="Vera Sans, DejaVu Sans, Liberation Sans, Arial, Helvetica, sans" font-size="10.00">States</text>
</a>
</g>
</g>
<!-- State]]&#45;&gt;States -->
<g id="edge16" class="edge">
<title>State]]&#45;&gt;States</title>
<path fill="none" stroke="#6ab0de" stroke-width="3" d="M1237,-54.75C1237,-46.41 1237,-33.74 1237,-24.09"/>
<polygon fill="#6ab0de" stroke="#6ab0de" stroke-width="3" points="1238.75,-24.09 1237,-19.09 1235.25,-24.09 1238.75,-24.09"/>
</g>
<!-- Transitions -->
<g id="node21" class="node">
<title>Transitions</title>
<g id="a_node21"><a xlink:href="../funman.model.generated_models.html#funman.model.generated_models.petrinet.Transitions" xlink:title="Transitions" target="_top">
<polygon fill="white" stroke="black" stroke-width="0.5" points="1352.5,-19 1283.5,-19 1283.5,0 1352.5,0 1352.5,-19"/>
<text text-anchor="middle" x="1318" y="-7" font-family="Vera Sans, DejaVu Sans, Liberation Sans, Arial, Helvetica, sans" font-size="10.00">Transitions</text>
</a>
</g>
</g>
<!-- Transition]]&#45;&gt;Transitions -->
<g id="edge20" class="edge">
<title>Transition]]&#45;&gt;Transitions</title>
<path fill="none" stroke="#6ab0de" stroke-width="3" d="M1318,-54.75C1318,-46.41 1318,-33.74 1318,-24.09"/>
<polygon fill="#6ab0de" stroke="#6ab0de" stroke-width="3" points="1319.75,-24.09 1318,-19.09 1316.25,-24.09 1319.75,-24.09"/>
</g>
</g>
</svg>
